<?xml version="1.0" encoding="utf-8" ?>
<svg baseProfile="full" height="200mm" version="1.1" viewBox="0,0,200,200" width="200mm" xmlns="http://www.w3.org/2000/svg" xmlns:ev="http://www.w3.org/2001/xml-events" xmlns:xlink="http://www.w3.org/1999/xlink"><defs /><rect fill="#1a1a1a" height="200" width="200" x="0" y="0" /><rect fill="#1a1a1a" height="200" width="180" x="10" y="0" /><text alignment-baseline="middle" fill="#e1ed5e" style="dominant-baseline: central; font-size:9.0px; font-family:Arial;" text-anchor="middle" x="100.0" y="100.0">2025</text><line stroke="#e1ed5e" stroke-width="0.3" x1="100.0" x2="100.0" y1="15.0" y2="10.0" /><path d="M 100.0 14.0 a86.0,86.0 0 0,1 42.46469731375804,11.215312516191453" fill="none" id="id13" stroke="none" /><text fill="#e1ed5e" style="font-size:6.75px; font-family:Arial;" text-anchor="middle"><textPath startOffset="22.20632615414155" xlink:href="#id13">January</textPath></text><path d="M 100.0 79.0 l 0.0 -34.887440637200456 a55.887440637200456,55.887440637200456 0 0,0 0.9620104203262,0.008280327405276565 l -0.6005299410536716 34.88227168640374" fill="#dc57ac" stroke="none" /><path d="M 103.95276090670814 79.375362276772 l 2.330478528610571 -12.159924799090215 a33.381231816416495,33.381231816416495 0 0,0 0.5634014213858444,0.11301302492461134 l -2.539446359463541 12.118007818088396" fill="#eec9e1" stroke="none" /><path d="M 106.0581310904928 79.89281104454417 l 3.8736074153142916 -12.856664056215344 a34.427533096677045,34.427533096677045 0 0,0 0.5659470479266085,0.17584250267986373 l -4.094339835951618 12.78808141865296" fill="#edc4df" stroke="none" /><path d="M 108.76106565485865 80.91482961587045 l 8.50859113955736 -18.535178027948156 a41.39482649369408,41.39482649369408 0 0,0 0.6450137699147318,0.3028426136653694 l -8.82638312077169 18.385970431642782" fill="#e6a2ce" stroke="none" /><line stroke="#e1ed5e" stroke-width="0.3" x1="143.23703022742887" x2="145.7803849466894" y1="26.81831364943548" y2="22.513508569990506" /><path d="M 143.74570117128098 25.957352633546492 a86.0,86.0 0 0,1 28.547481713284135,27.462654790039103" fill="none" id="id14" stroke="none" /><text fill="#e1ed5e" style="font-size:6.75px; font-family:Arial;" text-anchor="middle"><textPath startOffset="19.985693538727396" xlink:href="#id14">February</textPath></text><path d="M 110.99172775467656 82.1063720568725 l 6.333085627251603 -10.30974206014103 a33.09953531788481,33.09953531788481 0 0,0 0.4829077946084646,0.3023968166817743 l -6.509612574232331 10.199200902136312" fill="#efcae2" stroke="none" /><path d="M 112.19680574252982 82.90503203632743 l 7.803389448742226 -10.937182689493245 a34.43558156806367,34.43558156806367 0 0,0 0.4795641482695888,0.34842374862452263 l -7.990498913365603 10.801239706052046" fill="#edc4df" stroke="none" /><path d="M 113.89432698308785 84.25364557470405 l 7.1143967838754705 -8.06270166359597 a31.752757772523793,31.752757772523793 0 0,0 0.4067210930635679,0.3651582131606174 l -7.252128864535029 7.9390444416660575" fill="#f0d1e5" stroke="none" /><path d="M 114.68862486808459 84.99185889309783 l 7.590537330181785 -7.755651488935604 a31.85202225295877,31.85202225295877 0 0,0 0.3885403711181854,0.38687185528687706 l -7.722913501467291 7.623843782998609" fill="#f0d0e5" stroke="none" /><path d="M 114.94478906791727 85.2469230424477 l 13.777143096807912 -13.600409576790602 a40.3592565086157,40.3592565086157 0 0,0 0.4838031977900696,0.49860172282438087 l -14.00921055830109 13.361243658416107" fill="#e7a7d0" stroke="none" /><path d="M 115.68641384162765 86.03803664274999 l 6.019999452395143 -5.35820440628416 a29.059202681801768,29.059202681801768 0 0,0 0.32934888934329687,0.3765027142316115 l -6.111340205316289 5.2537861358496" fill="#f4ddec" stroke="none" /><path d="M 115.9244219780498 86.31012108654704 l 5.4318503156439695 -4.669643469613325 a28.16313953409145,28.16313953409145 0 0,0 0.31286483543737664,0.3703332825088594 l -5.511425764568464 4.575451237475359" fill="#f5e1ee" stroke="none" /><path d="M 116.15771136456269 86.58626213691792 l 6.2215120803031265 -5.164947576685667 a29.086030919757164,29.086030919757164 0 0,0 0.3164858059369861,0.38797417637582055 l -6.309496378316521 5.057089230701746" fill="#f4ddec" stroke="none" /><path d="M 116.82858285166822 87.43820079747576 l 6.466931073293634 -4.827280485547618 a29.069933976983926,29.069933976983926 0 0,0 0.2958729401258053,0.4035703578229005 l -6.549066625933065 4.715247684053224" fill="#f4ddec" stroke="none" /><path d="M 117.04232023915458 87.72973835380427 l 6.551243842231579 -4.716815253097123 a29.072616800779464,29.072616800779464 0 0,0 0.2889089636000136,0.40864124026660864 l -6.631465425635476 4.603347512498722" fill="#f4ddec" stroke="none" /><path d="M 117.2510076193507 88.02491185347247 l 6.624853795101446 -4.5987579337225535 a29.06456832939285,29.06456832939285 0 0,0 0.2817540489411314,0.41343930019755104 l -6.70303230971131 4.484040610254596" fill="#f4ddec" stroke="none" /><line stroke="#e1ed5e" stroke-width="0.3" x1="172.23445277983987" x2="176.4835382374775" y1="55.19839476539836" y2="52.563006222186495" /><path d="M 173.08426987136738 54.67131705675599 a86.0,86.0 0 0,1 12.851231095245387,41.99856678651699" fill="none" id="id15" stroke="none" /><text fill="#e1ed5e" style="font-size:6.75px; font-family:Arial;" text-anchor="middle"><textPath startOffset="22.20632615414155" xlink:href="#id15">March</textPath></text><path d="M 118.03404312379186 89.2402003453031 l 12.61161637914645 -7.524572533736828 a35.685777456785246,35.685777456785246 0 0,0 0.3101949254162437,0.5302236786987737 l -12.73927097903302 7.306369442684159" fill="#ecbedc" stroke="none" /><path d="M 119.196687751892 91.48605970444005 l 16.365160939836866 -7.258127285800558 a38.90248318763754,38.90248318763754 0 0,0 0.2662213449644018,0.6144755690973656 l -16.48767299464395 6.97535257211659" fill="#e8aed4" stroke="none" /><path d="M 119.85752413597 93.16781622104841 l 25.376295497128247 -8.730973372018148 a47.83628642678531,47.83628642678531 0 0,0 0.2611922884573308,0.7809316973054397 l -25.522825079357347 8.292868571790393" fill="#e181bf" stroke="none" /><path d="M 120.08093135843002 93.85539295169968 l 33.36571656704259 -10.209646830119413 a55.89280628479154,55.89280628479154 0 0,0 0.273592899045455,0.9224192452656006 l -33.53651536319975 9.63379819810728" fill="#dc57ac" stroke="none" /><path d="M 120.6074358757038 95.95851677861258 l 32.194950157901005 -6.314000036752158 a53.80825219565706,53.80825219565706 0 0,0 0.17042937821285017,0.9104405532638165 l -32.29886526002372 5.758881406025779" fill="#dd62b1" stroke="none" /><path d="M 120.78858239683441 97.02765380044208 l 26.574079424707843 -3.799555086392437 a47.84433489817193,47.84433489817193 0 0,0 0.10954985925337618,0.8162736966728799 l -26.635545283019056 3.3415630476548928" fill="#e181bf" stroke="none" /><path d="M 120.83666639777658 97.38593545837742 l 26.356039760860657 -3.306497674878183 a47.56263839964025,47.56263839964025 0 0,0 0.09492063740699379,0.8132220542467447 l -26.409050751271238 2.852331882306586" fill="#e183bf" stroke="none" /><path d="M 120.91429891909075 98.10471618934814 l 26.20842365331119 -2.375044998878001 a47.31581861045058,47.31581861045058 0 0,0 0.06652495085603381,0.8117729019650949 l -26.24542308798672 1.9235581797051375" fill="#e184c0" stroke="none" /><path d="M 120.94382443527127 98.46500227214037 l 10.718642561981323 -0.785582023437535 a31.747392124932716,31.747392124932716 0 0,0 0.03525382959545258,0.5453611401273356 l -10.73057698258119 0.6009618190571642" fill="#f0d1e5" stroke="none" /><path d="M 120.96714384426684 98.82574320788733 l 14.263685080440553 -0.7988321733598103 a35.28603671124981,35.28603671124981 0 0,0 0.028743655612850708,0.6067331403678761 l -14.2753223442869 0.5531879263689344" fill="#ecc0dd" stroke="none" /><path d="M 120.98425023603335 99.18683210126433 l 26.368463958386087 -1.021813416669453 a47.38825485293015,47.38825485293015 0 0,0 0.024570371335831627,0.8153710066569441 l -26.382146024177565 0.5677722625875099" fill="#e184c0" stroke="none" /><line stroke="#e1ed5e" stroke-width="0.3" x1="184.98032266829074" x2="189.97916517819016" y1="98.17113171792111" y2="98.06355123074" /><path d="M 185.9800911702706 98.14961562048488 a86.0,86.0 0 0,1 -9.607161424134198,41.387399972396054" fill="none" id="id16" stroke="none" /><text fill="#e1ed5e" style="font-size:6.75px; font-family:Arial;" text-anchor="middle"><textPath startOffset="21.466115282336823" xlink:href="#id16">April</textPath></text><path d="M 120.99513854157772 99.54816195383933 l 26.462612105991848 -0.5695039795331813 a47.468739566796344,47.468739566796344 0 0,0 0.0105493461756787,0.8170584870936941 l -26.468494459285242 0.11390923437902453" fill="#e183bf" stroke="none" /><path d="M 120.99980553446 99.90962569577887 l 26.302160924268453 -0.11319340501236132 a47.30240449147288,47.30240449147288 0 0,0 -0.0035042132800194854,0.8142557562782332 l -26.30021241369893 -0.33957182946955666" fill="#e184c0" stroke="none" /><path d="M 120.95626037817324 101.35467743843564 l 32.69975934546866 2.1138135062360215 a53.76800983872396,53.76800983872396 0 0,0 -0.06765408827184939,0.9230862830459975 l -32.658528698532464 -2.6763729257787894" fill="#dd62b1" stroke="none" /><path d="M 120.92983693683757 101.71520430193887 l 26.158374509394392 2.143683996470763 a47.24606519176654,47.24606519176654 0 0,0 -0.07340104529528578,0.809974418423024 l -26.117598867822032 -2.5936398034423576" fill="#e184c0" stroke="none" /><path d="M 120.89721153311464 102.0752229133903 l 26.07488379249901 2.58939793112762 a47.2031400110379,47.2031400110379 0 0,0 -0.08725320272152876,0.8078562923121043 l -26.026448288276427 -3.0378505453245155" fill="#e185c0" stroke="none" /><path d="M 120.8583938346157 102.4346265915055 l 23.54824649569968 2.7485906899798036 a44.708113881185824,44.708113881185824 0 0,0 -0.09579988805111435,0.7636193661180297 l -23.49744509840172 -3.1535278103852282" fill="#e391c6" stroke="none" /><path d="M 120.81339534386255 102.79330883721812 l 25.983595507704152 3.4871872539418867 a47.2165541300156,47.2165541300156 0 0,0 -0.11504189522801235,0.8046027472813423 l -25.919719561459537 -3.9339354732036385" fill="#e185c0" stroke="none" /><path d="M 120.76222939487914 103.15116336523771 l 13.27815351255285 2.0152763998012087 a34.430215920472584,34.430215920472584 0 0,0 -0.09397521778683454,0.5851837708649692 l -13.241496540404725 -2.2435394003593827" fill="#edc4df" stroke="none" /><path d="M 120.64145759157962 103.86396538481128 l 29.023028284575894 5.432948528777708 a50.5271586937118,50.5271586937118 0 0,0 -0.16738941985098976,0.853515045564467 l -28.92520893174924 -5.93172730141012" fill="#df73b8" stroke="none" /><path d="M 120.5718875245553 104.21870165774334 l 25.253710033179946 5.178808617049778 a46.7792538513426,46.7792538513426 0 0,0 -0.16855224811500646,0.7874199892605982 l -25.160823746340494 -5.612742425726545" fill="#e187c1" stroke="none" /><path d="M 120.49622156327973 104.57218783832717 l 24.629275487363795 5.494167473866571 a46.23464062084801,46.23464062084801 0 0,0 -0.17996158851201857,0.7752698132774186 l -24.531053332921225 -5.917305944492555" fill="#e28ac2" stroke="none" /><path d="M 120.41448212921028 104.9243191809786 l 25.05787374257996 6.044383958609872 a46.776571027547064,46.776571027547064 0 0,0 -0.195545413918671,0.7811067251338619 l -24.950117014366228 -6.47481852314113" fill="#e187c1" stroke="none" /><path d="M 120.02730092923936 106.31721596034902 l 55.28020568449637 17.43704750207398 a78.96509092643441,78.96509092643441 0 0,0 -0.420048216937589,1.2927754820886463 l -54.97186521654253 -18.386021884140423" fill="#991267" stroke="none" /><path d="M 119.67450827220406 107.3425965602758 l 24.674907469180823 9.208763350100941 a47.3372812008149,47.3372812008149 0 0,0 -0.2914752975121962,0.7609500258851223 l -24.51273789207512 -9.632136942819207" fill="#e184c0" stroke="none" /><path d="M 119.54520255179757 107.68017299344265 l 24.48277427236391 9.620362913755965 a47.305087315268416,47.305087315268416 0 0,0 -0.30432350612469805,0.7553059848124002 l -24.31354815198182 -10.040368266411178" fill="#e184c0" stroke="none" /><path d="M 119.41010516605496 108.01547362559984 l 25.10705507790066 10.368049841653564 a48.16359092984118,48.16359092984118 0 0,0 -0.32303783451062035,0.76356601694944 l -24.924866262197728 -10.798690384269168" fill="#e080be" stroke="none" /><path d="M 119.26925614724726 108.34839909993367 l 12.960930456342817 5.615318999819967 a35.12506728351741,35.12506728351741 0 0,0 -0.24513770284825556,0.5527208054592666 l -12.862351668763289 -5.837588141771921" fill="#ecc1dd" stroke="none" /><path d="M 119.12269723197855 108.67885076344098 l 24.674216876449997 11.19841219979039 a48.09652033495268,48.09652033495268 0 0,0 -0.3486433922218578,0.7509468500736495 l -24.477798867388305 -11.62147911714287" fill="#e180be" stroke="none" /><path d="M 118.97047184881838 109.00673069616215 l 23.57139324596224 11.19113919735956 a47.093144235420766,47.093144235420766 0 0,0 -0.3539761644445099,0.7292957430323361 l -23.37526382490302 -11.59522389635717" fill="#e185c0" stroke="none" /><path d="M 118.81262510543309 109.33194174019688 l 24.2837410741127 12.045871092822628 a48.10725163013484,48.10725163013484 0 0,0 -0.3743690978249196,0.7386657464140797 l -24.072793306501513 -12.462091050939401" fill="#e080be" stroke="none" /><line stroke="#e1ed5e" stroke-width="0.3" x1="174.80103733775053" x2="179.2010983576182" y1="140.37084112569926" y2="142.7455964860345" /><path d="M 175.68104954172406 140.8457921977663 a86.0,86.0 0 0,1 -30.038265399797805,32.042727171017184" fill="none" id="id17" stroke="none" /><text fill="#e1ed5e" style="font-size:6.75px; font-family:Arial;" text-anchor="middle"><textPath startOffset="22.206326154141568" xlink:href="#id17">May</textPath></text><path d="M 117.35343817320211 111.8261652097733 l 22.397974237719588 15.263957554449345 a48.1045688063393,48.1045688063393 0 0,0 -0.47220153214739924,0.680241525512771 l -22.13191179841005 -15.647240342149136" fill="#e180be" stroke="none" /><path d="M 117.14729908036423 112.12312394758627 l 22.14286493698196 15.654984200578385 a48.117982925316994,48.117982925316994 0 0,0 -0.48397573066441213,0.6721999601792513 l -21.870109413941947 -16.033817766208767" fill="#e080be" stroke="none" /><path d="M 116.498646956653 112.99209946851258 l 44.79622596144052 35.275439557806465 a78.01805412660883,78.01805412660883 0 0,0 -0.8399278368743401,1.0479391213096134 l -44.182380212511326 -36.04130651269433" fill="#9d136a" stroke="none" /><path d="M 116.27256486870786 113.27417163493432 l 20.709776110527354 16.893779488987953 a47.72629065116818,47.72629065116818 0 0,0 -0.5247710200761008,0.6321204992542251 l -20.41590909055771 -17.247761245355946" fill="#e182bf" stroke="none" /><path d="M 116.0416608686014 113.55231037782055 l 20.50608174664931 17.323940877437423 a47.84433489817193,47.84433489817193 0 0,0 -0.5368988520646808,0.6245346605225823 l -20.20484038501385 -17.674352637121533" fill="#e181bf" stroke="none" /><path d="M 115.80600337817218 113.82643327865902 l 20.414844722415555 17.858055682720238 a48.12334857290808,48.12334857290808 0 0,0 -0.5507629026089024,0.618787959678533 l -20.104422970158318 -18.206817812139636" fill="#e080be" stroke="none" /><path d="M 115.56566222782051 114.09645910891815 l 20.09845726601287 18.20141519557817 a48.115300101521456,48.115300101521456 0 0,0 -0.5612388376300653,0.6091139122307946 l -19.78217202038708 -18.5446803626103" fill="#e080be" stroke="none" /><path d="M 115.32070863581623 114.36230785411682 l 19.77238564855549 18.535506186117473 a48.10188598254376,48.10188598254376 0 0,0 -0.5714812104266995,0.599195764380624 l -19.450397886749823 -18.873109067080602" fill="#e180be" stroke="none" /><path d="M 114.55890576462653 115.13401014063108 l 18.61625328728703 19.351630581667262 a47.85238336955855,47.85238336955855 0 0,0 -0.5985288738179186,0.5659464084835161 l -18.280388579078302 -19.669211626896697" fill="#e181be" stroke="none" /><path d="M 114.29624159901734 115.38237550388516 l 18.463028089309873 19.865726879438373 a48.12066574911253,48.12066574911253 0 0,0 -0.6115917794472658,0.5586745898239477 l -18.118336760395742 -20.180594235848904" fill="#e080be" stroke="none" /><path d="M 114.0293411484842 115.62618273729858 l 18.11475216513204 20.17660163633642 a48.115300101521456,48.115300101521456 0 0,0 -0.6210485730815156,0.5480031576650178 l -17.764761239143937 -20.48542793577373" fill="#e080be" stroke="none" /><path d="M 113.75828350139079 115.86535959552629 l 17.944043483765753 20.69216719069101 a48.38894812866653,48.38894812866653 0 0,0 -0.6339747705866022,0.5402870532828229 l -17.585203236602105 -20.99797863419678" fill="#e07fbd" stroke="none" /><path d="M 113.48314897796784 116.09983520530334 l 17.418118829319276 20.79846801341932 a48.12871422049916,48.12871422049916 0 0,0 -0.6397219911274871,0.5264476466465042 l -17.0575267096471 -21.095210778923004" fill="#e080be" stroke="none" /><path d="M 113.20401910651253 116.32954008644616 l 16.877032706687025 20.87199207309381 a47.84165207437639,47.84165207437639 0 0,0 -0.6448200550321731,0.5122840499758841 l -16.5152551589375 -21.15941003707482" fill="#e181bf" stroke="none" /><path d="M 112.92097659922987 116.55440617244103 l 9.915755896025741 12.704105556492594 a37.11572253980799,37.11572253980799 0 0,0 -0.5070206913274958,0.38876184563851574 l -9.695606476204752 -12.872906743958483" fill="#eab7d8" stroke="none" /><path d="M 112.63410532772338 116.77436683061366 l 16.318059176698863 21.665571363645796 a48.12334857290808,48.12334857290808 0 0,0 -0.6659699223368296,0.4926686274525462 l -15.942704283943469 -21.94324993983811" fill="#e080be" stroke="none" /><path d="M 112.34349029814194 116.9893568818739 l 15.941127359681948 21.9410794897946 a48.12066574911253,48.12066574911253 0 0,0 -0.6743141378896191,0.48110523323345317 l -15.561085893943444 -22.212228984872272" fill="#e080be" stroke="none" /><path d="M 112.04921762599082 117.19931262002967 l 15.553389244475675 22.201242621738007 a48.10725163013484,48.10725163013484 0 0,0 -0.6823054141785827,0.4692958854649625 l -15.16892694567421 -22.465679296568062" fill="#e080be" stroke="none" /><path d="M 111.7513745106137 117.40417183066458 l 10.23422159428554 15.15721850402855 a39.28880981419529,39.28880981419529 0 0,0 -0.5637482120671737,0.37362157470769664 l -9.9717986834784 -15.331138099827566" fill="#e8add3" stroke="none" /><path d="M 111.1453310114006 117.79835938074945 l 14.356732003952557 22.926755201624438 a48.0509123304285,48.0509123304285 0 0,0 -0.704794307619099,0.43294222820645556 l -13.959958496401148 -23.170485896659272" fill="#e180be" stroke="none" /><line stroke="#e1ed5e" stroke-width="0.3" x1="143.8653032363475" x2="146.44561519142675" y1="172.8068346515853" y2="177.08958963109032" /><path d="M 144.38136562736335 173.6633856474863 a86.0,86.0 0 0,1 -40.68145358897372,12.25698825130547" fill="none" id="id18" stroke="none" /><text fill="#e1ed5e" style="font-size:6.75px; font-family:Arial;" text-anchor="middle"><textPath startOffset="21.466115282336833" xlink:href="#id18">June</textPath></text><path d="M 110.8373102113329 117.98757091392108 l 13.851967148318307 22.991243815935338 a47.84165207437639,47.84165207437639 0 0,0 -0.7090409156489326,0.4189138708220015 l -13.454158361640992 -23.226276259051087" fill="#e181bf" stroke="none" /><path d="M 109.89434966115114 118.52300852407294 l 12.769311256568509 23.90516500348146 a48.10188598254376,48.10188598254376 0 0,0 -0.7336891278972383,0.3838314754261829 l -12.355931226144776 -24.12142589785236" fill="#e180be" stroke="none" /><path d="M 109.57404056367764 118.69057910512821 l 12.240958197511077 23.89697390474227 a47.849700545763014,47.849700545763014 0 0,0 -0.7363068452339715,0.3691995376796822 l -11.827797444594346 -24.104141283331256" fill="#e181bf" stroke="none" /><path d="M 109.2508944713604 118.85261126421891 l 11.823070107486194 24.094507333977404 a47.83896925058085,47.83896925058085 0 0,0 -0.7423863835567,0.3563905788534486 l -11.40657105592926 -24.294452189330414" fill="#e181bf" stroke="none" /><path d="M 108.92500713936063 119.00905698771935 l 12.547912282137295 26.72535449256109 a50.52447586991626,50.52447586991626 0 0,0 -0.7904241581116306,0.36284496313225895 l -12.086020128258244 -26.937386526027424" fill="#df73b8" stroke="none" /><path d="M 108.59647513512805 119.15986991738527 l 6.605852891546874 14.723160377469783 a37.13718513017231,37.13718513017231 0 0,0 -0.5854930570479785,0.2566629501549571 l -6.351439159841141 -14.834687880919194" fill="#eab7d8" stroke="none" /><path d="M 108.2653958097858 119.30500536409082 l 14.599334634075417 34.09881872678118 a58.09272179713423,58.09272179713423 0 0,0 -0.9226467007056289,0.38566639572381595 l -14.010216473872326 -34.345070165524966" fill="#db4aa7" stroke="none" /><path d="M 107.93186726928326 119.44442032107085 l 10.245718122907789 25.11666457714617 a48.12603139670362,48.12603139670362 0 0,0 -0.7697390304714367,0.3062950458277163 l -9.811858016394485 -25.289306467379955" fill="#e080be" stroke="none" /><path d="M 107.59598834532513 119.57807347666477 l 16.34468643755636 42.12716732569288 a66.18680118827803,66.18680118827803 0 0,0 -1.065701355922668,0.4029570643698032 l -15.617114860873418 -42.402272640169315" fill="#d32392" stroke="none" /><path d="M 107.2578585660854 119.70592522655815 l 11.072824655260366 30.063999279754313 a53.03828176633712,53.03828176633712 0 0,0 -0.8594233248996724,0.3081586274917257 l -10.553681769730957 -30.250145448286" fill="#dd66b2" stroke="none" /><path d="M 106.91757812671514 119.82793768551818 l 4.963995185109596 14.228359318625227 a36.06942125954745,36.06942125954745 0 0,0 -0.5879835529800257,0.19947594520938958 l -4.7183418991923425 -14.31169825073274" fill="#ebbcdb" stroke="none" /><path d="M 106.57524785965236 119.94407469862006 l 13.93830285442381 42.27772994025429 a65.51609523939305,65.51609523939305 0 0,0 -1.0740853878053374,0.34388822267665936 l -13.208496121527533 -42.51139100959065" fill="#d62495" stroke="none" /><path d="M 106.2309692047433 120.05430185196036 l 8.761715363434462 28.199478903781852 a50.52927812451028,50.52927812451028 0 0,0 -0.8328308420172403,0.2509251008842233 l -8.275009546976976 -28.3461193737718" fill="#df73b8" stroke="none" /><path d="M 105.88484417918355 120.15858648285463 l 7.978202665129404 27.329404739662188 a49.47012611826909,49.47012611826909 0 0,0 -0.8194816660228621,0.23159370439917523 l -7.506589831001936 -27.46268723739988" fill="#e079bb" stroke="none" /><path d="M 105.53697534728816 120.25689768951611 l 9.69589397036784 35.47220636666417 a57.773465765464984,57.773465765464984 0 0,0 -0.9615418303301323,0.2539519367078884 l -9.08386169722621 -35.633849652675636" fill="#db4ca7" stroke="none" /><path d="M 105.18746579009965 120.34920634021253 l 7.115592255279626 27.91279227553647 a49.80547909271158,49.80547909271158 0 0,0 -0.8325738017755749,0.2046263840564783 l -6.6340651687608405 -28.031139917906977" fill="#df77ba" stroke="none" /><path d="M 104.83641907484287 120.43548508189849 l 3.6343085892382656 15.356166992374856 a36.78036956536551,36.78036956536551 0 0,0 -0.6173494842702552,0.14050673270254976 l -3.3694389555751485 -15.41645045865509" fill="#ebb9d9" stroke="none" /><path d="M 104.48393922423573 120.51570834832081 l 5.791402217080033 26.497843273886936 a48.12334857290808,48.12334857290808 0 0,0 -0.8107834109383445,0.16990754686157492 l -5.33442734471231 -26.593606801475055" fill="#e080be" stroke="none" /><path d="M 104.13013068566511 120.58985236759428 l 11.741876596548986 58.53652681755781 a80.70256810113992,80.70256810113992 0 0,0 -1.3643821553874849,0.26148708733690984 l -10.732526826589796 -58.72997110324319" fill="#901061" stroke="none" /><path d="M 103.7750983002368 120.6578951692458 l 5.038400825275856 27.570873071745208 a49.02746019200501,49.02746019200501 0 0,0 -0.831484779690272,0.144564286980654 l -4.563067074113534 -27.653515937246866" fill="#e07bbc" stroke="none" /><path d="M 103.41894727170886 120.7198165907248 l 5.392080313001971 32.67757770128387 a54.11945975593969,54.11945975593969 0 0,0 -0.9204538145573243,0.14375595574507172 l -4.828790634836129 -32.76555196437605" fill="#dd60b0" stroke="none" /><path d="M 103.06178313531738 120.77559828337769 l 4.165394205781283 28.26410391807538 a49.56939059870407,49.56939059870407 0 0,0 -0.8452086440803928,0.11713821651083764 l -3.67825697051406 -28.331616700078822" fill="#e078ba" stroke="none" /><path d="M 102.70371172650421 120.8252237178851 l 3.605721148952603 27.772912642700987 a49.00599760164069,49.00599760164069 0 0,0 -0.8374718402494605,0.10140617690790557 l -3.127121885651762 -27.83086434833424" fill="#e07bbc" stroke="none" /><path d="M 102.34483914955558 120.86867818915974 l 3.02856617146655 26.953734894305892 a48.12334857290808,48.12334857290808 0 0,0 -0.8239803566192397,0.08540893301599817 l -2.564153218241708 -27.001873195777648" fill="#e080be" stroke="none" /><path d="M 101.98527174616119 120.90594882070398 l 3.3425296996248735 35.1985842578787 a56.35693480141994,56.35693480141994 0 0,0 -0.9665366811143262,0.08339685182079716 l -2.7361487007690055 -35.25090536197816" fill="#dc54ab" stroke="none" /><path d="M 101.62511606390274 120.93702456842531 l 0.9637455246202079 12.416321624577174 a33.45366805889607,33.45366805889607 0 0,0 -0.5745065947894457,0.039621338410829446 l -0.7498761690518319 -12.431071307504288" fill="#eec9e1" stroke="none" /><path d="M 101.26447882468166 120.96189622390904 l 1.2928175314351165 21.43168110167101 a42.47063883570557,42.47063883570557 0 0,0 -0.7301146362757884,0.0377385870289047 l -0.9237148267458485 -21.45075949546212" fill="#e59dcb" stroke="none" /><path d="M 100.90346689309514 120.98055641714683 l 1.152248546220643 26.75783231828044 a47.782629950874515,47.782629950874515 0 0,0 -0.8220424640339129,0.028312804581433336 l -0.6914857305120778 -26.773701921287966" fill="#e182bf" stroke="none" /><line stroke="#e1ed5e" stroke-width="0.3" x1="102.19456741930631" x2="102.32365962044197" y1="184.97166512339345" y2="189.96999836594603" /><path d="M 102.22038585953345 185.97133177190398 a86.0,86.0 0 0,1 -42.740103519485714,-10.115201625700543" fill="none" id="id19" stroke="none" /><text fill="#e1ed5e" style="font-size:6.75px; font-family:Arial;" text-anchor="middle"><textPath startOffset="22.20632615414155" xlink:href="#id19">July</textPath></text><path d="M 100.54218724476979 120.99299961872073 l 0.7743975225007544 29.98397149954918 a50.99397003413574,50.99397003413574 0 0,0 -0.8776798258448582,0.01511005415063148 l -0.25815800676322836 -29.992859030978973" fill="#df71b7" stroke="none" /><path d="M 100.18074693466247 120.99922214144158 l 0.22516088765189976 26.159245832833268 a47.160214830309265,47.160214830309265 0 0,0 -0.8118156446286925,0.0 l 0.22516088765188175 -26.159245832833268" fill="#e185c0" stroke="none" /><path d="M 99.81925306533755 120.99922214144158 l -0.34197854026503627 39.73114868057232 a60.73262041194546,60.73262041194546 0 0,0 -1.0452960550154502,-0.01799571954330964 l 1.0258342851731543 -39.71937548374985" fill="#da3ca1" stroke="none" /><path d="M 99.45781275523022 120.99299961872073 l -0.6795719224735864 26.312410052064127 a47.321184258041654,47.321184258041654 0 0,0 -0.8141038479564147,-0.028039382592322377 l 1.1323961221046441 -26.29681387104571" fill="#e184c0" stroke="none" /><path d="M 99.09653310690486 120.98055641714683 l -1.1547878097703563 26.81679979408953 a47.84165207437639,47.84165207437639 0 0,0 -0.8224479631266874,-0.04251116535825562 l 1.6162238413105325 -26.79294882196907" fill="#e181bf" stroke="none" /><path d="M 98.73552117531835 120.96189622390904 l -1.5950069658165074 26.441226093505563 a47.48928999707019,47.48928999707019 0 0,0 -0.8155431636720079,-0.05624463142730262 l 2.049912890267445 -26.409853117561976" fill="#e183bf" stroke="none" /><path d="M 98.37488393609728 120.93702456842531 l -2.0973195367757986 27.020612031770497 a48.10188598254376,48.10188598254376 0 0,0 -0.8249603601886486,-0.07118105112923936 l 2.562124214705989 -26.980506728362595" fill="#e180be" stroke="none" /><path d="M 98.01472825383883 120.90594882070398 l -2.538283423161506 26.72945073623568 a47.849700545763014,47.849700545763014 0 0,0 -0.8192948846876157,-0.08492326469253894 l 2.9980109044547154 -26.68179810308738" fill="#e181bf" stroke="none" /><path d="M 97.65516085044442 120.86867818915974 l -2.9536758111434347 26.28722315112326 a47.45264262402311,47.45264262402311 0 0,0 -0.8109262924526027,-0.09819188075294816 l 3.4057295266474266 -26.23248574164496" fill="#e183bf" stroke="none" /><path d="M 97.2962882734958 120.8252237178851 l -3.398475944491281 26.17661533590718 a47.396303324316776,47.396303324316776 0 0,0 -0.8081552906606853,-0.11200295935778641 l 3.8485598263387972 -26.11423781105679" fill="#e184c0" stroke="none" /><path d="M 96.93821686468263 120.77559828337769 l -3.9260082302025108 26.639760637216884 a47.92750243583367,47.92750243583367 0 0,0 -0.8151421436616773,-0.12730843859507207 l 4.383986237472706 -26.56823389127471" fill="#e181be" stroke="none" /><path d="M 96.58105272829116 120.7198165907248 l -3.784720608518581 22.936509581338587 a44.24666818835297,44.24666818835297 0 0,0 -0.7504045897246113,-0.13046745666343773 l 4.178974169715242 -22.867963546154144" fill="#e394c7" stroke="none" /><path d="M 95.86986931433489 120.58985236759428 l -5.330733873751574 26.57519381951558 a48.1045688063393,48.1045688063393 0 0,0 -0.8104670089495437,-0.169841241748507 l 5.787392344130503 -26.479496597040534" fill="#e180be" stroke="none" /><path d="M 95.16358092515715 120.4354850818985 l -6.1620128460511925 26.036561274218712 a47.755801712919116,47.755801712919116 0 0,0 -0.7983103488464197,-0.19620526095215973 l 6.6092764796408225 -25.926634754952524" fill="#e182bf" stroke="none" /><path d="M 94.81253420990036 120.34920634021253 l -6.647051347718586 26.07481666421075 a47.90872266926489,47.90872266926489 0 0,0 -0.7973598307429494,-0.2105899783899406 l 7.094901621273024 -25.95653533651723" fill="#e181be" stroke="none" /><path d="M 92.7421414339146 119.70592522655815 l -9.27865988320134 25.192634465960598 a47.847017721967475,47.847017721967475 0 0,0 -0.7704048352194138,-0.29130118775868924 l 9.710934939181037 -25.029185028095274" fill="#e181bf" stroke="none" /><path d="M 92.06813273071674 119.44442032107085 l -9.86876162585292 24.192581971795722 a47.12802094476278,47.12802094476278 0 0,0 -0.7485019067847505,-0.31287385774132886 l 10.283734992135132 -24.01912307103442" fill="#e185c0" stroke="none" /><path d="M 91.07499286063937 119.00905698771935 l -11.081613763752154 23.602337147951047 a47.07436446885199,47.07436446885199 0 0,0 -0.730520906778018,-0.3506944289358497 l 11.486247338530413 -23.408088442515634" fill="#e185c0" stroke="none" /><path d="M 90.10565033884886 118.52300852407294 l -10.160336951128253 19.020957859630172 a42.56453766854947,42.56453766854947 0 0,0 -0.6432863466359791,-0.35077100700314606 l 10.486246109632873 -18.84324620086726" fill="#e59ccb" stroke="none" /><line stroke="#e1ed5e" stroke-width="0.3" x1="58.666819895761336" x2="56.23545636021788" y1="174.27360380694188" y2="178.64263932499728" /><path d="M 58.180547188652646 175.14741091055294 a86.0,86.0 0 0,1 -31.652253787137756,-30.449443065178592" fill="none" id="id20" stroke="none" /><text fill="#e1ed5e" style="font-size:6.75px; font-family:Arial;" text-anchor="middle"><textPath startOffset="22.20632615414155" xlink:href="#id20">August</textPath></text><path d="M 89.7882731507175 118.34994917583269 l -13.062799489394617 23.473180419169424 a47.863114664740706,47.863114664740706 0 0,0 -0.7164680530406138,-0.4068292591840327 l 13.46491630935644 -23.24484799419076" fill="#e181be" stroke="none" /><path d="M 88.8546689885994 117.79835938074946 l -14.996042989747915 23.947692728702624 a49.2555002146259,49.2555002146259 0 0,0 -0.7147165364132465,-0.45616590918146444 l 15.406041328208085 -23.686012390697353" fill="#e07abb" stroke="none" /><path d="M 88.54995079064634 117.60387380957326 l -14.139270364456834 21.738415853444806 a46.93217480768838,46.93217480768838 0 0,0 -0.6734215101293084,-0.446307056361121 l 14.511366573326104 -21.491810775992366" fill="#e186c1" stroke="none" /><path d="M 88.24862548938628 117.40417183066458 l -14.587931822161156 21.605206425648436 a47.068998821260905,47.068998821260905 0 0,0 -0.6675798688859877,-0.4591675211380288 l 14.957668575670036 -21.35089811514531" fill="#e185c0" stroke="none" /><path d="M 87.95078237400918 117.19931262002967 l -15.46718677043661 22.078195354634154 a47.957013497584605,47.957013497584605 0 0,0 -0.672020881443873,-0.4794690556491483 l 15.844934979729368 -21.808682037140787" fill="#e181be" stroke="none" /><path d="M 87.65650970185807 116.9893568818739 l -16.63497403474971 22.89607750893692 a49.30110821915008,49.30110821915008 0 0,0 -0.6822687154050411,-0.5047260849152986 l 17.026627720573316 -22.60634147528185" fill="#e07abb" stroke="none" /><path d="M 87.07902340077011 116.55440617244103 l -12.352222354765871 15.82571599156738 a41.075624118500755,41.075624118500755 0 0,0 -0.5536260780333244,-0.4398340393011295 l 12.622805925516554 -15.61074803826112" fill="#e6a4cf" stroke="none" /><path d="M 86.79598089348748 116.32954008644616 l -17.07945588757682 21.122330808603188 a48.16359092984118,48.16359092984118 0 0,0 -0.6401855688129886,-0.5268291395214542 l 17.440511584934498 -20.82520655022455" fill="#e080be" stroke="none" /><path d="M 86.51685102203217 116.09983520530335 l -6.55935487559808 7.83233447340791 a31.216193013415822,31.216193013415822 0 0,0 -0.40898344703927514,-0.3485445662732722 l 6.6932037992144116 -7.718265516911686" fill="#f1d3e6" stroke="none" /><path d="M 86.24171649860922 115.8653595955263 l -17.687423800287455 20.396246296397663 a47.997255854517704,47.997255854517704 0 0,0 -0.6195249161364799,-0.5466587075635791 l 18.03589106933052 -20.088764447061795" fill="#e181be" stroke="none" /><path d="M 85.97065885151581 115.62618273729859 l -19.039577743167857 21.206692310557234 a49.49963718002003,49.49963718002003 0 0,0 -0.6291178792654507,-0.5746842664680396 l 19.401795171900165 -20.875815277502614" fill="#e079bb" stroke="none" /><path d="M 85.44109423537348 115.13401014063109 l -9.095162211493005 9.454438359911375 a34.11900836018996,34.11900836018996 0 0,0 -0.41974511594027386,-0.41080894058371503 l 9.256557279809073 -9.29647931640509" fill="#edc5df" stroke="none" /><path d="M 85.18274418774928 114.88116024355367 l -12.327197734997108 12.380362947962016 a38.470924151887004,38.470924151887004 0 0,0 -0.4652405643404387,-0.4712862354010366 l 12.53847892439308 -12.166336218580316" fill="#e9b1d5" stroke="none" /><path d="M 84.9287848128048 114.62390073753433 l -19.27326102221002 18.701229633882097 a47.85506619335409,47.85506619335409 0 0,0 -0.5685488332651513,-0.5961211786502293 l 19.592316406854124 -18.366701338649367" fill="#e181be" stroke="none" /><path d="M 84.67929136418377 114.36230785411682 l -5.8816094707888755 5.513680072191942 a29.061885505597306,29.061885505597306 0 0,0 -0.33899110690537393,-0.36790789498905313 l 5.9756469856899805 -5.411620922401547" fill="#f4ddec" stroke="none" /><path d="M 84.4343377721795 114.09645910891817 l -13.005235037075701 11.777704103995385 a38.54566762283075,38.54566762283075 0 0,0 -0.4411480998830535,-0.4956345667974988 l 13.20604198660709 -11.552095367457019" fill="#e9b0d5" stroke="none" /><path d="M 84.19399662182784 113.82643327865904 l -14.781074517119858 12.929868209447303 a40.63827018335184,40.63827018335184 0 0,0 -0.456033941275869,-0.5304705003675189 l 15.001450967966509 -12.673520609918253" fill="#e7a6d0" stroke="none" /><path d="M 83.95833913139862 113.55231037782056 l -47.33039755535335 39.985650066401924 a82.95981555799328,82.95981555799328 0 0,0 -0.9121787266873849,-1.0987780385416424 l 48.01167228193427 -39.16501077074652" fill="#850e59" stroke="none" /><path d="M 83.06392112726016 112.41649034213515 l -21.21885269316667 15.556356433835521 a47.3104529628595,47.3104529628595 0 0,0 -0.47585350941044,-0.6609189052470238 l 21.483485994952716 -15.188803923137357" fill="#e184c0" stroke="none" /><line stroke="#e1ed5e" stroke-width="0.3" x1="26.63291911575756" x2="22.317208475507996" y1="142.92168965132927" y2="145.44649492493687" /><path d="M 25.769776987707644 143.4266507060508 a86.0,86.0 0 0,1 -11.730757126820373,-40.83630448921669" fill="none" id="id21" stroke="none" /><text fill="#e1ed5e" style="font-size:6.75px; font-family:Arial;" text-anchor="middle"><textPath startOffset="21.46611528233685" xlink:href="#id21">September</textPath></text><line stroke="#e1ed5e" stroke-width="0.3" x1="15.007084014347285" x2="10.007500721073583" y1="101.09737516637583" y2="101.16192664675087" /><path d="M 14.007167355692545 101.11028546245083 a86.0,86.0 0 0,1 10.666146001902534,-42.60595125391555" fill="none" id="id22" stroke="none" /><text fill="#e1ed5e" style="font-size:6.75px; font-family:Arial;" text-anchor="middle"><textPath startOffset="22.20632615414155" xlink:href="#id22">October</textPath></text><path d="M 79.00175016825051 100.2711162175752 l -24.24193375410501 0.31299662775628756 a45.243954277869,45.243954277869 0 0,0 -0.003351721062080121,-0.7788219352398056 l 24.243729772456593 0.10433478568719345" fill="#e38fc5" stroke="none" /><path d="M 79.00486145842228 99.54816195383935 l -26.870709250926645 -0.5782866706426212 a47.87693120728774,47.87693120728774 0 0,0 0.024823745500524335,-0.8237792616606173 l 26.856773810970473 1.040736079728233" fill="#e181be" stroke="none" /><path d="M 79.08570108090925 98.10471618934814 l -26.73681368916386 -2.422928462939372 a47.84637384425654,47.84637384425654 0 0,0 0.08139095235235608,-0.819595782802029 l 26.691145611129276 2.8827997764458315" fill="#e181bf" stroke="none" /><path d="M 79.12142395522702 97.74499172005258 l -13.356402090086418 -1.4425695142649482 a34.43407918673816,34.43407918673816 0 0,0 0.06872000492203155,-0.5887510355721851 l 13.329591732160797 1.672264288161995" fill="#edc4df" stroke="none" /><path d="M 79.26566170972629 96.67025291283419 l -32.45630594196476 -5.21218901020414 a53.87215705846682,53.87215705846682 0 0,0 0.15491615622147567,-0.9143239233199693 l 32.36177792422306 5.770098721839937" fill="#dd61b0" stroke="none" /><path d="M 79.3925641242962 95.95851677861259 l -26.3440464756766 -5.166534180044411 a47.845890935973344,47.845890935973344 0 0,0 0.16545725177832207,-0.8068283206180461 l 26.251209927983282 5.61923815682586" fill="#e181bf" stroke="none" /><path d="M 79.54389044137918 95.25157060432595 l -13.09275440052136 -3.03919079469224 a34.44086673094088,34.44086673094088 0 0,0 0.13902170616058693,-0.5763347239858656 l 13.038499894099957 3.2641107503375024" fill="#edc4df" stroke="none" /><path d="M 79.71946130924805 94.55025226153421 l -12.990538166299434 -3.4907926792658053 a34.4513834002194,34.4513834002194 0 0,0 0.15882617549674813,-0.5713822580893664 l 12.928525220236324 3.713886240774114" fill="#edc4df" stroke="none" /><path d="M 79.91906864156998 93.8553929516997 l -54.17583138371966 -16.577378281221257 a77.65536317768981,77.65536317768981 0 0,0 0.4021235667410626,-1.2748415967430906 l 53.882452333210395 17.507470044390764" fill="#9f146b" stroke="none" /><path d="M 80.14247586403 93.16781622104843 l -12.70532234823578 -4.371395782253049 a34.43630593048846,34.43630593048846 0 0,0 0.19767574229577467,-0.558855942771897 l 12.628193525130197 4.589449351451557" fill="#edc4df" stroke="none" /><path d="M 80.2630227832202 92.82701384747504 l -12.626554570802393 -4.588853708229759 a34.43456209502136,34.43456209502136 0 0,0 0.20725574503649913,-0.5553423556242945 l 12.545694237264266 4.805519200883395" fill="#edc4df" stroke="none" /><path d="M 80.38941819471856 92.48833698450439 l -12.594623151290044 -4.824260996385699 a34.486957643748255,34.486957643748255 0 0,0 0.21711420216478264,-0.5525319627312743 l 12.50971539924357 5.040341964012737" fill="#edc4de" stroke="none" /><path d="M 81.26839172434947 90.50648371742162 l -11.977061190628515 -6.070190223787422 a34.42747944020113,34.42747944020113 0 0,0 0.27245344395407367,-0.5262933335298113 l 11.870798313514326 6.275456279577569" fill="#edc4df" stroke="none" /><path d="M 81.43458229118936 90.18545643968196 l -11.88002460521571 -6.2803337266258215 a34.437915624765786,34.437915624765786 0 0,0 0.2815576758366632,-0.521683612125227 l 11.770158830160574 6.483898322083522" fill="#edc4df" stroke="none" /><line stroke="#e1ed5e" stroke-width="0.3" x1="26.266209847984243" x2="21.928928074336255" y1="57.711370442889674" y2="55.22380399835377" /><path d="M 25.398753493254645 57.213857153982495 a86.0,86.0 0 0,1 29.58750427330803,-30.492523968695096" fill="none" id="id23" stroke="none" /><text fill="#e1ed5e" style="font-size:6.75px; font-family:Arial;" text-anchor="middle"><textPath startOffset="21.46611528233685" xlink:href="#id23">November</textPath></text><line stroke="#e1ed5e" stroke-width="0.3" x1="56.76296977257108" x2="54.21961505331056" y1="26.818313649435495" y2="22.513508569990535" /><path d="M 56.25429882871898 25.957352633546506 a86.0,86.0 0 0,1 42.26535254187918,-11.944610805530505" fill="none" id="id24" stroke="none" /><text fill="#e1ed5e" style="font-size:6.75px; font-family:Arial;" text-anchor="middle"><textPath startOffset="22.20632615414155" xlink:href="#id24">December</textPath></text><path d="M 90.26544431104013 81.39251694778311 l -6.425990187023779 -12.283200930717888 a34.86255297512383,34.86255297512383 0 0,0 0.534126704553678,-0.2736004436661508 l 6.213602994881337 12.391993899696542" fill="#edc2de" stroke="none" /><path d="M 92.23578459929587 80.48803036053334 l -4.958854511366002 -12.461918388241882 a34.41229465751838,34.41229465751838 0 0,0 0.55226298240835,-0.21426945725422497 l 4.743608363957974 12.545430549386658" fill="#edc4df" stroke="none" /><path d="M 93.25333710446033 80.11325718540243 l -4.490602258026592 -13.236685094651163 a34.97767294419045,34.97767294419045 0 0,0 0.5718302837965478,-0.18852345403007026 l 4.262089151987635 13.312022272940467" fill="#edc1dd" stroke="none" /><path d="M 93.59665428221793 80.00007090966166 l -14.102517953354416 -44.047185876449134 a67.24970914783296,67.24970914783296 0 0,0 1.1055039656562407,-0.343485463446951 l 13.342228614987448 44.28341147477861" fill="#ce218f" stroke="none" /><path d="M 94.28887869178378 79.79150937346287 l -3.6518220112566544 -12.921772608488249 a34.427881863770466,34.427881863770466 0 0,0 0.5716702416882421,-0.15625907202188533 l 3.4288538803446897 12.98271822133643" fill="#edc4df" stroke="none" /><path d="M 94.63758080256005 79.69619591428918 l -3.4437746591284397 -13.039212978287942 a34.48631376603733,34.48631376603733 0 0,0 0.5752499606791913,-0.1466440234517915 l 3.2188158097642487 13.096559997908598" fill="#edc4de" stroke="none" /><path d="M 94.98787191387505 79.60689891045804 l -3.2048697060272278 -13.03981677458563 a34.427881863770466,34.427881863770466 0 0,0 0.5767101594155531,-0.13648866197571718 l 2.9799358596491405 13.093051348702216" fill="#edc4df" stroke="none" /><path d="M 95.692805502759 79.44645832069477 l -9.266547066232864 -44.219122556703915 a66.17963804874393,66.17963804874393 0 0,0 1.116966034941982,-0.2240528787384666 l 8.504014621823746 44.37207939151959" fill="#d32393" stroke="none" /><path d="M 96.04723909329186 79.375362276772 l -2.528339438053741 -13.19231954118762 a34.432415835984926,34.432415835984926 0 0,0 0.5830635744519161,-0.10655114138251279 l 2.300880742498932 13.233886163920868" fill="#edc4df" stroke="none" /><path d="M 97.11714578562143 79.19881850522333 l -1.851071543592848 -13.356372634469592 a34.484033365811115,34.484033365811115 0 0,0 0.5886675268231852,-0.07642593985279564 l 1.620889288261805 13.386256897486525" fill="#edc4de" stroke="none" /><path d="M 97.47563105711357 79.15227682838746 l -1.6154906884270426 -13.341672085434151 a34.43912289547377,34.43912289547377 0 0,0 0.5891276021892852,-0.06619535042784191 l 1.3855963827280395 13.367503389332592" fill="#edc4df" stroke="none" /><path d="M 98.19473922651362 79.07773832637324 l -5.415782320459142 -62.766785020880285 a84.0,84.0 0 0,0 1.4416392425506632,-0.11189895124615123 l 4.334552888546145 62.8507092343149" fill="#800d55" stroke="none" /><path d="M 98.55514903715128 79.0497635885617 l -0.9244467635802505 -13.404412458299442 a34.436252274012546,34.436252274012546 0 0,0 0.5917098436284076,-0.03569355365715437 l 0.6935748711122198 13.418339281336904" fill="#edc4df" stroke="none" /><path d="M 99.27714615592234 79.0124445844662 l -0.46282528971283055 -13.437808341398142 a34.44577629848672,34.44577629848672 0 0,0 0.5927517183004111,-0.015309028095788489 l 0.2314469362175405 13.443784161636291" fill="#edc4df" stroke="none" /></svg>