<?xml version="1.0" encoding="utf-8" ?>
<svg baseProfile="full" height="200mm" version="1.1" viewBox="0,0,200,200" width="200mm" xmlns="http://www.w3.org/2000/svg" xmlns:ev="http://www.w3.org/2001/xml-events" xmlns:xlink="http://www.w3.org/1999/xlink"><defs /><rect fill="#1a1a1a" height="200" width="200" x="0" y="0" /><rect fill="#1a1a1a" height="200" width="180" x="10" y="0" /><text alignment-baseline="middle" fill="#e1ed5e" style="dominant-baseline: central; font-size:9.0px; font-family:Arial;" text-anchor="middle" x="100.0" y="100.0">2024</text><line stroke="#e1ed5e" stroke-width="0.3" x1="100.0" x2="100.0" y1="15.0" y2="10.0" /><path d="M 100.0 14.0 a86.0,86.0 0 0,1 42.35913384403234,11.155469271406648" fill="none" id="id1" stroke="none" /><text fill="#e1ed5e" style="font-size:6.75px; font-family:Arial;" text-anchor="middle"><textPath startOffset="22.145653131862478" xlink:href="#id1">January</textPath></text><line stroke="#e1ed5e" stroke-width="0.3" x1="143.13028292997686" x2="145.6673583964461" y1="26.7553504044142" y2="22.446841604673864" /><path d="M 143.63769802327073 25.89364864446614 a86.0,86.0 0 0,1 29.32050498858742,28.57503671076993" fill="none" id="id2" stroke="none" /><text fill="#e1ed5e" style="font-size:6.75px; font-family:Arial;" text-anchor="middle"><textPath startOffset="20.669276256404974" xlink:href="#id2">February</textPath></text><line stroke="#e1ed5e" stroke-width="0.3" x1="172.87174338648825" x2="177.1583165268699" y1="56.24261187166439" y2="53.66864786411523" /><path d="M 173.72905801456457 55.72781907015455 a86.0,86.0 0 0,1 12.242430191666344,42.057860355516425" fill="none" id="id3" stroke="none" /><text fill="#e1ed5e" style="font-size:6.75px; font-family:Arial;" text-anchor="middle"><textPath startOffset="22.145653131862474" xlink:href="#id3">March</textPath></text><line stroke="#e1ed5e" stroke-width="0.3" x1="184.99686870605535" x2="189.99668451229388" y1="99.2704041080226" y2="99.22748670261217" /><path d="M 185.99683186730306 99.26182062694052 a86.0,86.0 0 0,1 -10.086455211305974,41.156179273409016" fill="none" id="id4" stroke="none" /><text fill="#e1ed5e" style="font-size:6.75px; font-family:Arial;" text-anchor="middle"><textPath startOffset="21.40746469413373" xlink:href="#id4">April</textPath></text><line stroke="#e1ed5e" stroke-width="0.3" x1="174.33088141563837" x2="178.70328620479359" y1="141.23008692659167" y2="143.65538615756765" /><path d="M 175.20536237346943 141.71514677278685 a86.0,86.0 0 0,1 -30.301960400862466,31.631185727798858" fill="none" id="id5" stroke="none" /><text fill="#e1ed5e" style="font-size:6.75px; font-family:Arial;" text-anchor="middle"><textPath startOffset="22.145653131862474" xlink:href="#id5">May</textPath></text><line stroke="#e1ed5e" stroke-width="0.3" x1="143.1302829299769" x2="145.66735839644613" y1="173.24464959558577" y2="177.55315839532614" /><path d="M 143.63769802327073 174.10635135553383 a86.0,86.0 0 0,1 -40.68552437913181,11.842963189579606" fill="none" id="id6" stroke="none" /><text fill="#e1ed5e" style="font-size:6.75px; font-family:Arial;" text-anchor="middle"><textPath startOffset="21.407464694133747" xlink:href="#id6">June</textPath></text><path d="M 110.65571695917076 118.09573695890943 l 4.545821772992659 7.719799182105903 a29.958783120706578,29.958783120706578 0 0,0 -0.4453979878105404,0.2571506481589341 l -4.41263131732172 -7.796696727541009" fill="#eec7e0" stroke="none" /><path d="M 110.34350942703117 118.27599006163325 l 1.5719002129401058 2.777397059695842 a24.191364082433758,24.191364082433758 0 0,0 -0.3631651487342453,0.20144158613288352 l -1.523990876049766 -2.8039715612618696" fill="#f5e0ed" stroke="none" /><path d="M 109.71004243097381 118.62028667847754 l 4.109717944638992 7.8809260454680645 a29.888125613346418,29.888125613346418 0 0,0 -0.4569649299262179,0.23332954922436092 l -3.9738257929991914 -7.950313546365261" fill="#eec7e0" stroke="none" /><path d="M 108.4095320186766 119.2426549942271 l 10.047109471913911 22.989752679209776 a46.089303238469085,46.089303238469085 0 0,0 -0.7276950649385813,0.31060975179896705 l -9.650979331804898 -23.158837080668146" fill="#e07dbc" stroke="none" /><path d="M 107.06938296918513 119.77432235084164 l 4.159568249217713 11.635052699633022 a33.356231599607455,33.356231599607455 0 0,0 -0.5408383012378947,0.18813163591726761 l -3.959224175934797 -11.70474276811888" fill="#eab8d9" stroke="none" /><path d="M 106.38641147887787 120.00534299687104 l 3.617145993924944 11.330658307494598 a32.894013738959764,32.894013738959764 0 0,0 -0.5393981787362038,0.1671069345908261 l -3.422107182317116 -11.391081829892068" fill="#ebbada" stroke="none" /><path d="M 105.69591212413111 120.21278271476187 l 6.398618232253271 22.706438790605198 a44.590775269872424,44.590775269872424 0 0,0 -0.738547665981089,0.20129445053873887 l -6.007889165337486 -22.812933735288077" fill="#e184c0" stroke="none" /><path d="M 104.64783097203109 120.47920084513623 l 1.9626057602351903 8.647603104661476 a29.867517173699703,29.867517173699703 0 0,0 -0.5009743843262114,0.10918503536147807 l -1.813868959289843 -8.680019598156674" fill="#eec8e0" stroke="none" /><path d="M 104.29559338865022 120.5559693870025 l 2.428729585928266 11.622350278673926 a32.87340529931305,32.87340529931305 0 0,0 -0.5533744907558271,0.11069039630765297 l -2.22885860964148 -11.66233007164444" fill="#ebbada" stroke="none" /><path d="M 103.58742460773223 120.69131181640829 l 4.536460109595506 26.16509639478519 a47.55544651619235,47.55544651619235 0 0,0 -0.8055496275317151,0.13255288466275497 l -4.0866329790107185 -26.23911527794362" fill="#df75b9" stroke="none" /><path d="M 103.2317021107853 120.74984581791261 l 1.8231276172438062 11.70578712621343 a32.846908734052995,32.846908734052995 0 0,0 -0.5578889382777307,0.0819904619661249 l -1.62191357335839 -11.735358661478436" fill="#ebbada" stroke="none" /><path d="M 102.875027216393 120.80226474461374 l 1.2156290599525108 8.795686312877475 a29.8792934249264,29.8792934249264 0 0,0 -0.5086909555068724,0.06586022853808976 l -1.064460282554863 -8.81525813761596" fill="#eec8e0" stroke="none" /><path d="M 100.72087961077811 120.9876233191556 l 1.1120929814947893 32.37737375634212 a53.39646712463199,53.39646712463199 0 0,0 -0.9163512298750762,0.02360195715999327 l -0.5561284375489692 -32.39169343085216" fill="#dc58ad" stroke="none" /><line stroke="#e1ed5e" stroke-width="0.3" x1="101.45913802915013" x2="101.54496967792366" y1="184.9874750549273" y2="189.98673829345242" /><path d="M 101.47630435890484 185.9873277026323 a86.0,86.0 0 0,1 -42.54439059252881,-10.42667462771756" fill="none" id="id7" stroke="none" /><text fill="#e1ed5e" style="font-size:6.75px; font-family:Arial;" text-anchor="middle"><textPath startOffset="22.145653131862474" xlink:href="#id7">July</textPath></text><path d="M 100.36049292484886 120.99690560180557 l 0.16495848965465615 9.608005030743499 a30.609421000981357,30.609421000981357 0 0,0 -0.5254514145035072,0.004510368432292131 l -1.1768146670511173e-15 -9.609421000981357" fill="#edc4df" stroke="none" /><path d="M 99.63950707515114 120.99690560180557 l -0.1522732626622156 8.869154153685711 a29.87046123650638,29.87046123650638 0 0,0 -0.5126150729620401,-0.013203145908652564 l 0.30450164969499965 -8.86523329042701" fill="#eec8e0" stroke="none" /><path d="M 98.55909050195518 120.95050786540614 l -2.241055652784136 32.584457347373565 a53.661432777232584,53.661432777232584 0 0,0 -0.9184563202343715,-0.07109432790987763 l 2.8000809677937433 -32.54118525246864" fill="#dc57ac" stroke="none" /><path d="M 97.12497278360702 120.80226474461374 l -1.2124045796873784 8.77235557995207 a29.85574092247301,29.85574092247301 0 0,0 -0.5070853924060658,-0.07452409023917474 l 1.362815077701129 -8.750250416414012" fill="#eec8e0" stroke="none" /><path d="M 96.76829788921471 120.74984581791261 l -1.3967948419390235 8.968424878259446 a30.076545632973506,30.076545632973506 0 0,0 -0.5094716148618958,-0.08383336034883668 l 1.550543959853983 -8.943125519414941" fill="#eec7e0" stroke="none" /><path d="M 96.41257539226777 120.69131181640829 l -2.3864194257240174 13.764233081292208 a34.969578017664375,34.969578017664375 0 0,0 -0.5905949859639061,-0.1076260801967244 l 2.622349145238981 -13.721238827164118" fill="#e9b1d5" stroke="none" /><path d="M 96.05791012581884 120.62667999033965 l -5.532079018723331 28.946175060044858 a50.470068694798826,50.470068694798826 0 0,0 -0.8495879361478741,-0.16994138132743106 l 6.028163440402163 -28.846944282054565" fill="#de67b3" stroke="none" /><path d="M 95.70440661134978 120.55596938700252 l -3.016490576720723 14.434999391489642 a35.746810598626105,35.746810598626105 0 0,0 -0.5995890561349285,-0.13067764409650734 l 3.2638420494747877 -14.381090289259415" fill="#e8add3" stroke="none" /><path d="M 95.35216902796893 120.47920084513623 l -3.2625388583989343 14.375348188924315 a35.74092247301276,35.74092247301276 0 0,0 -0.5971590710216965,-0.14092791478126993 l 3.5088300831605186 -14.317224130496818" fill="#e8add3" stroke="none" /><path d="M 94.30408787586889 120.21278271476187 l -4.801558895611999 17.039038618234 a38.702649656526006,38.702649656526006 0 0,0 -0.6379302225194725,-0.18569219048074098 l 5.0933491305130785 -16.954102733450743" fill="#e5a0cd" stroke="none" /><path d="M 93.95794788825049 120.11202640906438 l -8.476491726100845 28.21548412666582 a50.4612365063788,50.4612365063788 0 0,0 -0.8274666413262581,-0.25635128066648477 l 8.959599000298736 -28.06581625819269" fill="#de67b3" stroke="none" /><path d="M 93.27111125876986 119.89276391827306 l -9.441009185788747 27.910666100389278 a50.46418056918547,50.46418056918547 0 0,0 -0.818226771537401,-0.2846217450360004 l 9.91874172937117 -27.744485922784687" fill="#de67b3" stroke="none" /><path d="M 92.25597844496254 119.51999308798841 l -8.495299126337887 21.413703338498433 a44.037291462217866,44.037291462217866 0 0,0 -0.7002884297649496,-0.2848012079191029 l 8.861642017293278 -21.26471487400004" fill="#e187c1" stroke="none" /><path d="M 91.92203290615298 119.3841803445677 l -5.672583369280769 13.61213505480718 a35.746810598626105,35.746810598626105 0 0,0 -0.5643994556681095,-0.2409085663585473 l 5.90541790011931 -13.512751838789228" fill="#e8add3" stroke="none" /><path d="M 91.59046798132341 119.24265499422711 l -1.9889079651629624 4.551010651235264 a25.966633954857706,25.966633954857706 0 0,0 -0.40691767654749733,-0.18200910093580255 l 2.066739044566095 -4.516197799389606" fill="#f3d8e9" stroke="none" /><path d="M 90.93487009805054 118.94263497670748 l -11.617040857103609 24.275147388487746 a47.9116781157998,47.9116781157998 0 0,0 -0.7388431380217415,-0.36140520270823256 l 12.03204424438742 -24.072148435682294" fill="#df74b8" stroke="none" /><path d="M 90.6110303473126 118.78422872680471 l -5.130829062971464 10.265095132074123 a32.475956820412165,32.475956820412165 0 0,0 -0.4965307468494985,-0.25353213726299495 l 5.306287031534545 -10.17550504313829" fill="#ebbcdb" stroke="none" /><path d="M 90.28995756902619 118.62028667847754 l -1.9357465774351268 3.712049299985288 a25.186457311089303,25.186457311089303 0 0,0 -0.38164820986204445,-0.2032061753306304 l 1.999183603083733 -3.6782726569320845" fill="#f3dceb" stroke="none" /><line stroke="#e1ed5e" stroke-width="0.3" x1="58.13341422392154" x2="55.67067388415222" y1="173.97424548756322" y2="178.32567169271397" /><path d="M 57.64086615596768 174.84453072859336 a86.0,86.0 0 0,1 -31.369924170532247,-30.572349798747897" fill="none" id="id8" stroke="none" /><text fill="#e1ed5e" style="font-size:6.75px; font-family:Arial;" text-anchor="middle"><textPath startOffset="22.145653131862474" xlink:href="#id8">August</textPath></text><path d="M 88.72937992617639 117.7192867562869 l -30.263029058452762 47.57850823540769 a77.38763493621198,77.38763493621198 0 0,0 -1.1148034025644533,-0.7226020968696797 l 31.075318093274227 -47.051992296834115" fill="#9e136a" stroke="none" /><path d="M 88.4268655584334 117.5232005979908 l -28.193797447231564 42.68900277460901 a72.15897939156035,72.15897939156035 0 0,0 -1.0277627896736925,-0.6915246724884284 l 28.922456525002257 -42.198728428063454" fill="#b4197b" stroke="none" /><path d="M 87.2517909369889 116.68781488649013 l -8.946801425688154 11.711650262409863 a35.73797841020608,35.73797841020608 0 0,0 -0.4843177740183602,-0.376608430446543 l 9.146529144341741 -11.556340780342527" fill="#e8add3" stroke="none" /><path d="M 86.68645165197938 116.24036423190432 l -9.343561338874414 11.397625591604243 a35.73797841020608,35.73797841020608 0 0,0 -0.47110426995777155,-0.39301193740274887 l 9.53783994299408 -11.235551470289623" fill="#e8add3" stroke="none" /><path d="M 86.40962598614128 116.0094264158162 l -5.723466078456695 6.74222864897124 a29.84396467124632,29.84396467124632 0 0,0 -0.38771647464515097,-0.3349002564426061 l 5.838362032864708 -6.642984260063912" fill="#eec8e1" stroke="none" /><path d="M 85.86807049272751 115.53346607816431 l -19.83383517416303 21.800859232931842 a50.473012757605495,50.473012757605495 0 0,0 -0.6358884060834635,-0.5885688154081711 l 20.20515335156046 -21.45717267139129" fill="#de67b3" stroke="none" /><path d="M 85.34317274990678 115.03919595460226 l -14.416416653112853 14.792513503082784 a41.65554465161924,41.65554465161924 0 0,0 -0.5078169524857928,-0.5034766627330293 l 14.668225525728607 -14.542856830121096" fill="#e392c6" stroke="none" /><path d="M 85.08716467003676 114.78537596483092 l -12.550364571115848 12.44309714241974 a38.67320902845927,38.67320902845927 0 0,0 -0.46336618254352535,-0.47545452362234714 l 12.762117554810184 -12.225819926729656" fill="#e6a0cd" stroke="none" /><path d="M 84.58840730492382 114.26474011684316 l -36.47316644968191 33.759018353067326 a70.69872423945044,70.69872423945044 0 0,0 -0.8167463356207981,-0.8977472957462519 l 37.04731048614459 -33.1279334817634" fill="#bb1b80" stroke="none" /><path d="M 83.8745106332314 113.45245675266167 l -22.624968117569065 18.874553088551533 a50.46418056918547,50.46418056918547 0 0,0 -0.5492261420763557,-0.6699665904116211 l 22.945641078884048 -18.483384216441415" fill="#de67b3" stroke="none" /><path d="M 83.20337586046588 112.60449989151573 l -18.614511961729594 13.96867680392988 a44.27281648675172,44.27281648675172 0 0,0 -0.4509460016119948,-0.6117948578739083 l 18.85155998292542 -13.647075636787092" fill="#e185c0" stroke="none" /><path d="M 82.78059297857968 112.02048342749411 l -18.827163235673225 13.142822129682681 a43.96074582924436,43.96074582924436 0 0,0 -0.4266500560596617,-0.6224951823824475 l 19.05000302854821 -12.817692212230183" fill="#e187c1" stroke="none" /><path d="M 82.576782715395 111.72311816256416 l -10.302976378307003 6.932302314551467 a33.41805691854759,33.41805691854759 0 0,0 -0.3161595813557873,-0.47870590228141285 l 10.420460398583517 -6.754416533930993" fill="#eab8d8" stroke="none" /><path d="M 82.37810715431573 111.42229804090323 l -24.46510652611963 15.857986471199299 a50.15505397448479,50.15505397448479 0 0,0 -0.46210074379101906,-0.7264991221329237 l 24.733724961536538 -15.435673674387703" fill="#de69b4" stroke="none" /><line stroke="#e1ed5e" stroke-width="0.3" x1="26.387840678322732" x2="22.057713659400534" y1="142.50000000000003" y2="145.00000000000006" /><path d="M 25.521815274538284 143.00000000000003 a86.0,86.0 0 0,1 -11.493303480769212,-40.785679425670985" fill="none" id="id9" stroke="none" /><text fill="#e1ed5e" style="font-size:6.75px; font-family:Arial;" text-anchor="middle"><textPath startOffset="21.40746469413373" xlink:href="#id9">September</textPath></text><path d="M 81.81346652052679 110.50000000000001 l -7.684594407280563 4.43670264965653 a29.873405299313053,29.873405299313053 0 0,0 -0.2525961930643559,-0.446313269844976 l 7.759623965366299 -4.304132609712433" fill="#eec8e0" stroke="none" /><path d="M 81.4637452351635 109.86951160357371 l -28.125316882072823 14.975147074930375 a52.863591756624146,52.863591756624146 0 0,0 -0.41961591384912544,-0.8046688432378448 l 28.3782408648969 -14.490131988588027" fill="#dc5bae" stroke="none" /><path d="M 81.1358732173502 109.22738970284198 l -26.015199097283922 12.725337516733003 a49.96074582924436,49.96074582924436 0 0,0 -0.37023468280110666,-0.7736480919606328 l 26.22981303804494 -12.276876922707267" fill="#de6ab4" stroke="none" /><path d="M 80.9802524753101 108.90220220490708 l -2.671777235348279 1.2505266520842409 a23.949950932286555,23.949950932286555 0 0,0 -0.1710887955143865,-0.3738598948105294 l 2.692850495717722 -1.2044777750590228" fill="#f5e1ee" stroke="none" /><path d="M 80.68587082218212 108.24405325689762 l -57.942387533453626 24.73215977069285 a84.0,84.0 0 0,0 -0.5546966218540579,-1.3310699622348747 l 58.35840999984417 -23.733857299016694" fill="#800d55" stroke="none" /><path d="M 80.41425534168474 107.57618678355246 l -27.47166343844725 10.626629576537557 a50.45534838076546,50.45534838076546 0 0,0 -0.3055415310231595,-0.8104852115565322 l 27.650035653284846 -10.15347608478688" fill="#de67b3" stroke="none" /><path d="M 80.28708602549918 107.23885506374661 l -8.310210615634936 3.051624446472179 a29.85279685966634,29.85279685966634 0 0,0 -0.1725204928858006,-0.48257052324372024 l 8.36137127856468 -2.9085189668475375" fill="#eec8e1" stroke="none" /><path d="M 79.73907114497094 105.5222062557868 l -16.201926004358015 4.415906979252475 a37.79293424926398,37.79293424926398 0 0,0 -0.16522804358750137,-0.6273977941071543 l 16.27534352875025 -4.137128680772519" fill="#e6a4cf" stroke="none" /><path d="M 79.48165901384964 104.47187691870673 l -20.0753542327693 4.375330017615908 a41.546614327772325,41.546614327772325 0 0,0 -0.1458924975250996,-0.698148414336227 l 20.147504441118766 -4.030065151994272" fill="#e392c6" stroke="none" /><path d="M 79.2786578344484 103.40968896794605 l -23.269024358063707 3.828909103217137 a44.58194308145241,44.58194308145241 0 0,0 -0.11777807998741271,-0.7562197618129894 l 23.331323930189388 -3.428901159472698" fill="#e184c0" stroke="none" /><path d="M 79.17382384314188 102.69636545807758 l -20.46121442692581 2.6491138553494604 a41.63199214916585,41.63199214916585 0 0,0 -0.0856784688352908,-0.7095406301172315 l 20.50367498202076 -2.29747954830883" fill="#e392c6" stroke="none" /><path d="M 79.0935383218832 101.97986365728391 l -8.822157528547814 0.8354674903160769 a29.861629048086357,29.861629048086357 0 0,0 -0.04394832258191716,-0.5107461259594365 l 8.835199473827473 -0.6839003169809785" fill="#eec8e0" stroke="none" /><path d="M 79.03789590574601 101.26102812881392 l -18.064496546667502 1.0867152541454024 a39.097154072620214,39.097154072620214 0 0,0 -0.03455147792187227,-0.6702894411828143 l 18.080489614045945 -0.7764540195858572" fill="#e59ecc" stroke="none" /><line stroke="#e1ed5e" stroke-width="0.3" x1="15.003131293944662" x2="10.003315487706104" y1="100.72959589197737" y2="100.7725132973878" /><path d="M 14.003168132696942 100.73817937305945 a86.0,86.0 0 0,1 10.791469493833604,-42.45332614584628" fill="none" id="id10" stroke="none" /><text fill="#e1ed5e" style="font-size:6.75px; font-family:Arial;" text-anchor="middle"><textPath startOffset="22.145653131862435" xlink:href="#id10">October</textPath></text><path d="M 79.01933749520258 99.09900007780938 l -17.67164171159721 -0.7588963314904333 a38.68792934249264,38.68792934249264 0 0,0 0.03418983218157986,-0.6632736104355289 l 17.65601028995906 1.062141735302674" fill="#e5a0cd" stroke="none" /><path d="M 79.0935383218832 98.0201363427161 l -26.410784548087832 -2.50112875589307 a47.52894995093229,47.52894995093229 0 0,0 0.08389449821618122,-0.8116031672879093 l 26.363957657389985 2.954136445463892" fill="#df76b9" stroke="none" /><path d="M 79.17382384314186 97.30363454192245 l -8.779519375251986 -1.136684555227704 a29.85279685966634,29.85279685966634 0 0,0 0.07016186767561926,-0.5076563234054845 l 8.75871299102116 1.2872291868332555" fill="#eec8e1" stroke="none" /><path d="M 79.22317932658666 96.9465228501225 l -8.75871299102116 -1.2872291868332555 a29.85279685966634,29.85279685966634 0 0,0 0.07886612501303342,-0.5063770973244214 l 8.735325373869859 1.437394466089127" fill="#eec8e1" stroke="none" /><path d="M 79.407916724674 95.88100663000787 l -29.38261931533269 -5.877346771313602 a50.964671246319924,50.964671246319924 0 0,0 0.1789643583232001,-0.8564092404035165 l 29.27739724618512 6.380872463002527" fill="#dd65b2" stroke="none" /><path d="M 79.56144815229197 95.17655741523228 l -8.375422269851478 -1.9765768505924624 a29.605495583905793,29.605495583905793 0 0,0 0.12097718117932221,-0.49362818277593845 l 8.340257562155857 2.1200608579765183" fill="#eec9e1" stroke="none" /><path d="M 79.73907114497095 94.47779374421319 l -8.606563077350069 -2.3457570384177826 a29.920510304219825,29.920510304219825 0 0,0 0.13931774359260096,-0.49438952325440594 l 8.565026841682887 2.493154485575202" fill="#eec7e0" stroke="none" /><path d="M 80.05021161711548 93.44210830539832 l -59.278811828857066 -19.48612287495902 a83.39941118743866,83.39941118743866 0 0,0 0.4587546583061888,-1.3562266319214844 l 58.93557174897851 20.500851181354665" fill="#830e57" stroke="none" /><path d="M 80.41425534168474 92.42381321644754 l -8.262092482387587 -3.195954862149074 a29.858684985279687,29.858684985279687 0 0,0 0.1890215783672361,-0.47645785551939485 l 8.206012229054219 3.3373137348820516" fill="#eec8e0" stroke="none" /><path d="M 80.5471966667186 92.08871423366112 l -8.020565625007794 -3.261894215449688 a29.658488714425907,29.658488714425907 0 0,0 0.1958507559427331,-0.46997051729829076 l 7.963389024528582 3.3990972421892427" fill="#eec8e1" stroke="none" /><path d="M 80.83023694016515 91.42560881287825 l -18.836516092300926 -8.425334057274119 a41.63493621197252,41.63493621197252 0 0,0 0.2974232017411929,-0.6499233721463784 l 18.689108425704685 8.747446411635169" fill="#e392c6" stroke="none" /><path d="M 81.1358732173502 90.77261029715801 l -7.9497497698927955 -3.888620979495724 a29.849852796859665,29.849852796859665 0 0,0 0.2291048506864018,-0.4583631726280013 l 7.8818250059946475 4.024516008287495" fill="#eec8e1" stroke="none" /><path d="M 81.63589988554816 89.8137432299009 l -7.739027750461548 -4.292708236494871 a29.849852796859665,29.849852796859665 0 0,0 0.25239704360694515,-0.44596139183585753 l 7.664197341833234 4.424926398429833" fill="#eec8e1" stroke="none" /><line stroke="#e1ed5e" stroke-width="0.3" x1="26.387840678322718" x2="22.05771365940052" y1="57.49999999999999" y2="54.99999999999999" /><path d="M 25.521815274538284 56.99999999999999 a86.0,86.0 0 0,1 29.574782752854787,-30.34633250058573" fill="none" id="id11" stroke="none" /><text fill="#e1ed5e" style="font-size:6.75px; font-family:Arial;" text-anchor="middle"><textPath startOffset="21.40746469413373" xlink:href="#id11">November</textPath></text><path d="M 82.576782715395 88.27688183743585 l -7.42801118217914 -4.99789742497653 a29.952894995093228,29.952894995093228 0 0,0 0.2907003529568207,-0.42414050264930137 l 7.341121092407006 5.124672662695866" fill="#eec7e0" stroke="none" /><path d="M 82.98947788004972 87.6856937992154 l -7.175755090274839 -5.194693306906051 a29.858684985279687,29.858684985279687 0 0,0 0.30412916267782286,-0.41260961886936603 l 7.085523908013197 5.31710923504428" fill="#eec8e0" stroke="none" /><path d="M 83.8745106332314 86.54754324733833 l -5.124980288022489 -4.2754408325086235 a27.674190382728163,27.674190382728163 0 0,0 0.30745424127760035,-0.3621803231423198 l 5.050831483237775 4.3627879381004995" fill="#f0d1e5" stroke="none" /><path d="M 84.34580500576568 86.00192230759919 l -6.59043145488373 -5.893204445574046 a29.84102060843965,29.84102060843965 0 0,0 0.3447381051825106,-0.3789275668228769 l 6.488295648859355 6.005469587954581" fill="#eec8e1" stroke="none" /><path d="M 84.83555147118756 85.47280134310135 l -3.947901432497507 -3.782000267189232 a26.46712463199215,26.46712463199215 0 0,0 0.3171179949045683,-0.3253909993426475 l 3.8823966364421363 3.84921395859961" fill="#f2d6e8" stroke="none" /><path d="M 85.34317274990677 84.96080404539775 l -16.448605374596426 -16.87771815737992 a44.56722276741904,44.56722276741904 0 0,0 0.5524797292823611,-0.529263083055419 l 16.156453159448763 17.15759337074091" fill="#e184c0" stroke="none" /><path d="M 86.96720088162412 83.53348406188908 l -14.626041909799369 -18.479526157938864 a44.56722276741904,44.56722276741904 0 0,0 0.6039708759444367,-0.46965140621957896 l 14.306661089219688 18.727878615779247" fill="#e184c0" stroke="none" /><line stroke="#e1ed5e" stroke-width="0.3" x1="56.869717070023135" x2="54.33264160355391" y1="26.7553504044142" y2="22.446841604673864" /><path d="M 56.362301976729285 25.89364864446614 a86.0,86.0 0 0,1 42.16139366436587,-11.88097634709845" fill="none" id="id12" stroke="none" /><text fill="#e1ed5e" style="font-size:6.75px; font-family:Arial;" text-anchor="middle"><textPath startOffset="22.145653131862474" xlink:href="#id12">December</textPath></text><path d="M 89.34428304082924 81.90426304109057 l -11.962846124917903 -20.31552804807889 a44.576054955839055,44.576054955839055 0 0,0 0.6627133385848434,-0.38261772442751285 l 11.61234031847266 20.517892669782576" fill="#e184c0" stroke="none" /><path d="M 90.28995756902619 81.37971332152246 l -10.89844381079159 -20.89920302087357 a44.570166830225716,44.570166830225716 0 0,0 0.6814412996604623,-0.3479487830681295 l 10.538075289417545 21.083209755614536" fill="#e184c0" stroke="none" /><path d="M 91.5904679813234 80.7573450057729 l -9.441123286914646 -21.60313769714995 a44.576054955839055,44.576054955839055 0 0,0 0.7038026814586431,-0.30041151402032323 l 9.068885530285572 21.76202386082968" fill="#e184c0" stroke="none" /><path d="M 93.95794788825049 79.88797359093562 l -6.789155709473194 -22.598891303610127 a44.59666339548577,44.59666339548577 0 0,0 0.735080405501634,-0.2139711928649121 l 6.4002152915899355 22.71210619077756" fill="#e184c0" stroke="none" /><path d="M 95.70440661134978 79.44403061299748 l -0.6305181940160898 -3.0172578085225887 a24.08243375858685,24.08243375858685 0 0,0 0.40539166526799525,-0.08108968670934459 l 0.5786300432171178 3.0276368918947996" fill="#f5e0ee" stroke="none" /><path d="M 98.9189461498227 79.02784411241856 l -0.15413315093653546 -2.9901419511664553 a23.994111874386654,23.994111874386654 0 0,0 0.4115267140198116,-0.01767272779048044 l 0.10278067631590375 2.992347247382764" fill="#f5e1ee" stroke="none" /></svg>