<?xml version="1.0" encoding="utf-8" ?>
<svg baseProfile="full" height="200mm" version="1.1" viewBox="0,0,200,200" width="200mm" xmlns="http://www.w3.org/2000/svg" xmlns:ev="http://www.w3.org/2001/xml-events" xmlns:xlink="http://www.w3.org/1999/xlink"><defs /><rect fill="#1a1a1a" height="200" width="200" x="0" y="0" /><rect fill="#1a1a1a" height="200" width="180" x="10" y="0" /><text alignment-baseline="middle" fill="#e1ed5e" style="dominant-baseline: central; font-size:9.0px; font-family:Arial;" text-anchor="middle" x="100.0" y="100.0">2026</text><line stroke="#e1ed5e" stroke-width="0.3" x1="100.0" x2="100.0" y1="15.0" y2="10.0" /><path d="M 100.0 14.0 a86.0,86.0 0 0,1 42.46469731375804,11.215312516191453" fill="none" id="id25" stroke="none" /><text fill="#e1ed5e" style="font-size:6.75px; font-family:Arial;" text-anchor="middle"><textPath startOffset="22.20632615414155" xlink:href="#id25">January</textPath></text><path d="M 100.0 79.0 l 0.0 -19.981695530506514 a40.981695530506514,40.981695530506514 0 0,0 0.705432521036587,0.00607188042155712 l -0.3439520417640587 19.978735026693517" fill="#e390c5" stroke="none" /><path d="M 100.36148047927253 79.00311137660856 l 0.07430720958961617 -4.316194907144322 a25.316834492756882,25.316834492756882 0 0,0 0.43565855556486605,0.01125177517230376 l -0.14859240034935003 4.314276339829658" fill="#f2d5e8" stroke="none" /><path d="M 100.72285384407766 79.0124445844662 l 0.26427421914247595 -7.673016979285438 a28.677566699632507,28.677566699632507 0 0,0 0.4931983865875572,0.021238159996825243 l -0.3963134381193647 7.667331092764418" fill="#eec7e0" stroke="none" /><path d="M 101.44485096284872 79.0497635885617 l 0.4652591489792105 -6.74622463792457 a27.76224910374125,27.76224910374125 0 0,0 0.47646604487404276,0.0369829352255094 l -0.5813153832155944 6.737216440510596" fill="#efcbe2" stroke="none" /><path d="M 101.80526077348638 79.07773832637324 l 0.5210506716609598 -6.0387721584711285 a27.061209696452053,27.061209696452053 0 0,0 0.463745209537854,0.04403819553032516 l -0.6249210082890579 6.028908418425625" fill="#f0cee4" stroke="none" /><path d="M 102.16513564639614 79.11191278185805 l 0.6173109997095815 -5.955491067783646 a26.98739899529113,26.98739899529113 0 0,0 0.4616558240369886,0.05187241089301866 l -0.7197335272562954 5.943982703420026" fill="#f0cee4" stroke="none" /><path d="M 102.52436894288641 79.15227682838746 l 0.7386437403747448 -6.100154363398878 a27.14471137096684,27.14471137096684 0 0,0 0.4633799631141526,0.06016001830620583 l -0.8435384319967434 6.086536021928535" fill="#f0cee4" stroke="none" /><path d="M 103.2404852339499 79.25152402106235 l 4.389245825758446 -28.103865627060387 a49.44455557928097,49.44455557928097 0 0,0 0.8397823281225073,0.1385712796728627 l -4.872357360019828 28.0241480844479" fill="#de68b3" stroke="none" /><path d="M 103.95276090670814 79.375362276772 l 1.326734307660868 -6.922608044429248 a28.04859745338893,28.04859745338893 0 0,0 0.47339833832456585,0.0949592531675639 l -1.4456990554525593 6.898744835184476" fill="#efcae2" stroke="none" /><path d="M 104.66035177308747 79.52364482259891 l 1.4984495346645932 -6.58379160654568 a27.752159871208463,27.752159871208463 0 0,0 0.4648834513485867,0.11002289315229756 l -1.6115566729757034 6.557022801252514" fill="#efcbe2" stroke="none" /><path d="M 105.71112130821622 79.79150937346287 l 4.617432688263593 -16.3385332167958 a37.97846731324665,37.97846731324665 0 0,0 0.6275666511222694,0.18320391447325154 l -4.897989557109289 16.256630973403844" fill="#e59ecc" stroke="none" /><path d="M 106.0581310904928 79.89281104454417 l 4.5062503049642695 -14.95643210901972 a36.62053626616918,36.62053626616918 0 0,0 0.6019973703932961,0.18704351335424144 l -4.763033048068284 14.87664846078296" fill="#e6a4cf" stroke="none" /><path d="M 106.74666289553966 80.11325718540242 l 1.7878304103727458 -5.269882921037118 a26.564890257470697,26.564890257470697 0 0,0 0.43176548118852215,0.1506344984492166 l -1.8782778956245414 5.238327569415694" fill="#f0d0e5" stroke="none" /><path d="M 107.08798089147638 80.2323363322302 l 1.8808717345090074 -5.245561524396888 a26.57257518458997,26.57257518458997 0 0,0 0.42923272154047426,0.15809003378730566 l -1.9708867818220581 5.2124082228032576" fill="#f0d0e5" stroke="none" /><path d="M 107.4271985657038 80.35727306442388 l 2.669275992993474 -7.0594395696072425 a28.547232695744036,28.547232695744036 0 0,0 0.45813800053036563,0.1777504266048984 l -2.7903971585235063 7.012446439111797" fill="#eec8e1" stroke="none" /><path d="M 107.76421540070413 80.48803036053334 l 2.17991989640419 -5.478278053858528 a26.89606489025747,26.89606489025747 0 0,0 0.4286927030174577,0.17487451739355722 l -2.2738964690100354 5.439942650281392" fill="#f0cfe4" stroke="none" /><path d="M 108.09893153111575 80.62456947434976 l 5.213241750580378 -12.471867796846764 a34.51759504838112,34.51759504838112 0 0,0 0.5462265465044588,0.2338657008129952 l -5.427152054875152 12.380282568070978" fill="#e8aed3" stroke="none" /><path d="M 108.43124777332544 80.76684994638697 l 10.930468036327845 -24.934308367027985 a48.22489421899058,48.22489421899058 0 0,0 0.75740154516529,0.3398239955905461 l -11.358051699959915 24.742464040920908" fill="#de6eb6" stroke="none" /><path d="M 109.08828744355905 81.06846463323043 l 3.0368192138716714 -6.325905810851274 a28.017075976893942,28.017075976893942 0 0,0 0.4329688651835171,0.2124559417824153 l -3.1452593460656204 6.272694708934027" fill="#efcae2" stroke="none" /><path d="M 109.41281617654863 81.2277094730956 l 2.4781554473303884 -4.942267346516312 a26.528766674908127,26.528766674908127 0 0,0 0.40644535499317197,0.2081970972507381 l -2.562861289912316 4.898877723953073" fill="#f0d0e5" stroke="none" /><path d="M 109.73455568895987 81.39251694778311 l 3.5631021756567964 -6.810825831737078 a28.68654965666828,28.68654965666828 0 0,0 0.43556421219239316,0.2326633176092576 l -3.6798114343775006 6.748483787626066" fill="#eec7e0" stroke="none" /><path d="M 110.05341064243156 81.56283822128135 l 2.9709017037858945 -5.4483992835413835 a27.20574827772221,27.20574827772221 0 0,0 0.4092209771286865,0.2277310307179628 l -3.064246769986616 5.396452855263241" fill="#efcde3" stroke="none" /><path d="M 110.36928655335952 81.73862282372117 l 11.019996254904125 -19.407343702618093 a43.31782487272564,43.31782487272564 0 0,0 0.6452360553658693,0.37376237037351395 l -11.352429042735322 19.21477717485453" fill="#e185c0" stroke="none" /><line stroke="#e1ed5e" stroke-width="0.3" x1="143.23703022742887" x2="145.7803849466894" y1="26.81831364943548" y2="22.513508569990506" /><path d="M 143.74570117128098 25.957352633546492 a86.0,86.0 0 0,1 28.547481713284135,27.462654790039103" fill="none" id="id26" stroke="none" /><text fill="#e1ed5e" style="font-size:6.75px; font-family:Arial;" text-anchor="middle"><textPath startOffset="19.985693538727396" xlink:href="#id26">February</textPath></text><path d="M 110.68208982089419 81.91981866633111 l 7.0682739839566855 -11.963546224449676 a34.89557250986166,34.89557250986166 0 0,0 0.5145234747669606,0.3099946365046407 l -7.273159524941284 11.840104978486421" fill="#e8acd3" stroke="none" /><path d="M 111.2981086023043 82.29822771554956 l 3.6051915884437653 -5.648580907376985 a27.701035192906353,27.701035192906353 0 0,0 0.39972986111241615,0.25999542087698185 l -3.7018884753404615 5.5856865623404754" fill="#efcbe2" stroke="none" /><path d="M 111.60114157652 82.49532879139004 l 3.3638515930563524 -5.075631199104238 a27.089132089996742,27.089132089996742 0 0,0 0.38646556222686324,0.2609432727606748 l -3.4507218496897574 5.016976014044894" fill="#f0cee4" stroke="none" /><path d="M 111.90073688211348 82.69761687909136 l 3.561178251309377 -5.177567664621761 a27.284043082231037,27.284043082231037 0 0,0 0.3846645496622245,0.2694820993303098 l -3.649773940555252 5.115500722527515" fill="#efcde3" stroke="none" /><path d="M 112.19680574252982 82.90503203632743 l 3.5304356099050014 -4.948236851775643 a27.078570846585226,27.078570846585226 0 0,0 0.3771073747871239,0.27398454540730044 l -3.615088301045914 4.886733071551668" fill="#f0cee4" stroke="none" /><path d="M 112.48926042617603 83.11751280151076 l 14.051189952479849 -18.993841620845572 a44.6262980299165,44.6262980299165 0 0,0 0.6136197714125279,0.46216569015593933 l -14.37605587765076 18.749159341183784" fill="#e07fbe" stroke="none" /><path d="M 113.06298171725822 83.55741782278167 l 3.961066493302616 -4.985857190591276 a27.36779551252515,27.36779551252515 0 0,0 0.36633306225489476,0.2962158595866229 l -4.046302954122002 4.916935233740523" fill="#efcde3" stroke="none" /><path d="M 113.6212207817346 84.01681056812373 l 0.9743070278401731 -1.1432553689798375 a22.50210086984862,22.50210086984862 0 0,0 0.2926411090967476,0.2537754860753247 l -0.9938419355836848 1.1263148894848416" fill="#f5e1ee" stroke="none" /><path d="M 113.89432698308785 84.25364557470407 l 3.065260905757371 -3.4738411357965995 a25.632860526404514,25.632860526404514 0 0,0 0.3283313256232039,0.2947791059621447 l -3.124603218976565 3.4205630210651576" fill="#f1d4e7" stroke="none" /><path d="M 114.42810811169701 84.74124197986012 l 5.269319602488854 -5.572682996461148 a28.669454012654388,28.669454012654388 0 0,0 0.3556606269895077,0.3421452413743609 l -5.3644634730907805 5.481154668324485" fill="#eec7e0" stroke="none" /><path d="M 114.68862486808459 84.99185889309783 l 13.553882334484525 -13.848714937521477 a40.377683859475624,40.377683859475624 0 0,0 0.49253890842663756,0.49042378982550394 l -13.790257043078485 13.613355297045853" fill="#e393c7" stroke="none" /><path d="M 114.94478906791727 85.2469230424477 l 13.183278770839054 -13.014163356549739 a39.52477495195603,39.52477495195603 0 0,0 0.473799920214265,0.4882924659695907 l -13.405342954756428 12.785306695030034" fill="#e497c9" stroke="none" /><path d="M 115.4437574822437 85.77008943001954 l 7.605049538761396 -7.007308612639753 a31.34113883862847,31.34113883862847 0 0,0 0.3621488880728073,0.39989384740993245 l -7.724542067450239 6.875361977960272" fill="#ebbcda" stroke="none" /><path d="M 115.68641384162765 86.03803664274999 l 7.154289685770947 -6.367799004180874 a30.57772024364752,30.57772024364752 0 0,0 0.34655934339183103,0.39617723833689045 l -7.262840892740626 6.2437062096410365" fill="#ecbfdc" stroke="none" /><path d="M 115.9244219780498 86.31012108654704 l 12.87588824212901 -11.069120824659644 a37.979809594183024,37.979809594183024 0 0,0 0.4219184038144313,0.49941831020115407 l -13.064517259430557 10.845843564829384" fill="#e59ecc" stroke="none" /><path d="M 116.15771136456269 86.58626213691792 l 10.14428389956704 -8.421537058516396 a34.18441436935976,34.18441436935976 0 0,0 0.37196143956588484,0.4559807436920942 l -10.287743831209333 8.2456721452162" fill="#e8afd4" stroke="none" /><path d="M 116.38621287248628 86.86637796730983 l 3.614299759969566 -2.896877230246834 a25.631960755666938,25.631960755666938 0 0,0 0.2729754013990745,0.3466510386907922 l -3.6636292419626044 2.8342337976030034" fill="#f1d4e7" stroke="none" /><path d="M 117.04232023915458 87.72973835380427 l 11.668880843051522 -8.40145115531675 a35.37870514491858,35.37870514491858 0 0,0 0.35157568054399746,0.497278867207391 l -11.811769143399403 8.199345787777565" fill="#e7aad1" stroke="none" /><path d="M 117.2510076193507 88.02491185347247 l 12.160510202089274 -8.441430482786338 a35.80323467931356,35.80323467931356 0 0,0 0.34707917288709494,0.5092958588913372 l -12.304013840645101 8.230856600624595" fill="#e7a8d1" stroke="none" /><path d="M 117.45458315368197 88.32363383020206 l 13.114967061897005 -8.773349461928873 a36.77891066632203,36.77891066632203 0 0,0 0.34747902971755207,0.5292344014257794 l -13.264042726972482 8.54629699652542" fill="#e6a3ce" stroke="none" /><path d="M 117.65298651832404 88.62581576622439 l 12.473394523043458 -8.036866010088215 a35.83835523875884,35.83835523875884 0 0,0 0.3296657727648758,0.5214520831074602 l -12.60988789205429 7.820966279266548" fill="#e7a8d0" stroke="none" /><line stroke="#e1ed5e" stroke-width="0.3" x1="172.23445277983987" x2="176.4835382374775" y1="55.19839476539836" y2="52.563006222186495" /><path d="M 173.08426987136738 54.67131705675599 a86.0,86.0 0 0,1 12.851231095245387,41.99856678651699" fill="none" id="id27" stroke="none" /><text fill="#e1ed5e" style="font-size:6.75px; font-family:Arial;" text-anchor="middle"><textPath startOffset="22.20632615414155" xlink:href="#id27">March</textPath></text><path d="M 118.03404312379186 89.2402003453031 l 12.828806023504711 -7.654156179751665 a35.93868705116823,35.93868705116823 0 0,0 0.31239331587758484,0.5339814406159507 l -12.958659013852623 7.432195326781819" fill="#e7a7d0" stroke="none" /><path d="M 118.21658344932153 89.55222093294921 l 12.537540885766239 -7.190670939093171 a35.45322386239759,35.45322386239759 0 0,0 0.29906036660821467,0.531995022143559 l -12.659458893666887 6.973792407014818" fill="#e7a9d1" stroke="none" /><path d="M 118.56541770881063 90.18545643968196 l 13.073431712394163 -6.911224246963406 a35.78782057405513,35.78782057405513 0 0,0 0.28321896129363205,0.547088886434483 l -13.19046010684791 6.685162638268578" fill="#e7a8d1" stroke="none" /><path d="M 118.73160827565052 90.50648371742162 l 8.888953968453148 -4.505081891142053 a30.965403428821887,30.965403428821887 0 0,0 0.2368705716999257,0.47751661850884325 l -8.965184553106482 4.35140568413426" fill="#ecbddb" stroke="none" /><path d="M 119.04729006885535 91.15688171328212 l 6.698197647941031 -3.109783800972882 a28.384890454141896,28.384890454141896 0 0,0 0.201935088909429,0.4449372009015494 l -6.7507350538138065 2.99402459122927" fill="#eec8e1" stroke="none" /><path d="M 119.196687751892 91.48605970444005 l 13.140349691913043 -5.827888341242658 a35.37473730346928,35.37473730346928 0 0,0 0.2420799232087244,0.5587538392183321 l -13.238720324964447 5.600835357437723" fill="#e7aad2" stroke="none" /><path d="M 119.47837535516314 92.15188598940014 l 13.415736224859568 -5.405390619547928 a35.46375560512919,35.46375560512919 0 0,0 0.2232636779246228,0.5681817077846866 l -13.50679345266589 5.1736599068674565" fill="#e7a9d1" stroke="none" /><path d="M 119.85752413597 93.16781622104841 l 13.958008279869333 -4.802395157785709 a35.76106345736731,35.76106345736731 0 0,0 0.19526001493434267,0.583802591489879 l -14.038605588575445 4.5614194633735154" fill="#e7a8d1" stroke="none" /><path d="M 120.08093135843002 93.85539295169968 l 7.060462326193257 -2.1604459374626233 a28.38360717456536,28.38360717456536 0 0,0 0.13893654458301413,0.46842495927784333 l -7.096604767887973 2.0385915914382498" fill="#eec8e1" stroke="none" /><path d="M 120.28053869075195 94.5502522615342 l 7.227339340800222 -1.9421168652493281 a28.483732482215306,28.483732482215306 0 0,0 0.12316320911476943,0.4745980861541643 l -7.259698881785294 1.8174223535463134" fill="#eec8e1" stroke="none" /><path d="M 120.6074358757038 95.95851677861258 l 61.822307627111385 -12.124449664162288 a84.0,84.0 0 0,0 0.26605710436056285,1.4212876901497489 l -62.02185045538181 11.058483896549978" fill="#800d55" stroke="none" /><path d="M 120.78858239683441 97.02765380044208 l 7.977336095183359 -1.1405974766574307 a29.05846472842517,29.05846472842517 0 0,0 0.06653558311330618,0.4957673771407449 l -7.995787677354501 1.0031117574520214" fill="#edc5df" stroke="none" /><path d="M 120.83666639777658 97.38593545837742 l 10.163439329702959 -1.2750545536182227 a31.243108079252874,31.243108079252874 0 0,0 0.06235179193677177,0.5341920757166251 l -10.18388147464332 1.099918739576745" fill="#ebbcdb" stroke="none" /><path d="M 120.91429891909075 98.10471618934814 l 24.524387059443505 -2.222435183686477 a45.62488129488318,45.62488129488318 0 0,0 0.0641475319478907,0.7827623695044764 l -24.55900907521089 1.7999588969742317" fill="#e07bbb" stroke="none" /><line stroke="#e1ed5e" stroke-width="0.3" x1="184.98032266829074" x2="189.97916517819016" y1="98.17113171792111" y2="98.06355123074" /><path d="M 185.9800911702706 98.14961562048488 a86.0,86.0 0 0,1 -9.607161424134198,41.387399972396054" fill="none" id="id28" stroke="none" /><text fill="#e1ed5e" style="font-size:6.75px; font-family:Arial;" text-anchor="middle"><textPath startOffset="21.466115282336823" xlink:href="#id28">April</textPath></text><line stroke="#e1ed5e" stroke-width="0.3" x1="174.80103733775053" x2="179.2010983576182" y1="140.37084112569926" y2="142.7455964860345" /><path d="M 175.68104954172406 140.8457921977663 a86.0,86.0 0 0,1 -30.038265399797805,32.042727171017184" fill="none" id="id29" stroke="none" /><text fill="#e1ed5e" style="font-size:6.75px; font-family:Arial;" text-anchor="middle"><textPath startOffset="22.206326154141568" xlink:href="#id29">May</textPath></text><line stroke="#e1ed5e" stroke-width="0.3" x1="143.8653032363475" x2="146.44561519142675" y1="172.8068346515853" y2="177.08958963109032" /><path d="M 144.38136562736335 173.6633856474863 a86.0,86.0 0 0,1 -40.68145358897372,12.25698825130547" fill="none" id="id30" stroke="none" /><text fill="#e1ed5e" style="font-size:6.75px; font-family:Arial;" text-anchor="middle"><textPath startOffset="21.466115282336833" xlink:href="#id30">June</textPath></text><line stroke="#e1ed5e" stroke-width="0.3" x1="102.19456741930631" x2="102.32365962044197" y1="184.97166512339345" y2="189.96999836594603" /><path d="M 102.22038585953345 185.97133177190398 a86.0,86.0 0 0,1 -42.740103519485714,-10.115201625700543" fill="none" id="id31" stroke="none" /><text fill="#e1ed5e" style="font-size:6.75px; font-family:Arial;" text-anchor="middle"><textPath startOffset="22.20632615414155" xlink:href="#id31">July</textPath></text><line stroke="#e1ed5e" stroke-width="0.3" x1="58.666819895761336" x2="56.23545636021788" y1="174.27360380694188" y2="178.64263932499728" /><path d="M 58.180547188652646 175.14741091055294 a86.0,86.0 0 0,1 -31.652253787137756,-30.449443065178592" fill="none" id="id32" stroke="none" /><text fill="#e1ed5e" style="font-size:6.75px; font-family:Arial;" text-anchor="middle"><textPath startOffset="22.20632615414155" xlink:href="#id32">August</textPath></text><line stroke="#e1ed5e" stroke-width="0.3" x1="26.63291911575756" x2="22.317208475507996" y1="142.92168965132927" y2="145.44649492493687" /><path d="M 25.769776987707644 143.4266507060508 a86.0,86.0 0 0,1 -11.730757126820373,-40.83630448921669" fill="none" id="id33" stroke="none" /><text fill="#e1ed5e" style="font-size:6.75px; font-family:Arial;" text-anchor="middle"><textPath startOffset="21.46611528233685" xlink:href="#id33">September</textPath></text><line stroke="#e1ed5e" stroke-width="0.3" x1="15.007084014347285" x2="10.007500721073583" y1="101.09737516637583" y2="101.16192664675087" /><path d="M 14.007167355692545 101.11028546245083 a86.0,86.0 0 0,1 10.666146001902534,-42.60595125391555" fill="none" id="id34" stroke="none" /><text fill="#e1ed5e" style="font-size:6.75px; font-family:Arial;" text-anchor="middle"><textPath startOffset="22.20632615414155" xlink:href="#id34">October</textPath></text><line stroke="#e1ed5e" stroke-width="0.3" x1="26.266209847984243" x2="21.928928074336255" y1="57.711370442889674" y2="55.22380399835377" /><path d="M 25.398753493254645 57.213857153982495 a86.0,86.0 0 0,1 29.58750427330803,-30.492523968695096" fill="none" id="id35" stroke="none" /><text fill="#e1ed5e" style="font-size:6.75px; font-family:Arial;" text-anchor="middle"><textPath startOffset="21.46611528233685" xlink:href="#id35">November</textPath></text><line stroke="#e1ed5e" stroke-width="0.3" x1="56.762969772571076" x2="54.21961505331055" y1="26.818313649435495" y2="22.513508569990535" /><path d="M 56.25429882871897 25.957352633546506 a86.0,86.0 0 0,1 42.265352541879196,-11.944610805530505" fill="none" id="id36" stroke="none" /><text fill="#e1ed5e" style="font-size:6.75px; font-family:Arial;" text-anchor="middle"><textPath startOffset="22.20632615414155" xlink:href="#id36">December</textPath></text></svg>