<?xml version="1.0" encoding="utf-8" ?>
<svg baseProfile="full" height="300mm" version="1.1" viewBox="0,0,200,300" width="200mm" xmlns="http://www.w3.org/2000/svg" xmlns:ev="http://www.w3.org/2001/xml-events" xmlns:xlink="http://www.w3.org/1999/xlink"><defs /><rect fill="#222222" height="300" width="200" x="0" y="0" /><text fill="#555555" style="font-size:6px; font-family:Arial;" x="11" y="19">Running for 621 Days</text><text fill="#555555" style="font-size:6px; font-family:Arial;" x="11" y="39">Races</text><text fill="#555555" style="font-size:8px; font-family:Arial;" x="11" y="59">1</text><text fill="#FFFFFF" style="font-size:10px; font-family:Arial; font-weight:bold;" x="23" y="59">Full</text><text fill="#555555" style="font-size:6px; font-family:Arial;" x="49" y="59">1x</text><text fill="#555555" style="font-size:8px; font-family:Arial;" x="11" y="77">2</text><text fill="#FFFFFF" style="font-size:10px; font-family:Arial; font-weight:bold;" x="23" y="77">Half</text><text fill="#555555" style="font-size:6px; font-family:Arial;" x="49" y="77">5x</text><text fill="#555555" style="font-size:8px; font-family:Arial;" x="11" y="95">3</text><text fill="#FFFFFF" style="font-size:10px; font-family:Arial; font-weight:bold;" x="23" y="95">10K</text><text fill="#555555" style="font-size:6px; font-family:Arial;" x="49" y="95">67x</text><text fill="#555555" style="font-size:6px; font-family:Arial;" x="11" y="133">Stats</text><text fill="#555555" style="font-size:5px; font-family:Arial;" x="11" y="139">Distance</text><text fill="#FFFFFF" style="font-size:10px; font-family:Arial; font-weight:bold;" x="11" y="150">1515</text><text fill="#555555" style="font-size:6px; font-family:Arial;" x="35" y="150">km</text><text fill="#555555" style="font-size:5px; font-family:Arial;" x="53" y="139">Runs</text><text fill="#FFFFFF" style="font-size:10px; font-family:Arial; font-weight:bold;" x="53" y="150">180</text><text fill="#555555" style="font-size:5px; font-family:Arial;" x="11" y="167">Avg Pace</text><text fill="#FFFFFF" style="font-size:10px; font-family:Arial; font-weight:bold;" x="11" y="178">7'03"</text><text fill="#555555" style="font-size:5px; font-family:Arial;" x="53" y="167">Streak</text><text fill="#FFFFFF" style="font-size:10px; font-family:Arial; font-weight:bold;" x="53" y="178">39</text><text fill="#555555" style="font-size:6px; font-family:Arial;" x="65" y="178">d</text><text fill="#555555" style="font-size:5px; font-family:Arial;" x="11" y="195">Time</text><text fill="#FFFFFF" style="font-size:10px; font-family:Arial; font-weight:bold;" x="11" y="206">178</text><text fill="#555555" style="font-size:6px; font-family:Arial;" x="29" y="206">h</text><text fill="#555555" style="font-size:5px; font-family:Arial;" x="53" y="195">Longest</text><text fill="#FFFFFF" style="font-size:10px; font-family:Arial; font-weight:bold;" x="53" y="206">42.8</text><text fill="#555555" style="font-size:5px; font-family:Arial;" x="11" y="252.0645161290322">Runner</text><text fill="#FFFFFF" style="font-size:8px; font-family:Arial; font-weight:bold;" x="11" y="262.0645161290322">StoneRicky</text><text fill="#555555" style="font-size:7px; font-family:Arial;" x="11" y="285.5806451612903">running_page/2025</text><circle cx="85.41666666666667" cy="17.419354838709676" fill="#E18ABF" r="3.3125"><title>2025-01-01: 13 km</title></circle><circle cx="85.41666666666667" cy="26.25806451612903" fill="#555555" r="3.3125"><title>2025-01-02</title></circle><circle cx="85.41666666666667" cy="35.096774193548384" fill="#555555" r="3.3125"><title>2025-01-03</title></circle><circle cx="85.41666666666667" cy="43.935483870967744" fill="#555555" r="3.3125"><title>2025-01-04</title></circle><circle cx="85.41666666666667" cy="52.774193548387096" fill="#555555" r="3.3125"><title>2025-01-05</title></circle><circle cx="85.41666666666667" cy="61.61290322580645" fill="#555555" r="3.3125"><title>2025-01-06</title></circle><circle cx="85.41666666666667" cy="70.45161290322581" fill="#555555" r="3.3125"><title>2025-01-07</title></circle><circle cx="85.41666666666667" cy="79.29032258064517" fill="#555555" r="3.3125"><title>2025-01-08</title></circle><circle cx="85.41666666666667" cy="88.12903225806451" fill="#555555" r="3.3125"><title>2025-01-09</title></circle><circle cx="85.41666666666667" cy="96.96774193548387" fill="#555555" r="3.3125"><title>2025-01-10</title></circle><circle cx="85.41666666666667" cy="105.80645161290322" fill="#555555" r="3.3125"><title>2025-01-11</title></circle><circle cx="85.41666666666667" cy="114.64516129032258" fill="#9e959b" r="3.3125"><title>2025-01-12: 4 km</title></circle><circle cx="85.41666666666667" cy="123.48387096774194" fill="#555555" r="3.3125"><title>2025-01-13</title></circle><circle cx="85.41666666666667" cy="132.32258064516128" fill="#555555" r="3.3125"><title>2025-01-14</title></circle><circle cx="85.41666666666667" cy="141.16129032258064" fill="#555555" r="3.3125"><title>2025-01-15</title></circle><circle cx="85.41666666666667" cy="149.99999999999997" fill="#555555" r="3.3125"><title>2025-01-16</title></circle><circle cx="85.41666666666667" cy="158.83870967741933" fill="#555555" r="3.3125"><title>2025-01-17</title></circle><circle cx="85.41666666666667" cy="167.6774193548387" fill="#a59ba1" r="3.3125"><title>2025-01-18: 5 km</title></circle><circle cx="85.41666666666667" cy="176.51612903225805" fill="#555555" r="3.3125"><title>2025-01-19</title></circle><circle cx="85.41666666666667" cy="185.35483870967738" fill="#555555" r="3.3125"><title>2025-01-20</title></circle><circle cx="85.41666666666667" cy="194.19354838709674" fill="#555555" r="3.3125"><title>2025-01-21</title></circle><circle cx="85.41666666666667" cy="203.0322580645161" fill="#555555" r="3.3125"><title>2025-01-22</title></circle><circle cx="85.41666666666667" cy="211.87096774193546" fill="#555555" r="3.3125"><title>2025-01-23</title></circle><circle cx="85.41666666666667" cy="220.70967741935482" fill="#555555" r="3.3125"><title>2025-01-24</title></circle><circle cx="85.41666666666667" cy="229.54838709677418" fill="#555555" r="3.3125"><title>2025-01-25</title></circle><circle cx="85.41666666666667" cy="238.3870967741935" fill="#cebfc9" r="3.3125"><title>2025-01-26: 7 km</title></circle><circle cx="85.41666666666667" cy="247.22580645161287" fill="#555555" r="3.3125"><title>2025-01-27</title></circle><circle cx="85.41666666666667" cy="256.06451612903226" fill="#555555" r="3.3125"><title>2025-01-28</title></circle><circle cx="85.41666666666667" cy="264.90322580645164" fill="#555555" r="3.3125"><title>2025-01-29</title></circle><circle cx="85.41666666666667" cy="273.741935483871" fill="#555555" r="3.3125"><title>2025-01-30</title></circle><circle cx="85.41666666666667" cy="282.5806451612903" fill="#555555" r="3.3125"><title>2025-01-31</title></circle><circle cx="94.25" cy="17.419354838709676" fill="#555555" r="3.3125"><title>2025-02-01</title></circle><circle cx="94.25" cy="26.25806451612903" fill="#9d949a" r="3.3125"><title>2025-02-02: 4 km</title></circle><circle cx="94.25" cy="35.096774193548384" fill="#555555" r="3.3125"><title>2025-02-03</title></circle><circle cx="94.25" cy="43.935483870967744" fill="#555555" r="3.3125"><title>2025-02-04</title></circle><circle cx="94.25" cy="52.774193548387096" fill="#555555" r="3.3125"><title>2025-02-05</title></circle><circle cx="94.25" cy="61.61290322580645" fill="#a59ba1" r="3.3125"><title>2025-02-06: 5 km</title></circle><circle cx="94.25" cy="70.45161290322581" fill="#555555" r="3.3125"><title>2025-02-07</title></circle><circle cx="94.25" cy="79.29032258064517" fill="#555555" r="3.3125"><title>2025-02-08</title></circle><circle cx="94.25" cy="88.12903225806451" fill="#555555" r="3.3125"><title>2025-02-09</title></circle><circle cx="94.25" cy="96.96774193548387" fill="#555555" r="3.3125"><title>2025-02-10</title></circle><circle cx="94.25" cy="105.80645161290322" fill="#555555" r="3.3125"><title>2025-02-11</title></circle><circle cx="94.25" cy="114.64516129032258" fill="#958d92" r="3.3125"><title>2025-02-12: 4 km</title></circle><circle cx="94.25" cy="123.48387096774194" fill="#555555" r="3.3125"><title>2025-02-13</title></circle><circle cx="94.25" cy="132.32258064516128" fill="#555555" r="3.3125"><title>2025-02-14</title></circle><circle cx="94.25" cy="141.16129032258064" fill="#958d92" r="3.3125"><title>2025-02-15: 4 km</title></circle><circle cx="94.25" cy="149.99999999999997" fill="#c8bac3" r="3.3125"><title>2025-02-16: 7 km</title></circle><circle cx="94.25" cy="158.83870967741933" fill="#555555" r="3.3125"><title>2025-02-17</title></circle><circle cx="94.25" cy="167.6774193548387" fill="#555555" r="3.3125"><title>2025-02-18</title></circle><circle cx="94.25" cy="176.51612903225805" fill="#857f82" r="3.3125"><title>2025-02-19: 3 km</title></circle><circle cx="94.25" cy="185.35483870967738" fill="#7f7a7d" r="3.3125"><title>2025-02-20: 2 km</title></circle><circle cx="94.25" cy="194.19354838709674" fill="#857f83" r="3.3125"><title>2025-02-21: 3 km</title></circle><circle cx="94.25" cy="203.0322580645161" fill="#555555" r="3.3125"><title>2025-02-22</title></circle><circle cx="94.25" cy="211.87096774193546" fill="#555555" r="3.3125"><title>2025-02-23</title></circle><circle cx="94.25" cy="220.70967741935482" fill="#857f83" r="3.3125"><title>2025-02-24: 3 km</title></circle><circle cx="94.25" cy="229.54838709677418" fill="#857f83" r="3.3125"><title>2025-02-25: 3 km</title></circle><circle cx="94.25" cy="238.3870967741935" fill="#857f82" r="3.3125"><title>2025-02-26: 3 km</title></circle><circle cx="94.25" cy="247.22580645161287" fill="#555555" r="3.3125"><title>2025-02-27</title></circle><circle cx="94.25" cy="256.06451612903226" fill="#555555" r="3.3125"><title>2025-02-28</title></circle><circle cx="103.08333333333334" cy="17.419354838709676" fill="#555555" r="3.3125"><title>2025-03-01</title></circle><circle cx="103.08333333333334" cy="26.25806451612903" fill="#aca1a8" r="3.3125"><title>2025-03-02: 5 km</title></circle><circle cx="103.08333333333334" cy="35.096774193548384" fill="#555555" r="3.3125"><title>2025-03-03</title></circle><circle cx="103.08333333333334" cy="43.935483870967744" fill="#555555" r="3.3125"><title>2025-03-04</title></circle><circle cx="103.08333333333334" cy="52.774193548387096" fill="#555555" r="3.3125"><title>2025-03-05</title></circle><circle cx="103.08333333333334" cy="61.61290322580645" fill="#555555" r="3.3125"><title>2025-03-06</title></circle><circle cx="103.08333333333334" cy="70.45161290322581" fill="#555555" r="3.3125"><title>2025-03-07</title></circle><circle cx="103.08333333333334" cy="79.29032258064517" fill="#555555" r="3.3125"><title>2025-03-08</title></circle><circle cx="103.08333333333334" cy="88.12903225806451" fill="#bfb2bb" r="3.3125"><title>2025-03-09: 6 km</title></circle><circle cx="103.08333333333334" cy="96.96774193548387" fill="#555555" r="3.3125"><title>2025-03-10</title></circle><circle cx="103.08333333333334" cy="105.80645161290322" fill="#555555" r="3.3125"><title>2025-03-11</title></circle><circle cx="103.08333333333334" cy="114.64516129032258" fill="#555555" r="3.3125"><title>2025-03-12</title></circle><circle cx="103.08333333333334" cy="123.48387096774194" fill="#555555" r="3.3125"><title>2025-03-13</title></circle><circle cx="103.08333333333334" cy="132.32258064516128" fill="#E18ABF" r="3.3125"><title>2025-03-14: 10 km</title></circle><circle cx="103.08333333333334" cy="141.16129032258064" fill="#555555" r="3.3125"><title>2025-03-15</title></circle><circle cx="103.08333333333334" cy="149.99999999999997" fill="#E18ABF" r="3.3125"><title>2025-03-16: 13 km</title></circle><circle cx="103.08333333333334" cy="158.83870967741933" fill="#555555" r="3.3125"><title>2025-03-17</title></circle><circle cx="103.08333333333334" cy="167.6774193548387" fill="#555555" r="3.3125"><title>2025-03-18</title></circle><circle cx="103.08333333333334" cy="176.51612903225805" fill="#555555" r="3.3125"><title>2025-03-19</title></circle><circle cx="103.08333333333334" cy="185.35483870967738" fill="#555555" r="3.3125"><title>2025-03-20</title></circle><circle cx="103.08333333333334" cy="194.19354838709674" fill="#555555" r="3.3125"><title>2025-03-21</title></circle><circle cx="103.08333333333334" cy="203.0322580645161" fill="#E18ABF" r="3.3125"><title>2025-03-22: 12 km</title></circle><circle cx="103.08333333333334" cy="211.87096774193546" fill="#555555" r="3.3125"><title>2025-03-23</title></circle><circle cx="103.08333333333334" cy="220.70967741935482" fill="#555555" r="3.3125"><title>2025-03-24</title></circle><circle cx="103.08333333333334" cy="229.54838709677418" fill="#E18ABF" r="3.3125"><title>2025-03-25: 10 km</title></circle><circle cx="103.08333333333334" cy="238.3870967741935" fill="#f3dfec" r="3.3125"><title>2025-03-26: 9 km</title></circle><circle cx="103.08333333333334" cy="247.22580645161287" fill="#555555" r="3.3125"><title>2025-03-27</title></circle><circle cx="103.08333333333334" cy="256.06451612903226" fill="#f1deeb" r="3.3125"><title>2025-03-28: 9 km</title></circle><circle cx="103.08333333333334" cy="264.90322580645164" fill="#958d92" r="3.3125"><title>2025-03-29: 4 km</title></circle><circle cx="103.08333333333334" cy="273.741935483871" fill="#aa9fa6" r="3.3125"><title>2025-03-30: 5 km</title></circle><circle cx="103.08333333333334" cy="282.5806451612903" fill="#f2deeb" r="3.3125"><title>2025-03-31: 9 km</title></circle><circle cx="111.91666666666667" cy="17.419354838709676" fill="#f2dfeb" r="3.3125"><title>2025-04-01: 9 km</title></circle><circle cx="111.91666666666667" cy="26.25806451612903" fill="#f1deeb" r="3.3125"><title>2025-04-02: 9 km</title></circle><circle cx="111.91666666666667" cy="35.096774193548384" fill="#555555" r="3.3125"><title>2025-04-03</title></circle><circle cx="111.91666666666667" cy="43.935483870967744" fill="#555555" r="3.3125"><title>2025-04-04</title></circle><circle cx="111.91666666666667" cy="52.774193548387096" fill="#555555" r="3.3125"><title>2025-04-05</title></circle><circle cx="111.91666666666667" cy="61.61290322580645" fill="#E18ABF" r="3.3125"><title>2025-04-06: 12 km</title></circle><circle cx="111.91666666666667" cy="70.45161290322581" fill="#f1ddea" r="3.3125"><title>2025-04-07: 9 km</title></circle><circle cx="111.91666666666667" cy="79.29032258064517" fill="#f1ddea" r="3.3125"><title>2025-04-08: 9 km</title></circle><circle cx="111.91666666666667" cy="88.12903225806451" fill="#e2d0dc" r="3.3125"><title>2025-04-09: 8 km</title></circle><circle cx="111.91666666666667" cy="96.96774193548387" fill="#f1ddea" r="3.3125"><title>2025-04-10: 9 km</title></circle><circle cx="111.91666666666667" cy="105.80645161290322" fill="#a59ba1" r="3.3125"><title>2025-04-11: 5 km</title></circle><circle cx="111.91666666666667" cy="114.64516129032258" fill="#555555" r="3.3125"><title>2025-04-12</title></circle><circle cx="111.91666666666667" cy="123.48387096774194" fill="#E18ABF" r="3.3125"><title>2025-04-13: 11 km</title></circle><circle cx="111.91666666666667" cy="132.32258064516128" fill="#eedbe8" r="3.3125"><title>2025-04-14: 9 km</title></circle><circle cx="111.91666666666667" cy="141.16129032258064" fill="#ebd8e4" r="3.3125"><title>2025-04-15: 9 km</title></circle><circle cx="111.91666666666667" cy="149.99999999999997" fill="#eedbe8" r="3.3125"><title>2025-04-16: 9 km</title></circle><circle cx="111.91666666666667" cy="158.83870967741933" fill="#555555" r="3.3125"><title>2025-04-17</title></circle><circle cx="111.91666666666667" cy="167.6774193548387" fill="#555555" r="3.3125"><title>2025-04-18</title></circle><circle cx="111.91666666666667" cy="176.51612903225805" fill="#555555" r="3.3125"><title>2025-04-19</title></circle><circle cx="111.91666666666667" cy="185.35483870967738" fill="#E18ABF" r="3.3125"><title>2025-04-20: 21 km</title></circle><circle cx="111.91666666666667" cy="194.19354838709674" fill="#555555" r="3.3125"><title>2025-04-21</title></circle><circle cx="111.91666666666667" cy="203.0322580645161" fill="#555555" r="3.3125"><title>2025-04-22</title></circle><circle cx="111.91666666666667" cy="211.87096774193546" fill="#f2deeb" r="3.3125"><title>2025-04-23: 9 km</title></circle><circle cx="111.91666666666667" cy="220.70967741935482" fill="#f1deeb" r="3.3125"><title>2025-04-24: 9 km</title></circle><circle cx="111.91666666666667" cy="229.54838709677418" fill="#E18ABF" r="3.3125"><title>2025-04-25: 10 km</title></circle><circle cx="111.91666666666667" cy="238.3870967741935" fill="#a99ea5" r="3.3125"><title>2025-04-26: 5 km</title></circle><circle cx="111.91666666666667" cy="247.22580645161287" fill="#E18ABF" r="3.3125"><title>2025-04-27: 10 km</title></circle><circle cx="111.91666666666667" cy="256.06451612903226" fill="#f0dde9" r="3.3125"><title>2025-04-28: 9 km</title></circle><circle cx="111.91666666666667" cy="264.90322580645164" fill="#E18ABF" r="3.3125"><title>2025-04-29: 10 km</title></circle><circle cx="111.91666666666667" cy="273.741935483871" fill="#555555" r="3.3125"><title>2025-04-30</title></circle><circle cx="120.75000000000001" cy="17.419354838709676" fill="#555555" r="3.3125"><title>2025-05-01</title></circle><circle cx="120.75000000000001" cy="26.25806451612903" fill="#555555" r="3.3125"><title>2025-05-02</title></circle><circle cx="120.75000000000001" cy="35.096774193548384" fill="#555555" r="3.3125"><title>2025-05-03</title></circle><circle cx="120.75000000000001" cy="43.935483870967744" fill="#555555" r="3.3125"><title>2025-05-04</title></circle><circle cx="120.75000000000001" cy="52.774193548387096" fill="#555555" r="3.3125"><title>2025-05-05</title></circle><circle cx="120.75000000000001" cy="61.61290322580645" fill="#555555" r="3.3125"><title>2025-05-06</title></circle><circle cx="120.75000000000001" cy="70.45161290322581" fill="#E18ABF" r="3.3125"><title>2025-05-07: 10 km</title></circle><circle cx="120.75000000000001" cy="79.29032258064517" fill="#E18ABF" r="3.3125"><title>2025-05-08: 10 km</title></circle><circle cx="120.75000000000001" cy="88.12903225806451" fill="#555555" r="3.3125"><title>2025-05-09</title></circle><circle cx="120.75000000000001" cy="96.96774193548387" fill="#555555" r="3.3125"><title>2025-05-10</title></circle><circle cx="120.75000000000001" cy="105.80645161290322" fill="#E18ABF" r="3.3125"><title>2025-05-11: 21 km</title></circle><circle cx="120.75000000000001" cy="114.64516129032258" fill="#f4e0ed" r="3.3125"><title>2025-05-12: 9 km</title></circle><circle cx="120.75000000000001" cy="123.48387096774194" fill="#E18ABF" r="3.3125"><title>2025-05-13: 10 km</title></circle><circle cx="120.75000000000001" cy="132.32258064516128" fill="#E18ABF" r="3.3125"><title>2025-05-14: 10 km</title></circle><circle cx="120.75000000000001" cy="141.16129032258064" fill="#E18ABF" r="3.3125"><title>2025-05-15: 10 km</title></circle><circle cx="120.75000000000001" cy="149.99999999999997" fill="#E18ABF" r="3.3125"><title>2025-05-16: 10 km</title></circle><circle cx="120.75000000000001" cy="158.83870967741933" fill="#555555" r="3.3125"><title>2025-05-17</title></circle><circle cx="120.75000000000001" cy="167.6774193548387" fill="#555555" r="3.3125"><title>2025-05-18</title></circle><circle cx="120.75000000000001" cy="176.51612903225805" fill="#E18ABF" r="3.3125"><title>2025-05-19: 10 km</title></circle><circle cx="120.75000000000001" cy="185.35483870967738" fill="#E18ABF" r="3.3125"><title>2025-05-20: 10 km</title></circle><circle cx="120.75000000000001" cy="194.19354838709674" fill="#E18ABF" r="3.3125"><title>2025-05-21: 10 km</title></circle><circle cx="120.75000000000001" cy="203.0322580645161" fill="#E18ABF" r="3.3125"><title>2025-05-22: 10 km</title></circle><circle cx="120.75000000000001" cy="211.87096774193546" fill="#E18ABF" r="3.3125"><title>2025-05-23: 10 km</title></circle><circle cx="120.75000000000001" cy="220.70967741935482" fill="#E18ABF" r="3.3125"><title>2025-05-24: 10 km</title></circle><circle cx="120.75000000000001" cy="229.54838709677418" fill="#b5a9b0" r="3.3125"><title>2025-05-25: 6 km</title></circle><circle cx="120.75000000000001" cy="238.3870967741935" fill="#E18ABF" r="3.3125"><title>2025-05-26: 10 km</title></circle><circle cx="120.75000000000001" cy="247.22580645161287" fill="#E18ABF" r="3.3125"><title>2025-05-27: 10 km</title></circle><circle cx="120.75000000000001" cy="256.06451612903226" fill="#E18ABF" r="3.3125"><title>2025-05-28: 10 km</title></circle><circle cx="120.75000000000001" cy="264.90322580645164" fill="#c2b4bd" r="3.3125"><title>2025-05-29: 6 km</title></circle><circle cx="120.75000000000001" cy="273.741935483871" fill="#555555" r="3.3125"><title>2025-05-30</title></circle><circle cx="120.75000000000001" cy="282.5806451612903" fill="#E18ABF" r="3.3125"><title>2025-05-31: 10 km</title></circle><circle cx="129.58333333333334" cy="17.419354838709676" fill="#E18ABF" r="3.3125"><title>2025-06-01: 10 km</title></circle><circle cx="129.58333333333334" cy="26.25806451612903" fill="#555555" r="3.3125"><title>2025-06-02</title></circle><circle cx="129.58333333333334" cy="35.096774193548384" fill="#555555" r="3.3125"><title>2025-06-03</title></circle><circle cx="129.58333333333334" cy="43.935483870967744" fill="#E18ABF" r="3.3125"><title>2025-06-04: 10 km</title></circle><circle cx="129.58333333333334" cy="52.774193548387096" fill="#E18ABF" r="3.3125"><title>2025-06-05: 10 km</title></circle><circle cx="129.58333333333334" cy="61.61290322580645" fill="#E18ABF" r="3.3125"><title>2025-06-06: 10 km</title></circle><circle cx="129.58333333333334" cy="70.45161290322581" fill="#E18ABF" r="3.3125"><title>2025-06-07: 11 km</title></circle><circle cx="129.58333333333334" cy="79.29032258064517" fill="#b5a9b1" r="3.3125"><title>2025-06-08: 6 km</title></circle><circle cx="129.58333333333334" cy="88.12903225806451" fill="#E18ABF" r="3.3125"><title>2025-06-09: 13 km</title></circle><circle cx="129.58333333333334" cy="96.96774193548387" fill="#E18ABF" r="3.3125"><title>2025-06-10: 10 km</title></circle><circle cx="129.58333333333334" cy="105.80645161290322" fill="#E18ABF" r="3.3125"><title>2025-06-11: 16 km</title></circle><circle cx="129.58333333333334" cy="114.64516129032258" fill="#E18ABF" r="3.3125"><title>2025-06-12: 11 km</title></circle><circle cx="129.58333333333334" cy="123.48387096774194" fill="#aea3aa" r="3.3125"><title>2025-06-13: 5 km</title></circle><circle cx="129.58333333333334" cy="132.32258064516128" fill="#E18ABF" r="3.3125"><title>2025-06-14: 16 km</title></circle><circle cx="129.58333333333334" cy="141.16129032258064" fill="#E18ABF" r="3.3125"><title>2025-06-15: 11 km</title></circle><circle cx="129.58333333333334" cy="149.99999999999997" fill="#E18ABF" r="3.3125"><title>2025-06-16: 10 km</title></circle><circle cx="129.58333333333334" cy="158.83870967741933" fill="#E18ABF" r="3.3125"><title>2025-06-17: 13 km</title></circle><circle cx="129.58333333333334" cy="167.6774193548387" fill="#E18ABF" r="3.3125"><title>2025-06-18: 10 km</title></circle><circle cx="129.58333333333334" cy="176.51612903225805" fill="#b3a7ae" r="3.3125"><title>2025-06-19: 5 km</title></circle><circle cx="129.58333333333334" cy="185.35483870967738" fill="#E18ABF" r="3.3125"><title>2025-06-20: 10 km</title></circle><circle cx="129.58333333333334" cy="194.19354838709674" fill="#E18ABF" r="3.3125"><title>2025-06-21: 22 km</title></circle><circle cx="129.58333333333334" cy="203.0322580645161" fill="#E18ABF" r="3.3125"><title>2025-06-22: 10 km</title></circle><circle cx="129.58333333333334" cy="211.87096774193546" fill="#E18ABF" r="3.3125"><title>2025-06-23: 12 km</title></circle><circle cx="129.58333333333334" cy="220.70967741935482" fill="#E18ABF" r="3.3125"><title>2025-06-24: 10 km</title></circle><circle cx="129.58333333333334" cy="229.54838709677418" fill="#E18ABF" r="3.3125"><title>2025-06-25: 10 km</title></circle><circle cx="129.58333333333334" cy="238.3870967741935" fill="#E18ABF" r="3.3125"><title>2025-06-26: 10 km</title></circle><circle cx="129.58333333333334" cy="247.22580645161287" fill="#E18ABF" r="3.3125"><title>2025-06-27: 13 km</title></circle><circle cx="129.58333333333334" cy="256.06451612903226" fill="#9f959c" r="3.3125"><title>2025-06-28: 4 km</title></circle><circle cx="129.58333333333334" cy="264.90322580645164" fill="#d5c5cf" r="3.3125"><title>2025-06-29: 8 km</title></circle><circle cx="129.58333333333334" cy="273.741935483871" fill="#f4e0ed" r="3.3125"><title>2025-06-30: 9 km</title></circle><circle cx="138.41666666666666" cy="17.419354838709676" fill="#E18ABF" r="3.3125"><title>2025-07-01: 11 km</title></circle><circle cx="138.41666666666666" cy="26.25806451612903" fill="#f1ddea" r="3.3125"><title>2025-07-02: 9 km</title></circle><circle cx="138.41666666666666" cy="35.096774193548384" fill="#E18ABF" r="3.3125"><title>2025-07-03: 14 km</title></circle><circle cx="138.41666666666666" cy="43.935483870967744" fill="#f1deeb" r="3.3125"><title>2025-07-04: 9 km</title></circle><circle cx="138.41666666666666" cy="52.774193548387096" fill="#E18ABF" r="3.3125"><title>2025-07-05: 10 km</title></circle><circle cx="138.41666666666666" cy="61.61290322580645" fill="#f2dfec" r="3.3125"><title>2025-07-06: 9 km</title></circle><circle cx="138.41666666666666" cy="70.45161290322581" fill="#E18ABF" r="3.3125"><title>2025-07-07: 10 km</title></circle><circle cx="138.41666666666666" cy="79.29032258064517" fill="#E18ABF" r="3.3125"><title>2025-07-08: 10 km</title></circle><circle cx="138.41666666666666" cy="88.12903225806451" fill="#f2dfeb" r="3.3125"><title>2025-07-09: 9 km</title></circle><circle cx="138.41666666666666" cy="96.96774193548387" fill="#f2deeb" r="3.3125"><title>2025-07-10: 9 km</title></circle><circle cx="138.41666666666666" cy="105.80645161290322" fill="#E18ABF" r="3.3125"><title>2025-07-11: 10 km</title></circle><circle cx="138.41666666666666" cy="114.64516129032258" fill="#dfced9" r="3.3125"><title>2025-07-12: 8 km</title></circle><circle cx="138.41666666666666" cy="123.48387096774194" fill="#555555" r="3.3125"><title>2025-07-13</title></circle><circle cx="138.41666666666666" cy="132.32258064516128" fill="#E18ABF" r="3.3125"><title>2025-07-14: 10 km</title></circle><circle cx="138.41666666666666" cy="141.16129032258064" fill="#555555" r="3.3125"><title>2025-07-15</title></circle><circle cx="138.41666666666666" cy="149.99999999999997" fill="#f4e0ed" r="3.3125"><title>2025-07-16: 9 km</title></circle><circle cx="138.41666666666666" cy="158.83870967741933" fill="#E18ABF" r="3.3125"><title>2025-07-17: 10 km</title></circle><circle cx="138.41666666666666" cy="167.6774193548387" fill="#555555" r="3.3125"><title>2025-07-18</title></circle><circle cx="138.41666666666666" cy="176.51612903225805" fill="#555555" r="3.3125"><title>2025-07-19</title></circle><circle cx="138.41666666666666" cy="185.35483870967738" fill="#555555" r="3.3125"><title>2025-07-20</title></circle><circle cx="138.41666666666666" cy="194.19354838709674" fill="#555555" r="3.3125"><title>2025-07-21</title></circle><circle cx="138.41666666666666" cy="203.0322580645161" fill="#555555" r="3.3125"><title>2025-07-22</title></circle><circle cx="138.41666666666666" cy="211.87096774193546" fill="#E18ABF" r="3.3125"><title>2025-07-23: 10 km</title></circle><circle cx="138.41666666666666" cy="220.70967741935482" fill="#555555" r="3.3125"><title>2025-07-24</title></circle><circle cx="138.41666666666666" cy="229.54838709677418" fill="#f0ddea" r="3.3125"><title>2025-07-25: 9 km</title></circle><circle cx="138.41666666666666" cy="238.3870967741935" fill="#555555" r="3.3125"><title>2025-07-26</title></circle><circle cx="138.41666666666666" cy="247.22580645161287" fill="#555555" r="3.3125"><title>2025-07-27</title></circle><circle cx="138.41666666666666" cy="256.06451612903226" fill="#f0dde9" r="3.3125"><title>2025-07-28: 9 km</title></circle><circle cx="138.41666666666666" cy="264.90322580645164" fill="#555555" r="3.3125"><title>2025-07-29</title></circle><circle cx="138.41666666666666" cy="273.741935483871" fill="#555555" r="3.3125"><title>2025-07-30</title></circle><circle cx="138.41666666666666" cy="282.5806451612903" fill="#d5c5cf" r="3.3125"><title>2025-07-31: 8 km</title></circle><circle cx="147.25" cy="17.419354838709676" fill="#E18ABF" r="3.3125"><title>2025-08-01: 10 km</title></circle><circle cx="147.25" cy="26.25806451612903" fill="#555555" r="3.3125"><title>2025-08-02</title></circle><circle cx="147.25" cy="35.096774193548384" fill="#555555" r="3.3125"><title>2025-08-03</title></circle><circle cx="147.25" cy="43.935483870967744" fill="#E18ABF" r="3.3125"><title>2025-08-04: 10 km</title></circle><circle cx="147.25" cy="52.774193548387096" fill="#efdce8" r="3.3125"><title>2025-08-05: 9 km</title></circle><circle cx="147.25" cy="61.61290322580645" fill="#f0dde9" r="3.3125"><title>2025-08-06: 9 km</title></circle><circle cx="147.25" cy="70.45161290322581" fill="#E18ABF" r="3.3125"><title>2025-08-07: 10 km</title></circle><circle cx="147.25" cy="79.29032258064517" fill="#E18ABF" r="3.3125"><title>2025-08-08: 10 km</title></circle><circle cx="147.25" cy="88.12903225806451" fill="#555555" r="3.3125"><title>2025-08-09</title></circle><circle cx="147.25" cy="96.96774193548387" fill="#ccbdc7" r="3.3125"><title>2025-08-10: 7 km</title></circle><circle cx="147.25" cy="105.80645161290322" fill="#E18ABF" r="3.3125"><title>2025-08-11: 10 km</title></circle><circle cx="147.25" cy="114.64516129032258" fill="#918a8f" r="3.3125"><title>2025-08-12: 3 km</title></circle><circle cx="147.25" cy="123.48387096774194" fill="#E18ABF" r="3.3125"><title>2025-08-13: 10 km</title></circle><circle cx="147.25" cy="132.32258064516128" fill="#E18ABF" r="3.3125"><title>2025-08-14: 10 km</title></circle><circle cx="147.25" cy="141.16129032258064" fill="#555555" r="3.3125"><title>2025-08-15</title></circle><circle cx="147.25" cy="149.99999999999997" fill="#a3999f" r="3.3125"><title>2025-08-16: 4 km</title></circle><circle cx="147.25" cy="158.83870967741933" fill="#bdb0b8" r="3.3125"><title>2025-08-17: 6 km</title></circle><circle cx="147.25" cy="167.6774193548387" fill="#E18ABF" r="3.3125"><title>2025-08-18: 10 km</title></circle><circle cx="147.25" cy="176.51612903225805" fill="#857f82" r="3.3125"><title>2025-08-19: 3 km</title></circle><circle cx="147.25" cy="185.35483870967738" fill="#bdb0b9" r="3.3125"><title>2025-08-20: 6 km</title></circle><circle cx="147.25" cy="194.19354838709674" fill="#cabbc4" r="3.3125"><title>2025-08-21: 7 km</title></circle><circle cx="147.25" cy="203.0322580645161" fill="#E18ABF" r="3.3125"><title>2025-08-22: 23 km</title></circle><circle cx="147.25" cy="211.87096774193546" fill="#555555" r="3.3125"><title>2025-08-23</title></circle><circle cx="147.25" cy="220.70967741935482" fill="#555555" r="3.3125"><title>2025-08-24</title></circle><circle cx="147.25" cy="229.54838709677418" fill="#555555" r="3.3125"><title>2025-08-25</title></circle><circle cx="147.25" cy="238.3870967741935" fill="#f1deeb" r="3.3125"><title>2025-08-26: 9 km</title></circle><circle cx="147.25" cy="247.22580645161287" fill="#555555" r="3.3125"><title>2025-08-27</title></circle><circle cx="147.25" cy="256.06451612903226" fill="#555555" r="3.3125"><title>2025-08-28</title></circle><circle cx="147.25" cy="264.90322580645164" fill="#555555" r="3.3125"><title>2025-08-29</title></circle><circle cx="147.25" cy="273.741935483871" fill="#555555" r="3.3125"><title>2025-08-30</title></circle><circle cx="147.25" cy="282.5806451612903" fill="#555555" r="3.3125"><title>2025-08-31</title></circle><circle cx="156.08333333333334" cy="17.419354838709676" fill="#555555" r="3.3125"><title>2025-09-01</title></circle><circle cx="156.08333333333334" cy="26.25806451612903" fill="#555555" r="3.3125"><title>2025-09-02</title></circle><circle cx="156.08333333333334" cy="35.096774193548384" fill="#555555" r="3.3125"><title>2025-09-03</title></circle><circle cx="156.08333333333334" cy="43.935483870967744" fill="#555555" r="3.3125"><title>2025-09-04</title></circle><circle cx="156.08333333333334" cy="52.774193548387096" fill="#555555" r="3.3125"><title>2025-09-05</title></circle><circle cx="156.08333333333334" cy="61.61290322580645" fill="#555555" r="3.3125"><title>2025-09-06</title></circle><circle cx="156.08333333333334" cy="70.45161290322581" fill="#555555" r="3.3125"><title>2025-09-07</title></circle><circle cx="156.08333333333334" cy="79.29032258064517" fill="#555555" r="3.3125"><title>2025-09-08</title></circle><circle cx="156.08333333333334" cy="88.12903225806451" fill="#555555" r="3.3125"><title>2025-09-09</title></circle><circle cx="156.08333333333334" cy="96.96774193548387" fill="#555555" r="3.3125"><title>2025-09-10</title></circle><circle cx="156.08333333333334" cy="105.80645161290322" fill="#555555" r="3.3125"><title>2025-09-11</title></circle><circle cx="156.08333333333334" cy="114.64516129032258" fill="#555555" r="3.3125"><title>2025-09-12</title></circle><circle cx="156.08333333333334" cy="123.48387096774194" fill="#555555" r="3.3125"><title>2025-09-13</title></circle><circle cx="156.08333333333334" cy="132.32258064516128" fill="#555555" r="3.3125"><title>2025-09-14</title></circle><circle cx="156.08333333333334" cy="141.16129032258064" fill="#555555" r="3.3125"><title>2025-09-15</title></circle><circle cx="156.08333333333334" cy="149.99999999999997" fill="#555555" r="3.3125"><title>2025-09-16</title></circle><circle cx="156.08333333333334" cy="158.83870967741933" fill="#555555" r="3.3125"><title>2025-09-17</title></circle><circle cx="156.08333333333334" cy="167.6774193548387" fill="#555555" r="3.3125"><title>2025-09-18</title></circle><circle cx="156.08333333333334" cy="176.51612903225805" fill="#555555" r="3.3125"><title>2025-09-19</title></circle><circle cx="156.08333333333334" cy="185.35483870967738" fill="#555555" r="3.3125"><title>2025-09-20</title></circle><circle cx="156.08333333333334" cy="194.19354838709674" fill="#555555" r="3.3125"><title>2025-09-21</title></circle><circle cx="156.08333333333334" cy="203.0322580645161" fill="#555555" r="3.3125"><title>2025-09-22</title></circle><circle cx="156.08333333333334" cy="211.87096774193546" fill="#555555" r="3.3125"><title>2025-09-23</title></circle><circle cx="156.08333333333334" cy="220.70967741935482" fill="#555555" r="3.3125"><title>2025-09-24</title></circle><circle cx="156.08333333333334" cy="229.54838709677418" fill="#555555" r="3.3125"><title>2025-09-25</title></circle><circle cx="156.08333333333334" cy="238.3870967741935" fill="#555555" r="3.3125"><title>2025-09-26</title></circle><circle cx="156.08333333333334" cy="247.22580645161287" fill="#555555" r="3.3125"><title>2025-09-27</title></circle><circle cx="156.08333333333334" cy="256.06451612903226" fill="#555555" r="3.3125"><title>2025-09-28</title></circle><circle cx="156.08333333333334" cy="264.90322580645164" fill="#555555" r="3.3125"><title>2025-09-29</title></circle><circle cx="156.08333333333334" cy="273.741935483871" fill="#555555" r="3.3125"><title>2025-09-30</title></circle><circle cx="164.91666666666666" cy="17.419354838709676" fill="#e5d3df" r="3.3125"><title>2025-10-01: 9 km</title></circle><circle cx="164.91666666666666" cy="26.25806451612903" fill="#555555" r="3.3125"><title>2025-10-02</title></circle><circle cx="164.91666666666666" cy="35.096774193548384" fill="#E18ABF" r="3.3125"><title>2025-10-03: 10 km</title></circle><circle cx="164.91666666666666" cy="43.935483870967744" fill="#555555" r="3.3125"><title>2025-10-04</title></circle><circle cx="164.91666666666666" cy="52.774193548387096" fill="#555555" r="3.3125"><title>2025-10-05</title></circle><circle cx="164.91666666666666" cy="61.61290322580645" fill="#555555" r="3.3125"><title>2025-10-06</title></circle><circle cx="164.91666666666666" cy="70.45161290322581" fill="#E18ABF" r="3.3125"><title>2025-10-07: 10 km</title></circle><circle cx="164.91666666666666" cy="79.29032258064517" fill="#a59ba1" r="3.3125"><title>2025-10-08: 5 km</title></circle><circle cx="164.91666666666666" cy="88.12903225806451" fill="#555555" r="3.3125"><title>2025-10-09</title></circle><circle cx="164.91666666666666" cy="96.96774193548387" fill="#555555" r="3.3125"><title>2025-10-10</title></circle><circle cx="164.91666666666666" cy="105.80645161290322" fill="#E18ABF" r="3.3125"><title>2025-10-11: 12 km</title></circle><circle cx="164.91666666666666" cy="114.64516129032258" fill="#555555" r="3.3125"><title>2025-10-12</title></circle><circle cx="164.91666666666666" cy="123.48387096774194" fill="#E18ABF" r="3.3125"><title>2025-10-13: 10 km</title></circle><circle cx="164.91666666666666" cy="132.32258064516128" fill="#555555" r="3.3125"><title>2025-10-14</title></circle><circle cx="164.91666666666666" cy="141.16129032258064" fill="#a59ba1" r="3.3125"><title>2025-10-15: 5 km</title></circle><circle cx="164.91666666666666" cy="149.99999999999997" fill="#555555" r="3.3125"><title>2025-10-16</title></circle><circle cx="164.91666666666666" cy="158.83870967741933" fill="#a59ba1" r="3.3125"><title>2025-10-17: 5 km</title></circle><circle cx="164.91666666666666" cy="167.6774193548387" fill="#555555" r="3.3125"><title>2025-10-18</title></circle><circle cx="164.91666666666666" cy="176.51612903225805" fill="#E18ABF" r="3.3125"><title>2025-10-19: 21 km</title></circle><circle cx="164.91666666666666" cy="185.35483870967738" fill="#555555" r="3.3125"><title>2025-10-20</title></circle><circle cx="164.91666666666666" cy="194.19354838709674" fill="#a59ba1" r="3.3125"><title>2025-10-21: 5 km</title></circle><circle cx="164.91666666666666" cy="203.0322580645161" fill="#a59ba1" r="3.3125"><title>2025-10-22: 5 km</title></circle><circle cx="164.91666666666666" cy="211.87096774193546" fill="#a59ba1" r="3.3125"><title>2025-10-23: 5 km</title></circle><circle cx="164.91666666666666" cy="220.70967741935482" fill="#555555" r="3.3125"><title>2025-10-24</title></circle><circle cx="164.91666666666666" cy="229.54838709677418" fill="#555555" r="3.3125"><title>2025-10-25</title></circle><circle cx="164.91666666666666" cy="238.3870967741935" fill="#E18ABF" r="3.3125"><title>2025-10-26: 42 km</title></circle><circle cx="164.91666666666666" cy="247.22580645161287" fill="#555555" r="3.3125"><title>2025-10-27</title></circle><circle cx="164.91666666666666" cy="256.06451612903226" fill="#555555" r="3.3125"><title>2025-10-28</title></circle><circle cx="164.91666666666666" cy="264.90322580645164" fill="#a59ba1" r="3.3125"><title>2025-10-29: 5 km</title></circle><circle cx="164.91666666666666" cy="273.741935483871" fill="#a59ba1" r="3.3125"><title>2025-10-30: 5 km</title></circle><circle cx="164.91666666666666" cy="282.5806451612903" fill="#555555" r="3.3125"><title>2025-10-31</title></circle><circle cx="173.75" cy="17.419354838709676" fill="#555555" r="3.3125"><title>2025-11-01</title></circle><circle cx="173.75" cy="26.25806451612903" fill="#555555" r="3.3125"><title>2025-11-02</title></circle><circle cx="173.75" cy="35.096774193548384" fill="#555555" r="3.3125"><title>2025-11-03</title></circle><circle cx="173.75" cy="43.935483870967744" fill="#555555" r="3.3125"><title>2025-11-04</title></circle><circle cx="173.75" cy="52.774193548387096" fill="#555555" r="3.3125"><title>2025-11-05</title></circle><circle cx="173.75" cy="61.61290322580645" fill="#555555" r="3.3125"><title>2025-11-06</title></circle><circle cx="173.75" cy="70.45161290322581" fill="#555555" r="3.3125"><title>2025-11-07</title></circle><circle cx="173.75" cy="79.29032258064517" fill="#555555" r="3.3125"><title>2025-11-08</title></circle><circle cx="173.75" cy="88.12903225806451" fill="#555555" r="3.3125"><title>2025-11-09</title></circle><circle cx="173.75" cy="96.96774193548387" fill="#555555" r="3.3125"><title>2025-11-10</title></circle><circle cx="173.75" cy="105.80645161290322" fill="#555555" r="3.3125"><title>2025-11-11</title></circle><circle cx="173.75" cy="114.64516129032258" fill="#555555" r="3.3125"><title>2025-11-12</title></circle><circle cx="173.75" cy="123.48387096774194" fill="#555555" r="3.3125"><title>2025-11-13</title></circle><circle cx="173.75" cy="132.32258064516128" fill="#555555" r="3.3125"><title>2025-11-14</title></circle><circle cx="173.75" cy="141.16129032258064" fill="#555555" r="3.3125"><title>2025-11-15</title></circle><circle cx="173.75" cy="149.99999999999997" fill="#555555" r="3.3125"><title>2025-11-16</title></circle><circle cx="173.75" cy="158.83870967741933" fill="#555555" r="3.3125"><title>2025-11-17</title></circle><circle cx="173.75" cy="167.6774193548387" fill="#555555" r="3.3125"><title>2025-11-18</title></circle><circle cx="173.75" cy="176.51612903225805" fill="#555555" r="3.3125"><title>2025-11-19</title></circle><circle cx="173.75" cy="185.35483870967738" fill="#555555" r="3.3125"><title>2025-11-20</title></circle><circle cx="173.75" cy="194.19354838709674" fill="#555555" r="3.3125"><title>2025-11-21</title></circle><circle cx="173.75" cy="203.0322580645161" fill="#555555" r="3.3125"><title>2025-11-22</title></circle><circle cx="173.75" cy="211.87096774193546" fill="#555555" r="3.3125"><title>2025-11-23</title></circle><circle cx="173.75" cy="220.70967741935482" fill="#555555" r="3.3125"><title>2025-11-24</title></circle><circle cx="173.75" cy="229.54838709677418" fill="#555555" r="3.3125"><title>2025-11-25</title></circle><circle cx="173.75" cy="238.3870967741935" fill="#555555" r="3.3125"><title>2025-11-26</title></circle><circle cx="173.75" cy="247.22580645161287" fill="#555555" r="3.3125"><title>2025-11-27</title></circle><circle cx="173.75" cy="256.06451612903226" fill="#555555" r="3.3125"><title>2025-11-28</title></circle><circle cx="173.75" cy="264.90322580645164" fill="#555555" r="3.3125"><title>2025-11-29</title></circle><circle cx="173.75" cy="273.741935483871" fill="#555555" r="3.3125"><title>2025-11-30</title></circle><circle cx="182.58333333333334" cy="17.419354838709676" fill="#555555" r="3.3125"><title>2025-12-01</title></circle><circle cx="182.58333333333334" cy="26.25806451612903" fill="#555555" r="3.3125"><title>2025-12-02</title></circle><circle cx="182.58333333333334" cy="35.096774193548384" fill="#555555" r="3.3125"><title>2025-12-03</title></circle><circle cx="182.58333333333334" cy="43.935483870967744" fill="#a79da4" r="3.3125"><title>2025-12-04: 5 km</title></circle><circle cx="182.58333333333334" cy="52.774193548387096" fill="#555555" r="3.3125"><title>2025-12-05</title></circle><circle cx="182.58333333333334" cy="61.61290322580645" fill="#555555" r="3.3125"><title>2025-12-06</title></circle><circle cx="182.58333333333334" cy="70.45161290322581" fill="#555555" r="3.3125"><title>2025-12-07</title></circle><circle cx="182.58333333333334" cy="79.29032258064517" fill="#555555" r="3.3125"><title>2025-12-08</title></circle><circle cx="182.58333333333334" cy="88.12903225806451" fill="#555555" r="3.3125"><title>2025-12-09</title></circle><circle cx="182.58333333333334" cy="96.96774193548387" fill="#a49aa1" r="3.3125"><title>2025-12-10: 4 km</title></circle><circle cx="182.58333333333334" cy="105.80645161290322" fill="#555555" r="3.3125"><title>2025-12-11</title></circle><circle cx="182.58333333333334" cy="114.64516129032258" fill="#555555" r="3.3125"><title>2025-12-12</title></circle><circle cx="182.58333333333334" cy="123.48387096774194" fill="#a89da4" r="3.3125"><title>2025-12-13: 5 km</title></circle><circle cx="182.58333333333334" cy="132.32258064516128" fill="#E18ABF" r="3.3125"><title>2025-12-14: 17 km</title></circle><circle cx="182.58333333333334" cy="141.16129032258064" fill="#555555" r="3.3125"><title>2025-12-15</title></circle><circle cx="182.58333333333334" cy="149.99999999999997" fill="#a59ba1" r="3.3125"><title>2025-12-16: 5 km</title></circle><circle cx="182.58333333333334" cy="158.83870967741933" fill="#a59ba1" r="3.3125"><title>2025-12-17: 5 km</title></circle><circle cx="182.58333333333334" cy="167.6774193548387" fill="#a59ba1" r="3.3125"><title>2025-12-18: 5 km</title></circle><circle cx="182.58333333333334" cy="176.51612903225805" fill="#555555" r="3.3125"><title>2025-12-19</title></circle><circle cx="182.58333333333334" cy="185.35483870967738" fill="#E18ABF" r="3.3125"><title>2025-12-20: 16 km</title></circle><circle cx="182.58333333333334" cy="194.19354838709674" fill="#a59ba1" r="3.3125"><title>2025-12-21: 5 km</title></circle><circle cx="182.58333333333334" cy="203.0322580645161" fill="#555555" r="3.3125"><title>2025-12-22</title></circle><circle cx="182.58333333333334" cy="211.87096774193546" fill="#555555" r="3.3125"><title>2025-12-23</title></circle><circle cx="182.58333333333334" cy="220.70967741935482" fill="#a59ba1" r="3.3125"><title>2025-12-24: 5 km</title></circle><circle cx="182.58333333333334" cy="229.54838709677418" fill="#a59ba1" r="3.3125"><title>2025-12-25: 5 km</title></circle><circle cx="182.58333333333334" cy="238.3870967741935" fill="#555555" r="3.3125"><title>2025-12-26</title></circle><circle cx="182.58333333333334" cy="247.22580645161287" fill="#E18ABF" r="3.3125"><title>2025-12-27: 23 km</title></circle><circle cx="182.58333333333334" cy="256.06451612903226" fill="#a59ba1" r="3.3125"><title>2025-12-28: 5 km</title></circle><circle cx="182.58333333333334" cy="264.90322580645164" fill="#555555" r="3.3125"><title>2025-12-29</title></circle><circle cx="182.58333333333334" cy="273.741935483871" fill="#a59ba1" r="3.3125"><title>2025-12-30: 5 km</title></circle><circle cx="182.58333333333334" cy="282.5806451612903" fill="#555555" r="3.3125"><title>2025-12-31</title></circle></svg>