<?xml version="1.0" encoding="utf-8" ?>
<svg baseProfile="full" height="200mm" version="1.1" viewBox="0,0,200,200" width="200mm" xmlns="http://www.w3.org/2000/svg" xmlns:ev="http://www.w3.org/2001/xml-events" xmlns:xlink="http://www.w3.org/1999/xlink"><defs /><rect fill="#1a1a1a" height="200" width="200" x="0" y="0" /><rect fill="#1a1a1a" height="200" width="180" x="10" y="0" /><text alignment-baseline="middle" fill="#e1ed5e" style="dominant-baseline: central; font-size:9.0px; font-family:Arial;" text-anchor="middle" x="100.0" y="100.0">2025</text><line stroke="#e1ed5e" stroke-width="0.3" x1="100.0" x2="100.0" y1="15.0" y2="10.0" /><path d="M 100.0 14.0 a86.0,86.0 0 0,1 42.46469731375804,11.215312516191453" fill="none" id="id13" stroke="none" /><text fill="#e1ed5e" style="font-size:6.75px; font-family:Arial;" text-anchor="middle"><textPath startOffset="22.20632615414155" xlink:href="#id13">January</textPath></text><path d="M 100.0 79.0 l 0.0 -18.237194927033585 a39.237194927033585,39.237194927033585 0 0,0 0.6754038108349391,0.005813413832449382 l -0.31392333156241065 18.234492889809694" fill="#e6a0cd" stroke="none" /><path d="M 103.95276090670814 79.375362276772 l 1.2182433111535902 -6.356525867438161 a27.4722127490203,27.4722127490203 0 0,0 0.4636702383103943,0.0930078878219345 l -1.3274799589311097 6.334614023539017" fill="#f2d5e8" stroke="none" /><path d="M 106.0581310904928 79.89281104454417 l 2.0249044416448863 -6.720742026990966 a28.01916030527554,28.01916030527554 0 0,0 0.4606011419878254,0.1431110169070899 l -2.14029095634343 6.684890875201356" fill="#f1d3e6" stroke="none" /><path d="M 108.76106565485865 80.91482961587045 l 4.447813663954408 -9.68915026522524 a31.66127005808285,31.66127005808285 0 0,0 0.49334559147296914,0.23163237023871971 l -4.613937466726975 9.611152912346517" fill="#edc3de" stroke="none" /><line stroke="#e1ed5e" stroke-width="0.3" x1="143.23703022742887" x2="145.7803849466894" y1="26.81831364943548" y2="22.513508569990506" /><path d="M 143.74570117128098 25.957352633546492 a86.0,86.0 0 0,1 28.547481713284135,27.462654790039103" fill="none" id="id14" stroke="none" /><text fill="#e1ed5e" style="font-size:6.75px; font-family:Arial;" text-anchor="middle"><textPath startOffset="19.985693538727396" xlink:href="#id14">February</textPath></text><path d="M 110.99172775467656 82.1063720568725 l 3.310581543509016 -5.389354225019945 a27.324957637720814,27.324957637720814 0 0,0 0.39865922297318584,0.24964036885274157 l -3.4028599188544653 5.331569514844259" fill="#f2d6e8" stroke="none" /><path d="M 112.19680574252982 82.90503203632743 l 4.079173819260391 -5.717344953306146 a28.023367594169812,28.023367594169812 0 0,0 0.3902650049740201,0.2835441233058476 l -4.1769841405882 5.646281595183623" fill="#f1d3e6" stroke="none" /><path d="M 113.89432698308785 84.25364557470407 l 3.719007143145063 -4.214727684000067 a26.620937962746126,26.620937962746126 0 0,0 0.34098761008892847,0.3061420431187728 l -3.791005740829981 4.1500866321119965" fill="#f3d9ea" stroke="none" /><path d="M 114.68862486808459 84.99185889309783 l 3.9679066839842205 -4.054219094508129 a26.672827859108803,26.672827859108803 0 0,0 0.3253630288477788,0.32396581660187634 l -4.037105512999322 3.9853174272561347" fill="#f3d9ea" stroke="none" /><path d="M 114.94478906791727 85.2469230424477 l 7.2019167816571334 -7.109530421527877 a31.119932220353306,31.119932220353306 0 0,0 0.3730475738571419,0.3844583166672989 l -7.323228619217384 6.984507909310464" fill="#edc5df" stroke="none" /><path d="M 115.68641384162765 86.03803664274999 l 3.1469176720547094 -2.8009683837941735 a25.21289861279675,25.21289861279675 0 0,0 0.28575595298249573,0.32666845217020346 l -3.1946654886150534 2.746384375421022" fill="#f4dfed" stroke="none" /><path d="M 115.9244219780498 86.31012108654704 l 2.8394663297610476 -2.4410273909367923 a24.744487115901237,24.744487115901237 0 0,0 0.27488696280212055,0.32537946014638125 l -2.8810639060502856 2.3917889811613047" fill="#f5e1ee" stroke="none" /><path d="M 116.15771136456269 86.58626213691792 l 3.252257158365377 -2.6999445652509997 a25.226922909110982,25.226922909110982 0 0,0 0.274494758333526,0.33649811709133554 l -3.298250408775312 2.6435622785515633" fill="#f4dfed" stroke="none" /><path d="M 116.82858285166822 87.43820079747576 l 3.380548426862492 -2.5234311710594355 a25.218508331322443,25.218508331322443 0 0,0 0.2566732422400098,0.35010201396018203 l -3.4234842816161284 2.4648667134277598" fill="#f4dfed" stroke="none" /><path d="M 117.04232023915458 87.72973835380427 l 3.424622408039537 -2.4656861505000425 a25.219910760953866,25.219910760953866 0 0,0 0.2506227193087297,0.35448806288717244 l -3.4665577471521494 2.4063715872810767" fill="#f4dfed" stroke="none" /><path d="M 117.2510076193507 88.02491185347247 l 3.463101557972536 -2.4039724132159908 a25.215703472059595,25.215703472059595 0 0,0 0.24444287180301463,0.3586897517048056 l -3.503968895444284 2.3440046382407784" fill="#f4dfed" stroke="none" /><line stroke="#e1ed5e" stroke-width="0.3" x1="172.23445277983987" x2="176.4835382374775" y1="55.19839476539836" y2="52.563006222186495" /><path d="M 173.08426987136738 54.67131705675599 a86.0,86.0 0 0,1 12.851231095245387,41.99856678651699" fill="none" id="id15" stroke="none" /><text fill="#e1ed5e" style="font-size:6.75px; font-family:Arial;" text-anchor="middle"><textPath startOffset="22.20632615414155" xlink:href="#id15">March</textPath></text><path d="M 118.03404312379186 89.2402003453031 l 6.592644861607128 -3.933423992530892 a28.676899802413246,28.676899802413246 0 0,0 0.24927098214830098,0.42608491086749734 l -6.659375518225756 3.8193596693094993" fill="#f0d0e5" stroke="none" /><path d="M 119.196687751892 91.48605970444005 l 8.554787184756663 -3.7941413786376255 a30.358412930490246,30.358412930490246 0 0,0 0.20775171297826361,0.47951959704936925 l -8.618829607577606 3.6463226370016533" fill="#eec9e1" stroke="none" /><path d="M 119.85752413597 93.16781622104841 l 13.265302328129435 -4.564062607632201 a35.028503603131114,35.028503603131114 0 0,0 0.19126014372668176,0.5718434856921897 l -13.341899765627886 4.335046019017698" fill="#e9b4d6" stroke="none" /><path d="M 120.08093135843002 93.85539295169968 l 17.44172303268557 -5.33703005942254 a39.23999978629644,39.23999978629644 0 0,0 0.19207812263663507,0.6475919423810853 l -17.531007052433907 5.036008730294925" fill="#e6a0cd" stroke="none" /><path d="M 120.6074358757038 95.95851677861258 l 16.829712096154697 -3.300604668511061 a38.150311962680235,38.150311962680235 0 0,0 0.12083525632431957,0.6455067710467872 l -16.884033076388878 3.010419820001711" fill="#e6a5cf" stroke="none" /><path d="M 120.78858239683441 97.02765380044208 l 13.891436506182165 -1.986194042352694 a35.032710892025385,35.032710892025385 0 0,0 0.08021490016850956,0.5976941781125784 l -13.92356740540851 1.7467815221754515" fill="#e9b3d6" stroke="none" /><path d="M 120.83666639777658 97.38593545837742 l 13.77745761352685 -1.7284513143173241 a34.8854557807259,34.8854557807259 0 0,0 0.06962081605138719,0.5964686352124332 l -13.805168782581827 1.4910389407800382" fill="#eab4d7" stroke="none" /><path d="M 120.91429891909075 98.10471618934814 l 13.70029220160268 -1.2415401592637467 a34.756432254634916,34.756432254634916 0 0,0 0.048866742995755136,0.596298039469332 l -13.71963342841793 1.005528202586646" fill="#eab5d7" stroke="none" /><path d="M 120.94382443527127 98.46500227214037 l 5.603104446349501 -0.41065816898380125 a26.61813310348328,26.61813310348328 0 0,0 0.029558053930430157,0.4572500115994199 l -5.609343091284347 0.3141490931313461" fill="#f3d9ea" stroke="none" /><path d="M 120.96714384426684 98.82574320788733 l 7.456253609857496 -0.4175846033261151 a28.467937787331117,28.467937787331117 0 0,0 0.023189699836882648,0.4894979120167944 l -7.462336917927876 0.28917558468632093" fill="#f0d1e5" stroke="none" /><path d="M 120.98425023603335 99.18683210126433 l 13.783952286335886 -0.5341466762393715 a34.79429785468336,34.79429785468336 0 0,0 0.018040521249670757,0.5986770721087338 l -13.791104502041202 0.29679945670563873" fill="#eab5d7" stroke="none" /><line stroke="#e1ed5e" stroke-width="0.3" x1="184.98032266829074" x2="189.97916517819016" y1="98.17113171792111" y2="98.06355123074" /><path d="M 185.9800911702706 98.14961562048488 a86.0,86.0 0 0,1 -9.607161424134198,41.387399972396054" fill="none" id="id16" stroke="none" /><text fill="#e1ed5e" style="font-size:6.75px; font-family:Arial;" text-anchor="middle"><textPath startOffset="21.466115282336823" xlink:href="#id16">April</textPath></text><path d="M 120.99513854157772 99.54816195383933 l 13.833167651193424 -0.29770470108355346 a34.83637074362607,34.83637074362607 0 0,0 0.0077419568716726225,0.5996230916468619 l -13.836242615182812 0.05954535137622886" fill="#eab4d7" stroke="none" /><path d="M 120.99980553446 99.90962569577887 l 13.749292783220382 -0.059171155979378436 a34.7494201064778,34.7494201064778 0 0,0 -0.0025742746213260003,0.5981707622100014 l -13.748274211309552 -0.17750908443430768" fill="#eab5d7" stroke="none" /><path d="M 120.95626037817324 101.35467743843564 l 17.09359799281207 1.1049830038697874 a38.12927551820888,38.12927551820888 0 0,0 -0.04797650832508085,0.6546013385823968 l -17.072044925822656 -1.3990574789489545" fill="#e6a5cf" stroke="none" /><path d="M 120.92983693683757 101.71520430193887 l 13.67412931957778 1.1205976188437548 a34.7199690842179,34.7199690842179 0 0,0 -0.05394061945809866,0.5952302409207947 l -13.652814103842607 -1.3558092483131199" fill="#eab5d7" stroke="none" /><path d="M 120.89721153311464 102.0752229133903 l 13.630485061047816 1.3535918356612744 a34.697530210115126,34.697530210115126 0 0,0 -0.06413706030259013,0.5938295228109021 l -13.605165699244173 -1.5880176803569677" fill="#eab5d7" stroke="none" /><path d="M 120.8583938346157 102.4346265915055 l 12.309700960808922 1.4368088708215954 a33.3932706528911,33.3932706528911 0 0,0 -0.07155460860436276,0.5703606337841813 l -12.28314484295771 -1.6484872588931716" fill="#ebbbda" stroke="none" /><path d="M 120.81339534386255 102.79330883721812 l 13.582764671877646 1.8229056799710393 a34.70454235827224,34.70454235827224 0 0,0 -0.08455670684740739,0.5913894107502574 l -13.549373914013637 -2.056440562701706" fill="#eab5d7" stroke="none" /><path d="M 120.76222939487914 103.15116336523771 l 6.941073046822787 1.053473337790088 a28.020562734906964,28.020562734906964 0 0,0 -0.07648045227496786,0.4762438493225176 l -6.921910840186531 -1.1727964168058107" fill="#f1d3e6" stroke="none" /><path d="M 120.64145759157962 103.86396538481128 l 15.171609454040286 2.8400404139192887 a36.435140523449064,36.435140523449064 0 0,0 -0.12070453182178323,0.6154698072878099 l -15.12047498924284 -3.1007739482750436" fill="#e8add3" stroke="none" /><path d="M 120.5718875245553 104.21870165774334 l 13.20122153113161 2.7071903388129117 a34.47594632835018,34.47594632835018 0 0,0 -0.12422169618186303,0.5803224090296027 l -13.152665796225303 -2.9340265672586834" fill="#eab6d8" stroke="none" /><path d="M 120.49622156327973 104.57218783832717 l 12.874802214517137 2.872042240777934 a34.19125311317117,34.19125311317117 0 0,0 -0.133084460933135,0.5733243745560012 l -12.82345718765345 -3.0932352726825" fill="#eab7d8" stroke="none" /><path d="M 120.41448212921028 104.9243191809786 l 13.0988493152216 3.1596645226380464 a34.47454389871876,34.47454389871876 0 0,0 -0.14411785234027372,0.5756791807025251 l -13.042520148586265 -3.3846715427379674" fill="#eab6d8" stroke="none" /><path d="M 120.02730092923936 106.31721596034902 l 28.897387376696084 9.115109289736234 a51.30089461654012,51.30089461654012 0 0,0 -0.2728908313555443,0.8398716191090331 l -28.736204294324292 -9.611179808823062" fill="#dd65b2" stroke="none" /><path d="M 119.67450827220406 107.3425965602758 l 12.898656052233646 4.813824378783385 a34.76765169168631,34.76765169168631 0 0,0 -0.2140788689921682,0.5588923736984323 l -12.81388290364797 -5.035140319314961" fill="#eab5d7" stroke="none" /><path d="M 119.54520255179757 107.68017299344265 l 12.798219605813216 5.028985518068982 a34.750822536109226,34.750822536109226 0 0,0 -0.22355929890636417,0.5548558459209345 l -12.709757692649461 -5.24854073183273" fill="#eab5d7" stroke="none" /><path d="M 119.41010516605496 108.01547362559984 l 13.124558555642606 5.419834259031758 a35.1996000181648,35.1996000181648 0 0,0 -0.23608710118960463,0.5580401682099446 l -13.029320473260693 -5.644948952907865" fill="#e9b3d6" stroke="none" /><path d="M 119.26925614724726 108.34839909993367 l 6.775246646095562 2.935373455512091 a28.3837920094457,28.3837920094457 0 0,0 -0.19809036991035836,0.4466414898174709 l -6.723715191453931 -3.0515632818222493" fill="#f1d1e6" stroke="none" /><path d="M 119.12269723197855 108.67885076344098 l 12.898295049132896 5.853901072441542 a35.16453927737921,35.16453927737921 0 0,0 -0.25490168881665953,0.5490355605922864 l -12.795618743476405 -6.0750567003126585" fill="#e9b3d6" stroke="none" /><path d="M 118.97047184881838 109.00673069616215 l 12.321800782084308 5.8500991551723684 a34.640030595226754,34.640030595226754 0 0,0 -0.26037219143920015,0.5364438340604045 l -12.219275334030394 -6.061331945198048" fill="#eab5d7" stroke="none" /><path d="M 118.81262510543309 109.33194174019688 l 12.694176226099431 6.296904994271135 a35.1701489959049,35.1701489959049 0 0,0 -0.27369297774885204,0.5400222103580119 l -12.58390457856431 -6.514481416331841" fill="#e9b3d6" stroke="none" /><line stroke="#e1ed5e" stroke-width="0.3" x1="174.80103733775053" x2="179.2010983576182" y1="140.37084112569926" y2="142.7455964860345" /><path d="M 175.68104954172406 140.8457921977663 a86.0,86.0 0 0,1 -30.038265399797805,32.042727171017184" fill="none" id="id17" stroke="none" /><text fill="#e1ed5e" style="font-size:6.75px; font-family:Arial;" text-anchor="middle"><textPath startOffset="22.206326154141568" xlink:href="#id17">May</textPath></text><path d="M 117.35343817320211 111.8261652097733 l 11.70840321569507 7.979139890864679 a35.168746566273484,35.168746566273484 0 0,0 -0.3452215958769692,0.4973174567040554 l -11.569320712655964 -8.179498609755754" fill="#e9b3d6" stroke="none" /><path d="M 117.14729908036423 112.12312394758627 l 11.575046398448626 8.183546664100875 a35.1757587144306,35.1757587144306 0 0,0 -0.3538014790003681,0.49139930997968845 l -11.432465127072655 -8.381579579531696" fill="#e9b3d6" stroke="none" /><path d="M 116.498646956653 112.99209946851258 l 23.416951485489943 18.440018975382532 a50.80583695664756,50.80583695664756 0 0,0 -0.5469661761409308,0.6824244046300844 l -23.09606739729416 -18.840371213590867" fill="#de68b3" stroke="none" /><path d="M 116.27256486870786 113.27417163493432 l 10.82590803236458 8.83111927868029 a34.97100398824274,34.97100398824274 0 0,0 -0.3845211766011475,0.4631805279409122 l -10.672290855869889 -9.016161063734973" fill="#e9b4d6" stroke="none" /><path d="M 116.0416608686014 113.55231037782055 l 10.71942805700001 9.05598349766434 a35.032710892025385,35.032710892025385 0 0,0 -0.39312955865462607,0.4572984920932159 l -10.561955988774606 -9.239159088919083" fill="#e9b3d6" stroke="none" /><path d="M 115.80600337817218 113.82643327865902 l 10.671734463972742 9.335188725661794 a35.178563573693445,35.178563573693445 0 0,0 -0.40261221128669267,0.45233908744334683 l -10.50946340303771 -9.517501982846007" fill="#e9b3d6" stroke="none" /><path d="M 115.56566222782051 114.09645910891815 l 10.506344867903278 9.514677798281364 a35.174356284799174,35.174356284799174 0 0,0 -0.41028975801903855,0.44528849911831636 l -10.341008701888518 -9.694117552201016" fill="#e9b3d6" stroke="none" /><path d="M 115.32070863581623 114.36230785411682 l 10.335892936230119 9.689321807889055 a35.16734413664206,35.16734413664206 0 0,0 -0.41781056988064663,0.43807271213521226 l -10.167575814970508 -9.865801636606774" fill="#e9b3d6" stroke="none" /><path d="M 114.55890576462653 115.13401014063108 l 9.731531858180102 10.115945813964135 a35.036918180919656,35.036918180919656 0 0,0 -0.43823537521470496,0.4143789005384542 l -9.55596064857459 -10.28195935124851" fill="#e9b3d6" stroke="none" /><path d="M 114.29624159901734 115.38237550388516 l 9.65143432874818 10.384686490335818 a35.177161144062026,35.177161144062026 0 0,0 -0.4470857218012801,0.4084022065653197 l -9.471249057480037 -10.549281463487722" fill="#e9b3d6" stroke="none" /><path d="M 114.0293411484842 115.62618273729858 l 9.46937523236232 10.547194356659448 a35.174356284799174,35.174356284799174 0 0,0 -0.45401325012300203,0.4006139060181149 l -9.28641962933273 -10.708631404449852" fill="#e9b3d6" stroke="none" /><path d="M 113.75828350139079 115.86535959552629 l 9.380138319566427 10.816703077869654 a35.317404107204396,35.317404107204396 0 0,0 -0.46271605464626264,0.3943366601799692 l -9.192556788343119 -10.97656412827257" fill="#e9b2d6" stroke="none" /><path d="M 113.48314897796784 116.09983520530334 l 9.105214442523808 10.872271178870816 a35.18136843295629,35.18136843295629 0 0,0 -0.4676271832529977,0.38482533592066864 l -8.91671713072612 -11.027391633648662" fill="#e9b3d6" stroke="none" /><path d="M 113.20401910651253 116.32954008644616 l 8.822365001277179 10.910705428664448 a35.03130846239396,35.03130846239396 0 0,0 -0.47215949431370774,0.37511205815322085 l -8.63324801424612 -11.060951400822795" fill="#e9b4d6" stroke="none" /><path d="M 112.92097659922987 116.55440617244103 l 5.1834003819666625 6.64099300996927 a29.424394795962073,29.424394795962073 0 0,0 -0.40195302611557454,0.30820044026909926 l -5.068318627357595 -6.729232792065741" fill="#efcde3" stroke="none" /><path d="M 112.63410532772338 116.77436683061366 l 8.53016502789833 11.325544119824308 a35.178563573693445,35.178563573693445 0 0,0 -0.48682949017149224,0.360144818379507 l -8.333950567308273 -11.470698886943584" fill="#e9b3d6" stroke="none" /><path d="M 112.34349029814194 116.9893568818739 l 8.333126239853547 11.46956429753835 a35.177161144062026,35.177161144062026 0 0,0 -0.49293700993112005,0.3516974682964948 l -8.134461902073543 -11.611306027679065" fill="#e9b3d6" stroke="none" /><path d="M 112.04921762599082 117.19931262002967 l 8.130438525922548 11.605562973950859 a35.1701489959049,35.1701489959049 0 0,0 -0.4988184164389376,0.34309185529586217 l -7.9294632248607275 -11.743795618611815" fill="#e9b3d6" stroke="none" /><path d="M 111.7513745106137 117.40417183066458 l 5.349876366179294 7.923342709033724 a30.560362797415255,30.560362797415255 0 0,0 -0.43850526316891164,0.2906173774671942 l -5.212696404270418 -8.014258107592237" fill="#eec8e1" stroke="none" /><path d="M 111.1453310114006 117.79835938074945 l 7.504893316595966 11.984820210931874 a35.140697973645004,35.140697973645004 0 0,0 -0.515431709751392,0.31662025430067986 l -7.297482406912266 -12.112228932060932" fill="#e9b3d6" stroke="none" /><line stroke="#e1ed5e" stroke-width="0.3" x1="143.8653032363475" x2="146.44561519142675" y1="172.8068346515853" y2="177.08958963109032" /><path d="M 144.38136562736335 173.6633856474863 a86.0,86.0 0 0,1 -40.68145358897372,12.25698825130547" fill="none" id="id18" stroke="none" /><text fill="#e1ed5e" style="font-size:6.75px; font-family:Arial;" text-anchor="middle"><textPath startOffset="21.466115282336833" xlink:href="#id18">June</textPath></text><path d="M 110.8373102113329 117.98757091392108 l 7.241030594183996 12.018531237257724 a35.03130846239396,35.03130846239396 0 0,0 -0.519184224448206,0.3067431911658598 l -7.0330784987074075 -12.141393000717335" fill="#e9b4d6" stroke="none" /><path d="M 109.89434966115114 118.52300852407294 l 6.675078888466473 12.496277914595021 a35.16734413664206,35.16734413664206 0 0,0 -0.5364009648070455,0.28061963291181985 l -6.458987021132931 -12.609326966451558" fill="#e9b3d6" stroke="none" /><path d="M 109.57404056367764 118.69057910512821 l 6.398885577855709 12.491996068129794 a35.03551575128823,35.03551575128823 0 0,0 -0.5391233336832326,0.27032763152558986 l -6.1829083364897155 -12.600291540564685" fill="#e9b3d6" stroke="none" /><path d="M 109.2508944713604 118.85261126421891 l 6.180437150104231 12.59525545281866 a35.02990603276254,35.02990603276254 0 0,0 -0.5436096484390255,0.26096566635466484 l -5.962714833664972 -12.699775395672885" fill="#e9b4d6" stroke="none" /><path d="M 108.92500713936063 119.00905698771935 l 6.559343936873551 13.97051461709117 a36.433738093817645,36.433738093817645 0 0,0 -0.56998328560223,0.2616513705052227 l -6.3178926555039014 -14.081353057930468" fill="#e8add3" stroke="none" /><path d="M 108.59647513512805 119.15986991738527 l 3.453168952553927 7.696441494180078 a29.43561423301346,29.43561423301346 0 0,0 -0.464072538157177,0.2034357628933581 l -3.320175739738996 -7.754741810367891" fill="#efcde3" stroke="none" /><path d="M 108.2653958097858 119.30500536409082 l 7.631712348733395 17.824947675834828 a40.38999208406386,40.38999208406386 0 0,0 -0.6414864338431866,0.26814138137254223 l -7.323754455392748 -17.953674100227342" fill="#e59bca" stroke="none" /><path d="M 107.93186726928326 119.44442032107085 l 5.355886105777236 13.129581862244946 a35.17996600332487,35.17996600332487 0 0,0 -0.5626766250514517,0.2239006414300755 l -5.129088404683918 -13.21982934808109" fill="#e9b3d6" stroke="none" /><path d="M 107.59598834532513 119.57807347666477 l 8.54408426467127 22.02171750664917 a44.62112228206911,44.62112228206911 0 0,0 -0.7184633441268957,0.27166136028421617 l -8.1637506997841 -22.165527117040018" fill="#e186c1" stroke="none" /><path d="M 107.2578585660854 119.70592522655815 l 5.788250956291736 15.71577063656664 a37.747814658461635,37.747814658461635 0 0,0 -0.6116591884404124,0.21931922318317817 l -5.516872207221589 -15.813077400789778" fill="#e7a7d0" stroke="none" /><path d="M 106.91757812671514 119.82793768551818 l 2.594897939035644 7.437787285231634 a28.877447239706832,28.877447239706832 0 0,0 -0.4707440107457132,0.159701927067933 l -2.4664841953527037 -7.48135219919769" fill="#f0cfe4" stroke="none" /><path d="M 106.57524785965236 119.94407469862006 l 7.286162053318039 22.100423186983672 a44.27051487421319,44.27051487421319 0 0,0 -0.7257806339536016,0.23237203959493516 l -6.9046600742734965 -22.222568073238314" fill="#e288c2" stroke="none" /><path d="M 106.2309692047433 120.05430185196036 l 4.580132794486397 14.741104082615488 a36.436248442857895,36.436248442857895 0 0,0 -0.6005474963612258,0.18094003428740557 l -4.325710323684926 -14.817759486008619" fill="#e8add3" stroke="none" /><path d="M 105.88484417918355 120.15858648285463 l 4.1705563524828255 14.286278166979063 a35.88258324866814,35.88258324866814 0 0,0 -0.5944015390525441,0.16798381225274328 l -3.9240236453256756 -14.355950772570326" fill="#e9b0d4" stroke="none" /><path d="M 105.53697534728816 120.25689768951611 l 5.0684689131623655 18.542877613986185 a40.22310295792444,40.22310295792444 0 0,0 -0.6694456620748438,0.17680668385090598 l -4.748532808276024 -18.627375647140674" fill="#e59bcb" stroke="none" /><path d="M 105.18746579009965 120.34920634021253 l 3.719632068465724 14.591240411712954 a36.0578869525961,36.0578869525961 0 0,0 -0.6027620368480707,0.14814424352975947 l -3.4679167468744425 -14.653105913556745" fill="#e8afd4" stroke="none" /><path d="M 104.83641907484287 120.43548508189849 l 1.8998124527442921 8.027341807165945 a29.24909109203411,29.24909109203411 0 0,0 -0.4909388218340358,0.11173607748984904 l -1.7613534815173943 -8.058854618233479" fill="#f0cde4" stroke="none" /><path d="M 104.48393922423573 120.51570834832081 l 3.027419873876378 13.851584527429523 a35.178563573693445,35.178563573693445 0 0,0 -0.5926893412867712,0.12420381407716777 l -2.788539071160229 -13.901644322233233" fill="#e9b3d6" stroke="none" /><path d="M 104.13013068566511 120.58985236759428 l 6.137993741853949 30.5996092125202 a52.209150118739046,52.209150118739046 0 0,0 -0.8826637670399956,0.1691646117106863 l -5.610362360242249 -30.700731022579355" fill="#dd61b0" stroke="none" /><path d="M 103.7750983002368 120.6578951692458 l 2.6337930296068897 14.412504251795616 a35.65118235948323,35.65118235948323 0 0,0 -0.6046288221698791,0.10512247090981097 l -2.3853152359649603 -14.455705301226434" fill="#e9b1d5" stroke="none" /><path d="M 103.41894727170886 120.7198165907248 l 2.8186768055889186 17.08200267480045 a38.31299379992538,38.31299379992538 0 0,0 -0.651620349672504,0.10176969736950857 l -2.5242205923078975 -17.127990679517065" fill="#e6a4cf" stroke="none" /><path d="M 103.06178313531738 120.77559828337769 l 2.177434190966934 14.774886411192973 a35.934473145030815,35.934473145030815 0 0,0 -0.6127194011428663,0.08491732588650278 l -1.9227861986372377 -14.810178302572078" fill="#e9afd4" stroke="none" /><path d="M 102.70371172650421 120.8252237178851 l 1.8848685442364659 14.518119194342185 a35.63996292243184,35.63996292243184 0 0,0 -0.6090573969679226,0.07374836881154155 l -1.634683724217163 -14.548413091879079" fill="#e9b1d5" stroke="none" /><path d="M 102.34483914955558 120.86867818915974 l 1.583164331050437 14.089899066854818 a35.178563573693445,35.178563573693445 0 0,0 -0.6023364171113182,0.06243463243860987 l -1.3403953173335161 -14.115063067749185" fill="#e9b3d6" stroke="none" /><path d="M 101.98527174616119 120.90594882070398 l 1.7472868335448482 18.399843340243972 a39.482620112532736,39.482620112532736 0 0,0 -0.6771376182847979,0.05842628295211606 l -1.4303048975185084 -18.427193875474753" fill="#e59fcc" stroke="none" /><path d="M 101.62511606390274 120.93702456842531 l 0.5037920429684283 6.490555730325046 a27.510078349068742,27.510078349068742 0 0,0 -0.4724361288839749,0.032581961477525734 l -0.391993153305523 -6.498266036318857" fill="#f2d5e8" stroke="none" /><path d="M 101.26447882468166 120.96189622390904 l 0.6758124097165229 11.203279424528178 a32.22364434028374,32.22364434028374 0 0,0 -0.5539580993353752,0.02863330620075114 l -0.48286624196766814 -11.21325253749113" fill="#ecc0dd" stroke="none" /><path d="M 100.90346689309514 120.98055641714683 l 0.6023308376312924 13.987492200646509 a35.00045501050264,35.00045501050264 0 0,0 -0.6021405751153118,0.020738938898767625 l -0.3614699108413283 -13.99578793797137" fill="#e9b4d6" stroke="none" /><line stroke="#e1ed5e" stroke-width="0.3" x1="102.19456741930631" x2="102.32365962044197" y1="184.97166512339345" y2="189.96999836594603" /><path d="M 102.22038585953345 185.97133177190398 a86.0,86.0 0 0,1 -42.740103519485714,-10.115201625700543" fill="none" id="id19" stroke="none" /><text fill="#e1ed5e" style="font-size:6.75px; font-family:Arial;" text-anchor="middle"><textPath startOffset="22.20632615414155" xlink:href="#id19">July</textPath></text><path d="M 100.54218724476979 120.99299961872073 l 0.40481153993850044 15.673936606883691 a36.67916327931679,36.67916327931679 0 0,0 -0.6313013404835108,0.010868425089855305 l -0.13495050956232169 -15.678582509252706" fill="#e8acd3" stroke="none" /><path d="M 100.18074693466247 120.99922214144158 l 0.117701468581592 13.674584798544108 a34.67509133601234,34.67509133601234 0 0,0 -0.5968968064880855,0.0 l 0.11770146858158259 -13.674584798544108" fill="#eab5d7" stroke="none" /><path d="M 99.81925306533755 120.99922214144158 l -0.17876717769390196 20.769213502865167 a41.76998284138476,41.76998284138476 0 0,0 -0.7189216929222879,-0.012376888918077514 l 0.5362485605088578 -20.763059136667927" fill="#e394c7" stroke="none" /><path d="M 99.45781275523022 120.99299961872073 l -0.3552420409961111 13.75465045171162 a34.75923711389777,34.75923711389777 0 0,0 -0.5979907124079372,-0.020596009236353907 l 0.5919531050786914 -13.746497644049173" fill="#eab5d7" stroke="none" /><path d="M 99.09653310690486 120.98055641714683 l -0.6036582220275513 14.018317085792676 a35.03130846239396,35.03130846239396 0 0,0 -0.6022247778100825,-0.031128142156246826 l 0.8448710682511228 -14.005849136874227" fill="#e9b4d6" stroke="none" /><path d="M 98.73552117531835 120.96189622390904 l -0.8337800771362698 13.821988244756577 a34.84711335460277,34.84711335460277 0 0,0 -0.5984365121441724,-0.04127168561703041 l 1.0715793500593722 -13.80558821462326" fill="#eab4d7" stroke="none" /><path d="M 98.37488393609728 120.93702456842531 l -1.0963608828235711 14.124858678962434 a35.16734413664206,35.16734413664206 0 0,0 -0.6031294676547768,-0.05204054830570067 l 1.3393346682198897 -14.10389387837807" fill="#e9b3d6" stroke="none" /><path d="M 98.01472825383883 120.90594882070398 l -1.3268720411348895 13.972655903267443 a35.03551575128823,35.03551575128823 0 0,0 -0.599887115489264,-0.06218075231088832 l 1.567191753229747 -13.947745782500794" fill="#e9b3d6" stroke="none" /><path d="M 97.65516085044442 120.86867818915974 l -1.544015855999731 13.741484154222407 a34.82795616583753,34.82795616583753 0 0,0 -0.5951808751946366,-0.07206811527443835 l 1.7803241542457569 -13.71287051022262" fill="#eab4d7" stroke="none" /><path d="M 97.2962882734958 120.8252237178851 l -1.7765323888056794 13.68366459939963 a34.79850514357763,34.79850514357763 0 0,0 -0.5933499886358642,-0.08223290180751729 l 2.0118109686283745 -13.651057132099508" fill="#eab5d7" stroke="none" /><path d="M 96.93821686468263 120.77559828337769 l -2.0522966452000198 13.925770955877908 a35.076186210599516,35.076186210599516 0 0,0 -0.5965693217055056,-0.09317185898263566 l 2.2917018305140426 -13.888380789548167" fill="#e9b3d6" stroke="none" /><path d="M 96.58105272829116 120.7198165907248 l -1.9784394103222258 11.98991925290773 a33.152052756286224,33.152052756286224 0 0,0 -0.5622446517602,-0.0977534396007542 l 2.1845330335544757 -11.95408723478597" fill="#ebbcdb" stroke="none" /><path d="M 95.86986931433489 120.58985236759428 l -2.7866083319418165 13.892019049210921 a35.168746566273484,35.168746566273484 0 0,0 -0.5925239440939759,-0.12416915348729379 l 3.025323737465179 -13.841993914997087" fill="#e9b3d6" stroke="none" /><path d="M 95.16358092515715 120.4354850818985 l -3.2211542997651765 13.610452200419243 a34.9864307141884,34.9864307141884 0 0,0 -0.5848510276559566,-0.14374215324302617 l 3.4549586121643436 -13.552988788862185" fill="#e9b4d6" stroke="none" /><path d="M 94.81253420990036 120.34920634021253 l -3.4747051920192895 13.630449970148176 a35.066369203179555,35.066369203179555 0 0,0 -0.5836205320196246,-0.15413948695085447 l 3.7088161668504034 -13.56861913389374" fill="#e9b3d6" stroke="none" /><path d="M 92.7421414339146 119.70592522655815 l -4.850362361380954 13.169294654172027 a35.034113321656804,35.034113321656804 0 0,0 -0.5640989049195736,-0.21329393781601597 l 5.076331487060811 -13.083852466249379" fill="#e9b3d6" stroke="none" /><path d="M 92.06813273071674 119.44442032107085 l -5.158834416394467 12.646523366274703 a34.65826218043526,34.65826218043526 0 0,0 -0.5504533143521367,-0.2300895300422796 l 5.375759190244066 -12.555848793212451" fill="#eab5d7" stroke="none" /><path d="M 91.07499286063937 119.00905698771935 l -5.792845408675517 12.337976516447895 a34.630213587806786,34.630213587806786 0 0,0 -0.5374070434624818,-0.2579880390342437 l 6.0043651201382415 -12.236434200914088" fill="#eab5d7" stroke="none" /><path d="M 90.10565033884886 118.52300852407294 l -5.311253623588741 9.943088683183008 a32.27272937738357,32.27272937738357 0 0,0 -0.4877441953865865,-0.2659570243801647 l 5.4816206308439686 -9.850191007043078" fill="#ecc0dd" stroke="none" /><line stroke="#e1ed5e" stroke-width="0.3" x1="58.666819895761336" x2="56.23545636021788" y1="174.27360380694188" y2="178.64263932499728" /><path d="M 58.180547188652646 175.14741091055294 a86.0,86.0 0 0,1 -31.652253787137756,-30.449443065178592" fill="none" id="id20" stroke="none" /><text fill="#e1ed5e" style="font-size:6.75px; font-family:Arial;" text-anchor="middle"><textPath startOffset="22.20632615414155" xlink:href="#id20">August</textPath></text><path d="M 89.7882731507175 118.34994917583269 l -6.828498056312598 12.270460631192131 a35.042527899445346,35.042527899445346 0 0,0 -0.5245553264470781,-0.2978562044097257 l 7.038702149680883 -12.151101260987772" fill="#e9b3d6" stroke="none" /><path d="M 88.8546689885994 117.79835938074946 l -7.839089200673283 12.518509021276857 a35.77038887815424,35.77038887815424 0 0,0 -0.5190423066205682,-0.3312773577220224 l 8.053413309340774 -12.381717234731031" fill="#e9b0d5" stroke="none" /><path d="M 88.54995079064634 117.60387380957326 l -7.39121658261374 11.363623128646992 a34.55588481734133,34.55588481734133 0 0,0 -0.49583630489964553,-0.328613265760168 l 7.5857275862533475 -11.234711841795505" fill="#eab6d7" stroke="none" /><path d="M 88.24862548938628 117.40417183066458 l -7.625751598967907 11.293988719917955 a34.62740872854394,34.62740872854394 0 0,0 -0.49112072824505,-0.33779731516483424 l 7.819029211835848 -11.16105061538802" fill="#eab5d7" stroke="none" /><path d="M 87.95078237400918 117.19931262002967 l -8.085376713031447 11.541240772194996 a35.091612936545175,35.091612936545175 0 0,0 -0.49173822423474844,-0.3508421665318708 l 8.282842265115082 -11.400354343818906" fill="#e9b3d6" stroke="none" /><path d="M 87.65650970185807 116.9893568818739 l -8.695830319934219 11.968783635842524 a35.794230181888445,35.794230181888445 0 0,0 -0.49534958395972517,-0.3664477800773708 l 8.900564874312508 -11.817325907025385" fill="#e9b0d5" stroke="none" /><path d="M 87.07902340077011 116.55440617244103 l -6.457048231440682 8.272795657309844 a31.494408980536058,31.494408980536058 0 0,0 -0.4244884039636133,-0.33723926086546696 l 6.598494128121653 -8.160422482439246" fill="#edc3de" stroke="none" /><path d="M 86.79598089348748 116.32954008644616 l -8.928180473556363 11.04156846229161 a35.1996000181648,35.1996000181648 0 0,0 -0.46786951563565293,-0.38502475897368216 l 9.116920117736704 -10.886248584460747" fill="#e9b3d6" stroke="none" /><path d="M 86.51685102203217 116.09983520530335 l -3.4288624008238395 4.09430465280262 a26.34045203646139,26.34045203646139 0 0,0 -0.3451032246569859,-0.29410445490725634 l 3.498831102057882 -4.034675807672412" fill="#f3daea" stroke="none" /><path d="M 86.24171649860922 115.8653595955263 l -9.24599195903584 10.662012251209951 a35.11264938101654,35.11264938101654 0 0,0 -0.45321676783020487,-0.39991110300012966 l 9.428151079772633 -10.501278006437532" fill="#e9b3d6" stroke="none" /><path d="M 85.97065885151581 115.62618273729859 l -9.952822112732253 11.085667918352966 a35.8980099746138,35.8980099746138 0 0,0 -0.45624738264132236,-0.41677116652181384 l 10.14216904484043 -10.912703985244576" fill="#e9b0d4" stroke="none" /><path d="M 85.44109423537348 115.13401014063109 l -4.754440082575747 4.942249478497817 a27.857880897661815,27.857880897661815 0 0,0 -0.3427183265057325,-0.33542201513186204 l 4.838808361457274 -4.859677360443385" fill="#f1d4e7" stroke="none" /><path d="M 85.18274418774928 114.88116024355367 l -6.443966765435659 6.471758553381962 a30.13281809997943,30.13281809997943 0 0,0 -0.3644053166660043,-0.3691406618748188 l 6.554412707157197 -6.359877397526478" fill="#efcae2" stroke="none" /><path d="M 84.9287848128048 114.62390073753433 l -10.074978608973941 9.775952720494347 a35.03832061055108,35.03832061055108 0 0,0 -0.4162776877626734,-0.4364654913628987 l 10.241762848115572 -9.601080112548948" fill="#e9b3d6" stroke="none" /><path d="M 84.67929136418377 114.36230785411682 l -3.074575160698031 2.8822423314894694 a25.214301042428172,25.214301042428172 0 0,0 -0.2941111242961817,-0.31919953777098525 l 3.123732692989942 -2.82889153891714" fill="#f4dfed" stroke="none" /><path d="M 84.43433777217949 114.09645910891817 l -6.798406593062965 6.156722350921161 a30.171889789510892,30.171889789510892 0 0,0 -0.34531174763307637,-0.3879614090904677 l 6.90337719034438 -6.0387867720898285" fill="#eec9e1" stroke="none" /><path d="M 84.19399662182784 113.82643327865904 l -7.726715754330407 6.759009047660175 a31.265784902021366,31.265784902021366 0 0,0 -0.35085792411000905,-0.4081270311587488 l 7.8419161880111945 -6.625004917339896" fill="#edc5df" stroke="none" /><path d="M 83.95833913139862 113.55231037782056 l -24.741674093185598 20.902252536334007 a53.38911233772998,53.38911233772998 0 0,0 -0.5870361714721525,-0.7071228852108763 l 25.097806264551284 -20.473268394009366" fill="#dc5bad" stroke="none" /><path d="M 83.06392112726016 112.41649034213515 l -22.082765507545876 16.189724121645003 a48.381667217250154,48.381667217250154 0 0,0 -0.4866278949924687,-0.6758835844660734 l 22.358173194913952 -15.80720693172779" fill="#df74b8" stroke="none" /><path d="M 82.85270091963577 112.12312394758628 l -15.368897256039071 10.865795569288148 a39.82202210763358,39.82202210763358 0 0,0 -0.39089883391604935,-0.5631189248687499 l 15.553656997117255 -10.599635382232385" fill="#e59dcb" stroke="none" /><path d="M 82.24976979558568 111.22182372390057 l -25.843928094663834 16.33871798120988 a51.575518386965506,51.575518386965506 0 0,0 -0.4679504752463066,-0.7544851647720988 l 26.121343209578097 -15.891436485072516" fill="#dd64b1" stroke="none" /><line stroke="#e1ed5e" stroke-width="0.3" x1="26.63291911575756" x2="22.317208475507996" y1="142.92168965132927" y2="145.44649492493687" /><path d="M 25.769776987707644 143.4266507060508 a86.0,86.0 0 0,1 -11.730757126820373,-40.83630448921669" fill="none" id="id21" stroke="none" /><text fill="#e1ed5e" style="font-size:6.75px; font-family:Arial;" text-anchor="middle"><textPath startOffset="21.46611528233685" xlink:href="#id21">September</textPath></text><path d="M 81.87401531095188 110.60418214915194 l -12.147752002084449 7.1067573509902005 a35.07387220170767,35.07387220170767 0 0,0 -0.30037932869922623,-0.5237366786360731 l 12.268283326936052 -6.8966008264958205" fill="#e9b3d6" stroke="none" /><path d="M 81.69416730710424 110.29060199501025 l -11.963597964335616 6.72532231364001 a34.724344664667946,34.724344664667946 0 0,0 -0.28841642265973605,-0.5235595833404356 l 12.077590796446868 -6.518392211901752" fill="#eab5d7" stroke="none" /><path d="M 81.51974371655577 109.97397251340807 l -12.1059640242849 6.5337055165568785 a34.75658652189438,34.75658652189438 0 0,0 -0.2796208626447041,-0.5289372942503507 l 12.216637395154489 -6.324353207220401" fill="#eab5d7" stroke="none" /><path d="M 81.35079622478065 109.6543875284942 l -11.956203875120485 6.189531036894871 a34.46332446166737,34.46332446166737 0 0,0 -0.26819249176729404,-0.5291692296851654 l 12.060975036674044 -5.982807595507021" fill="#eab6d8" stroke="none" /><path d="M 80.87730276802145 108.67885076344099 l -47.441729843781985 21.531465372213486 a73.09915288798103,73.09915288798103 0 0,0 -0.5101586930630871,-1.1502731748956232 l 47.805329621576355 -20.711643860825166" fill="#b11879" stroke="none" /><path d="M 80.73074385275274 108.34839909993369 l -8.156316010867194 3.5337213187456555 a29.888907538482222,29.888907538482222 0 0,0 -0.2004677761918615,-0.47384660569378645 l 8.215934768251362 -3.3928001873857103" fill="#efcbe2" stroke="none" /><path d="M 80.58989483394504 108.01547362559985 l -8.196970591296393 3.3849688614390794 a29.868389992974492,29.868389992974492 0 0,0 -0.19214959068531684,-0.476899526007713 l 8.254022796239097 -3.2433699675885608" fill="#efcbe2" stroke="none" /><path d="M 80.45479744820244 107.68017299344265 l -8.913173527370114 3.502379391022488 a30.57660293254714,30.57660293254714 0 0,0 -0.18827284141791573,-0.4915209788727652 l 8.97214064838154 -3.3484348453165653" fill="#eec8e0" stroke="none" /><path d="M 80.32549172779594 107.34259656027581 l -9.054325728962901 3.379106610101419 a30.664324905992693,30.664324905992693 0 0,0 -0.18030000850206432,-0.4961081876252956 l 9.111149998470191 -3.222750625470006" fill="#eec7e0" stroke="none" /><path d="M 79.97269907076064 106.31721596034903 l -28.457359585946616 8.976311226405542 a50.83949526780173,50.83949526780173 0 0,0 -0.25606940469689055,-0.8368496306260411 l 28.607655763149637 -8.485134623227454" fill="#de67b3" stroke="none" /><path d="M 79.86692584326677 105.97154293290107 l -9.212506834190155 2.7324629935668714 a30.609195397181427,30.609195397181427 0 0,0 -0.1454772895062228,-0.5064255295985627 l 9.258176760582481 -2.573479988463713" fill="#eec7e0" stroke="none" /><path d="M 79.67330655649465 105.27499134158121 l -7.852932874643167 2.0379189086947505 a29.113055417786015,29.113055417786015 0 0,0 -0.12170461295155048,-0.48614943071897565 l 7.886848801889776 -1.902441638578383" fill="#f0cee4" stroke="none" /><path d="M 79.4281124754447 104.21870165774334 l -29.14943467965292 5.977709544568946 a50.75605070473202,50.75605070473202 0 0,0 -0.16814770711517518,-0.8573815359879304 l 29.24801231974376 -5.475064281513061" fill="#de68b3" stroke="none" /><path d="M 79.18660465613746 102.79330883721812 l -13.941126152403996 1.8710003936847315 a35.0661167658459,35.0661167658459 0 0,0 -0.07513915862080289,-0.5989330242854075 l 13.971266820271646 -1.6307496151119152" fill="#e9b3d6" stroke="none" /><path d="M 79.07016306316243 101.71520430193888 l -34.52427621318319 2.8292713058817243 a55.640011896165,55.640011896165 0 0,0 -0.07000955191685711,-0.9552247130574901 l 34.56786232376439 -2.2345734563274733" fill="#dc4fa9" stroke="none" /><path d="M 79.0235259727143 100.99374915477108 l -9.583273076244632 0.45400239845222623 a30.59402110856942,30.59402110856942 0 0,0 -0.020392906810729108,-0.5262503109404448 l 9.589668115906562 -0.28897484049778466" fill="#eec8e0" stroke="none" /><line stroke="#e1ed5e" stroke-width="0.3" x1="15.007084014347285" x2="10.007500721073583" y1="101.09737516637583" y2="101.16192664675087" /><path d="M 14.007167355692545 101.11028546245083 a86.0,86.0 0 0,1 10.666146001902534,-42.60595125391555" fill="none" id="id22" stroke="none" /><text fill="#e1ed5e" style="font-size:6.75px; font-family:Arial;" text-anchor="middle"><textPath startOffset="22.20632615414155" xlink:href="#id22">October</textPath></text><path d="M 79.00175016825051 100.2711162175752 l -12.67232170681022 0.16361706125868572 a33.67337792317535,33.67337792317535 0 0,0 -0.002494560252698728,-0.5796479502901665 l 12.673260564352422 0.05454036723515611" fill="#ebbad9" stroke="none" /><path d="M 79.00486145842228 99.54816195383935 l -14.046497922643765 -0.30229579882019814 a35.04975041204718,35.04975041204718 0 0,0 0.018172971035226193,-0.6030724356750357 l 14.039213257152895 0.5440383819202282" fill="#e9b3d6" stroke="none" /><path d="M 79.08570108090925 98.10471618934814 l -13.976504841605633 -1.2665709454698773 a35.033776738545264,35.033776738545264 0 0,0 0.05959558110990062,-0.600119368794889 l 13.952632134813504 1.5069658449691965" fill="#e9b3d6" stroke="none" /><path d="M 79.12142395522702 97.74499172005258 l -6.981977009256796 -0.7540943373012398 a28.022582233576212,28.022582233576212 0 0,0 0.05592459663509905,-0.4791277913939057 l 6.967962059618108 0.8741658670200073" fill="#f1d3e6" stroke="none" /><path d="M 79.16333360222342 97.38593545837743 l -9.697515615459915 -1.2166020815551324 a30.773532101391655,30.773532101391655 0 0,0 0.07046259745509982,-0.5250281953244299 l 9.675137018946982 1.3833486189442217" fill="#eec7e0" stroke="none" /><path d="M 79.21141760316559 97.0276538004421 l -13.56796012141898 -1.939943471508377 a34.70594478790367,34.70594478790367 0 0,0 0.08964728416022573,-0.5906635939270389 l 13.532556943819452 2.1732061778275082" fill="#eab5d7" stroke="none" /><path d="M 79.26566170972629 96.67025291283419 l -16.966334224124612 -2.7246397339413124 a38.18371783650075,38.18371783650075 0 0,0 0.10980207811349225,-0.6480580805651083 l 16.916920284490896 3.0162836028222486" fill="#e6a5cf" stroke="none" /><path d="M 79.3925641242962 95.95851677861259 l -13.771188197492824 -2.7007739523942487 a35.033524301211614,35.033524301211614 0 0,0 0.12115043815872072,-0.5907725621642884 l 13.72265846341911 2.9374221707219395" fill="#e9b3d6" stroke="none" /><path d="M 79.46518482838121 95.60439243477599 l -10.445675696977723 -2.2359632036508987 a31.682306502554205,31.682306502554205 0 0,0 0.11874168354632664,-0.5322956844338288 l 10.405639626429359 2.415437057634687" fill="#edc3de" stroke="none" /><path d="M 79.54389044137918 95.25157060432595 l -6.844156801788406 -1.588718287467251 a28.026130380543716,28.026130380543716 0 0,0 0.11312840913733317,-0.4689902911982053 l 6.815795592390258 1.706293810324853" fill="#f1d3e6" stroke="none" /><path d="M 79.62865764111835 94.90015583598534 l -6.814475959393531 -1.7059634480679902 a28.024770023801235,28.024770023801235 0 0,0 0.12117866269772411,-0.46695081926186216 l 6.784100964825499 1.8230106928787162" fill="#f1d3e6" stroke="none" /><path d="M 79.71946130924805 94.55025226153421 l -6.790723894296052 -1.8247903938745593 a28.031627904698897,28.031627904698897 0 0,0 0.12923011541600088,-0.46490948314156083 l 6.7583070083136905 1.9414111804350627" fill="#f1d3e6" stroke="none" /><path d="M 79.91906864156998 93.8553929516997 l -28.32008250629538 -8.6657224941699 a50.61624249477539,50.61624249477539 0 0,0 0.26210660969360156,-0.8309495798187649 l 28.166720412833573 9.15192224041508" fill="#de69b4" stroke="none" /><path d="M 80.14247586403 93.16781622104843 l -6.641629080365971 -2.285120247518352 a28.023746250170294,28.023746250170294 0 0,0 0.1608655368869372,-0.4547885351655426 l 6.6013104626692245 2.399106409110506" fill="#f1d3e6" stroke="none" /><path d="M 80.2630227832202 92.82701384747504 l -6.600453709379019 -2.398795040281365 a28.02283467090987,28.02283467090987 0 0,0 0.16866465331335764,-0.4519374160899601 l 6.558184467564034 2.5120555934006665" fill="#f1d3e6" stroke="none" /><path d="M 80.38941819471856 92.48833698450439 l -6.583761756306297 -2.521852751679273 a28.050224121611574,28.050224121611574 0 0,0 0.17659145505434407,-0.4494059913625274 l 6.539376751370262 2.634807747937564" fill="#f1d3e6" stroke="none" /><path d="M 80.803312248108 91.48605970444005 l -54.86576159838615 -24.333563402001257 a81.01978093603941,81.01978093603941 0 0,0 0.5763889310467191,-1.2699966063133776 l 54.43877035037608 25.274382017156707" fill="#8e105f" stroke="none" /><path d="M 81.26839172434947 90.50648371742162 l -6.2609350412936715 -3.1731545889709674 a28.01913225668291,28.01913225668291 0 0,0 0.22173883200475553,-0.42832884538050175 l 6.205386776128802 3.2804561566118045" fill="#f1d3e6" stroke="none" /><path d="M 81.43458229118936 90.18545643968196 l -6.210209763345365 -3.283005812044838 a28.02458770794915,28.02458770794915 0 0,0 0.22912355867602094,-0.42453115638884076 l 6.152778105450872 3.3894179517661516" fill="#f1d3e6" stroke="none" /><path d="M 81.6062741919709 89.86733742301443 l -6.149252664949793 -3.387475871112917 a28.020562734906964,28.020562734906964 0 0,0 0.23636326548451617,-0.42046387517505024 l 6.090031758172846 3.492823256222752" fill="#f1d3e6" stroke="none" /><line stroke="#e1ed5e" stroke-width="0.3" x1="26.266209847984243" x2="21.928928074336255" y1="57.711370442889674" y2="55.22380399835377" /><path d="M 25.398753493254645 57.213857153982495 a86.0,86.0 0 0,1 29.58750427330803,-30.492523968695096" fill="none" id="id23" stroke="none" /><text fill="#e1ed5e" style="font-size:6.75px; font-family:Arial;" text-anchor="middle"><textPath startOffset="21.46611528233685" xlink:href="#id23">November</textPath></text><path d="M 81.78341655067845 89.55222093294921 l -13.951111904988924 -8.001398029906365 a37.082782527240525,37.082782527240525 0 0,0 0.32233824733660144,-0.5509805521763058 l 13.811313983181996 8.240357994436565" fill="#e7aad2" stroke="none" /><path d="M 81.96595687620814 89.24020034530311 l -5.03896537609082 -3.0064394069327034 a26.867695456395122,26.867695456395122 0 0,0 0.24038169108161114,-0.3951242960282226 l 4.986467886722992 3.0927314761680003" fill="#f2d8e9" stroke="none" /><path d="M 82.34701348167596 88.62581576622439 l -5.907461637351803 -3.806299684614515 a28.027518785878826,28.027518785878826 0 0,0 0.26479781093749793,-0.40330523279138913 l 5.841067191056385 3.9074229813835712" fill="#f1d3e6" stroke="none" /><path d="M 82.54541684631803 88.32363383020206 l -5.839948159073807 -3.9066743970679645 a28.026172453432658,28.026172453432658 0 0,0 0.2716877634508373,-0.3986682683549345 l 5.7718359299542294 4.006620688693315" fill="#f1d3e6" stroke="none" /><path d="M 82.7489923806493 88.02491185347247 l -5.776444182193713 -4.009819587446762 a28.03178217195835,28.03178217195835 0 0,0 0.2785656754140162,-0.3940113926492376 l 5.7065658869758185 4.108657480427786" fill="#f1d3e6" stroke="none" /><path d="M 83.39014120810768 87.1503855733568 l -12.310629805158857 -9.523671954553155 a36.564444535466336,36.564444535466336 0 0,0 0.3894042293192914,-0.4945038266168743 l 12.144871495245594 9.734168175123077" fill="#e8acd3" stroke="none" /><path d="M 83.84228863543731 86.58626213691792 l -4.8535675840502535 -4.029313422196086 a27.30812848214373,27.30812848214373 0 0,0 0.30336650192448095,-0.35909025155820123 l 4.783490468638648 4.112262623383404" fill="#f2d6e8" stroke="none" /><path d="M 84.07557802195018 86.31012108654704 l -5.442884739464508 -4.67912952356185 a28.177690950811673,28.177690950811673 0 0,0 0.31935808151819756,-0.36508149380175986 l 5.361534794368467 4.7721265735665535" fill="#f1d2e6" stroke="none" /><path d="M 84.31358615837235 86.03803664274999 l -5.23940840881316 -4.663425876435153 a28.0141957043803,28.0141957043803 0 0,0 0.3237058447949788,-0.35744407885113705 l 5.158358923402137 4.752922742555846" fill="#f1d3e6" stroke="none" /><path d="M 84.5562425177563 85.77008943001954 l -5.169229569783926 -4.762938978956126 a28.028977312695506,28.028977312695506 0 0,0 0.32998472016414493,-0.3520046919518614 l 5.0864775276493255 4.8512130877860375" fill="#f1d3e6" stroke="none" /><path d="M 85.05521093208273 85.24692304244772 l -44.83436720375183 -44.259230872656865 a84.0,84.0 0 0,0 1.0246567993307472,-1.0202565973995625 l 44.06587460425377 45.02442332070654" fill="#800d55" stroke="none" /><path d="M 85.57189188830299 84.74124197986013 l -4.832409828706921 -5.110619608582323 a28.033535208997634,28.033535208997634 0 0,0 0.35347900536675686,-0.3285202119547246 l 4.743722939545308 5.193044406611695" fill="#f1d3e6" stroke="none" /><path d="M 85.83668400450813 84.49514656593479 l -4.736827622217301 -5.1854959705967 a28.023311496984554,28.023311496984554 0 0,0 0.35895061351734936,-0.32226940495662076 l 4.64686602110398 5.266264384322599" fill="#f1d3e6" stroke="none" /><path d="M 86.10567301691215 84.25364557470407 l -4.648758928931328 -5.268409605000084 a28.026172453432658,28.026172453432658 0 0,0 0.364481976058449,-0.3160751779728519 l 4.557383154226106 5.3476497763926165" fill="#f1d3e6" stroke="none" /><path d="M 86.65592168130627 83.78471172551755 l -9.256953730593853 -11.248747924001917 a35.56796218515455,35.56796218515455 0 0,0 0.4760968233444432,-0.38497052082978417 l 9.06195350868491 11.406424542095834" fill="#e9b1d5" stroke="none" /><path d="M 86.93701828274178 83.55741782278169 l -14.264398679940776 -17.95482475441745 a43.93139336503863,43.93139336503863 0 0,0 0.5961436626438676,-0.4652995845676267 l 13.953222462137482 18.1977027282083" fill="#e28ac2" stroke="none" /><path d="M 87.22198572758235 83.33499621200491 l -4.276970115339194 -5.577996835323913 a28.028977312695506,28.028977312695506 0 0,0 0.38540357167903116,-0.29027797993466914 l 4.180320389901772 5.650791404764436" fill="#f1d3e6" stroke="none" /><path d="M 87.51073957382395 83.11751280151077 l -4.235952347205533 -5.725992479524569 a28.122519369111465,28.122519369111465 0 0,0 0.3916458335918162,-0.28454735402056586 l 4.136761197259935 5.798059068361803" fill="#f1d2e6" stroke="none" /><path d="M 87.80319425747018 82.90503203632743 l -4.096278981042435 -5.741319442926636 a28.052818616429708,28.052818616429708 0 0,0 0.395503144725363,-0.27707522782101746 l 3.9968446967334113 5.810979513511596" fill="#f1d3e6" stroke="none" /><path d="M 88.39885842347998 82.49532879139004 l -4.236342036586817 -6.392110120244711 a28.668485224624703,28.668485224624703 0 0,0 0.4136903020893925,-0.2690756800233335 l 4.125684708713138 6.46408472442758" fill="#f0d0e5" stroke="none" /><path d="M 88.70189139769569 82.29822771554957 l -19.67839937925792 -30.83193452955904 a57.57659892560534,57.57659892560534 0 0,0 0.840017484873829,-0.5260188719646419 l 19.144762742011853 31.16609774284661" fill="#db45a4" stroke="none" /><line stroke="#e1ed5e" stroke-width="0.3" x1="56.762969772571076" x2="54.21961505331055" y1="26.818313649435495" y2="22.513508569990535" /><path d="M 56.25429882871897 25.957352633546506 a86.0,86.0 0 0,1 42.265352541879196,-11.944610805530505" fill="none" id="id24" stroke="none" /><text fill="#e1ed5e" style="font-size:6.75px; font-family:Arial;" text-anchor="middle"><textPath startOffset="22.20632615414155" xlink:href="#id24">December</textPath></text><path d="M 89.63071344664047 81.73862282372117 l -3.500728685032822 -6.1651422766874 a28.089716540032466,28.089716540032466 0 0,0 0.42251737141860873,-0.23513045974460545 l 3.394087224542168 6.224488133992189" fill="#f1d3e6" stroke="none" /><path d="M 89.94658935756843 81.56283822128135 l -3.3710518156999703 -6.182243011956689 a28.041599179378316,28.041599179378316 0 0,0 0.42577156198155164,-0.22743242300758154 l 3.2641352071901135 6.23935416146602" fill="#f1d3e6" stroke="none" /><path d="M 90.26544431104013 81.39251694778311 l -3.35914683047847 -6.420967706715625 a28.24656427001089,28.24656427001089 0 0,0 0.43276361026314053,-0.22167832980659594 l 3.248122732626566 6.477838561834726" fill="#f1d2e6" stroke="none" /><path d="M 92.23578459929587 80.48803036053334 l -2.592210683467282 -6.514391157969124 a28.01119450496905,28.01119450496905 0 0,0 0.4495354341258632,-0.17441276448883788 l 2.4796920843417425 6.5580466263485135" fill="#f1d3e6" stroke="none" /><path d="M 93.25333710446033 80.11325718540243 l -2.3474346992390864 -6.919395686524182 a28.30674252549528,28.30674252549528 0 0,0 0.46277099787446735,-0.15256832213397997 l 2.2279808791222098 6.9587777329173965" fill="#f1d2e6" stroke="none" /><path d="M 93.59665428221793 80.00007090966166 l -7.372004485851373 -23.025395389982503 a45.17675087774286,45.17675087774286 0 0,0 0.7426512007809648,-0.23074534312345044 l 6.97456791235968 23.148880867988478" fill="#e184c0" stroke="none" /><path d="M 94.28887869178378 79.79150937346287 l -1.9089674863424915 -6.754777122071909 a28.019342621127624,28.019342621127624 0 0,0 0.46525732926432944,-0.1271724032853749 l 1.7924122678544394 6.786636066183579" fill="#f1d3e6" stroke="none" /><path d="M 94.63758080256005 79.69619591428918 l -1.800212013154536 -6.8161683527618475 a28.049887538500034,28.049887538500034 0 0,0 0.4678869656248554,-0.11927480547563782 l 1.6826161588446813 6.846146154406349" fill="#f1d3e6" stroke="none" /><path d="M 94.98787191387505 79.60689891045804 l -1.675325918927985 -6.816483983561241 a28.019342621127624,28.019342621127624 0 0,0 0.46935909719018115,-0.1110821339206856 l 1.5577431347752697 6.844312029622798" fill="#f1d3e6" stroke="none" /><path d="M 95.692805502759 79.44645832069477 l -4.844030460842113 -23.115274231641358 a44.617377794953214,44.617377794953214 0 0,0 0.753042733906025,-0.1510532881633181 l 4.445421317468951 23.195231475881886" fill="#e186c1" stroke="none" /><path d="M 96.04723909329186 79.375362276772 l -1.3216738841061837 -6.896203866436995 a28.02171272720473,28.02171272720473 0 0,0 0.4745075124212929,-0.08671321491930231 l 1.2027712505819974 6.917932562707033" fill="#f1d3e6" stroke="none" /><path d="M 97.11714578562143 79.19881850522333 l -0.9676362595767835 -6.981961611514344 a28.048695473313323,28.048695473313323 0 0,0 0.47881162913100705,-0.062163491446975735 l 0.8473099019379187 6.997583426125456" fill="#f1d3e6" stroke="none" /><path d="M 97.47563105711357 79.15227682838746 l -0.8444878170924447 -6.97427698996008 a28.025218801283287,28.025218801283287 0 0,0 0.47940913023078213,-0.0538672016996027 l 0.7243119833519446 6.987780145130281" fill="#f1d3e6" stroke="none" /><path d="M 98.19473922651362 79.07773832637324 l -2.83106688414623 -32.810950659086856 a53.93286235442558,53.93286235442558 0 0,0 0.925615843252658,-0.07184560399003873 l 2.265860851531238 32.85482152526536" fill="#dc58ac" stroke="none" /><path d="M 98.55514903715128 79.0497635885617 l -0.48324885744416823 -7.0070741338273494 a28.023718201577665,28.023718201577665 0 0,0 0.48152481236919287,-0.029046891669330718 l 0.3625619962353524 7.014354294876987" fill="#f1d3e6" stroke="none" /><path d="M 99.27714615592234 79.0124445844662 l -0.24193907238507595 -7.024531626228837 a28.02869682676922,28.02869682676922 0 0,0 0.48232497539962904,-0.012457031117286755 l 0.12098746179056787 7.027655449488484" fill="#f1d3e6" stroke="none" /></svg>