<?xml version="1.0" encoding="utf-8" ?>
<svg baseProfile="full" height="200mm" version="1.1" viewBox="0,0,200,200" width="200mm" xmlns="http://www.w3.org/2000/svg" xmlns:ev="http://www.w3.org/2001/xml-events" xmlns:xlink="http://www.w3.org/1999/xlink"><defs /><rect fill="#1a1a1a" height="200" width="200" x="0" y="0" /><rect fill="#1a1a1a" height="200" width="180" x="10" y="0" /><text alignment-baseline="middle" fill="#e1ed5e" style="dominant-baseline: central; font-size:9.0px; font-family:Arial;" text-anchor="middle" x="100.0" y="100.0">2026</text><line stroke="#e1ed5e" stroke-width="0.3" x1="100.0" x2="100.0" y1="15.0" y2="10.0" /><path d="M 100.0 14.0 a86.0,86.0 0 0,1 42.46469731375804,11.215312516191453" fill="none" id="id25" stroke="none" /><text fill="#e1ed5e" style="font-size:6.75px; font-family:Arial;" text-anchor="middle"><textPath startOffset="22.20632615414155" xlink:href="#id25">January</textPath></text><path d="M 100.0 79.0 l 0.0 -44.256160547604225 a65.25616054760422,65.25616054760422 0 0,0 1.1232775328682396,0.009668404356770376 l -0.7617970535957113 44.24960351985602" fill="#F5E1EE" stroke="none" /><path d="M 100.36148047927253 79.00311137660856 l 0.16457821571857215 -9.559659963475015 a30.561076540136902,30.561076540136902 0 0,0 0.5259028124464981,0.013582518081064483 l -0.329107663359938 9.555410653251592" fill="#F5E1EE" stroke="none" /><path d="M 100.72285384407766 79.0124445844662 l 0.5853238156444718 -16.994467301401308 a38.00454418170504,38.00454418170504 0 0,0 0.653604263908927,0.0281455744970095 l -0.8777689119427303 16.981874000380103" fill="#F5E1EE" stroke="none" /><path d="M 101.44485096284872 79.0497635885617 l 1.0304722921050185 -14.941775096631385 a35.97726664592408,35.97726664592408 0 0,0 0.6174552313865742,0.04792640959978222 l -1.2875177128539337 14.921823424843138" fill="#F5E1EE" stroke="none" /><path d="M 101.80526077348638 79.07773832637324 l 1.1540413146251112 -13.374884516065196 a34.424579962663344,34.424579962663344 0 0,0 0.589930539954057,0.05602101311989174 l -1.3840969816694122 13.353037958430125" fill="#F5E1EE" stroke="none" /><path d="M 102.16513564639614 79.11191278185805 l 1.3672420675832795 -13.190430633539675 a34.26110143123833,34.26110143123833 0 0,0 0.5860823051681626,0.0658531758247128 l -1.5940910762611675 13.164941504244362" fill="#F5E1EE" stroke="none" /><path d="M 102.52436894288641 79.15227682838746 l 1.6359740799573155 -13.51083597783685 a34.60952240199129,34.60952240199129 0 0,0 0.5908097159281729,0.07670405747985952 l -1.8682985243933345 13.480673597192855" fill="#F5E1EE" stroke="none" /><path d="M 103.2404852339499 79.25152402106235 l 9.721455701849713 -62.245427936812945 a84.0,84.0 0 0,0 1.4266831754444993,0.23541494824150133 l -10.791468083433088 62.06886672563182" fill="#F5E1EE" stroke="none" /><path d="M 103.95276090670814 79.375362276772 l 2.9384977082755857 -15.332435255789886 a36.61148102053516,36.61148102053516 0 0,0 0.6179208891825938,0.1239491172721153 l -3.2019850069253044 15.279582182440562" fill="#F5E1EE" stroke="none" /><path d="M 104.66035177308747 79.52364482259891 l 3.3188186196388334 -14.582012717910168 a35.95492065961419,35.95492065961419 0 0,0 0.6022899726282891,0.14254257731255318 l -3.569332279229646 14.522724228456747" fill="#F5E1EE" stroke="none" /><path d="M 105.71112130821622 79.79150937346287 l 10.226851973475611 -36.18715679312275 a58.60450528935905,58.60450528935905 0 0,0 0.9683969819469879,0.28270163422403577 l -10.848239173146027 36.005756829980015" fill="#F5E1EE" stroke="none" /><path d="M 106.0581310904928 79.89281104454417 l 9.98060132883698 -33.126030752773715 a55.59691194772869,55.59691194772869 0 0,0 0.9139460588795322,0.2839674893553219 l -10.549332760427232 32.94932312853587" fill="#F5E1EE" stroke="none" /><path d="M 106.74666289553966 80.11325718540242 l 3.9597495393995588 -11.671921647711356 a33.32531425015557,33.32531425015557 0 0,0 0.5416442606583204,0.1889690470798382 l -4.160075804121153 11.60203174745931" fill="#F5E1EE" stroke="none" /><path d="M 107.08798089147638 80.2323363322302 l 4.165820729517013 -11.618053764837823 a33.34233509645302,33.34233509645302 0 0,0 0.5385861602252472,0.1983658281265396 l -4.365189215514837 11.544624668904959" fill="#F5E1EE" stroke="none" /><path d="M 107.4271985657038 80.35727306442388 l 5.912006151401425 -15.635494520055305 a37.71587585563161,37.71587585563161 0 0,0 0.6052802433395448,0.23483933082296182 l -6.180269559740636 15.531412485341797" fill="#F5E1EE" stroke="none" /><path d="M 107.76421540070413 80.48803036053334 l 4.828163094012227 -12.133482501814203 a34.058811449906656,34.058811449906656 0 0,0 0.5428587416634038,0.2214457110957532 l -5.036305705264018 12.048575904534871" fill="#F5E1EE" stroke="none" /><path d="M 108.09893153111575 80.62456947434976 l 11.54647079547959 -27.62313051477839 a50.93924393279403,50.93924393279403 0 0,0 0.806092291654695,0.3451266510464989 l -12.020246844924602 27.420284335769097" fill="#F5E1EE" stroke="none" /><path d="M 108.43124777332544 80.76684994638697 l 24.209184227516815 -55.22538127707572 a81.2986512134412,81.2986512134412 0 0,0 1.2768451864154908,0.5728832160008016 l -25.156211532399084 54.800477730558384" fill="#F5E1EE" stroke="none" /><path d="M 109.08828744355905 81.06846463323043 l 6.726053776465843 -14.010838206729492 a36.54166614810205,36.54166614810205 0 0,0 0.5647057436367311,0.27709865591242583 l -6.966230787113006 13.892984390682233" fill="#F5E1EE" stroke="none" /><path d="M 109.41281617654863 81.2277094730956 l 5.488705659213571 -10.946307175118054 a33.24530647168637,33.24530647168637 0 0,0 0.509348985436322,0.26090833356241017 l -5.676315132238649 10.850206316243144" fill="#F5E1EE" stroke="none" /><path d="M 109.73455568895987 81.39251694778311 l 7.891683750892776 -15.084856087960093 a38.0244399502178,38.0244399502178 0 0,0 0.5773467157673201,0.3083986207799368 l -8.150175513188408 14.9467787406784" fill="#F5E1EE" stroke="none" /><path d="M 110.05341064243156 81.56283822128135 l 6.580057361657064 -12.06730595267693 a34.74470908525202,34.74470908525202 0 0,0 0.5226198396300514,0.29083737492563005 l -6.786801290359152 11.95225318019112" fill="#F5E1EE" stroke="none" /><path d="M 110.36928655335952 81.73862282372117 l 24.40747446814247 -42.984065961485015 a70.43030180460485,70.43030180460485 0 0,0 1.0490870732349316,0.6076989467027853 l -25.14375827384273 42.557562857392185" fill="#F5E1EE" stroke="none" /><line stroke="#e1ed5e" stroke-width="0.3" x1="143.23703022742887" x2="145.7803849466894" y1="26.81831364943548" y2="22.513508569990506" /><path d="M 143.74570117128098 25.957352633546492 a86.0,86.0 0 0,1 28.547481713284135,27.462654790039103" fill="none" id="id26" stroke="none" /><text fill="#e1ed5e" style="font-size:6.75px; font-family:Arial;" text-anchor="middle"><textPath startOffset="19.985693538727396" xlink:href="#id26">February</textPath></text><path d="M 110.68208982089419 81.91981866633111 l 15.655061291013062 -26.497282055949135 a51.77640168014935,51.77640168014935 0 0,0 0.7634256207108135,0.45995539445069267 l -16.108848977941513 26.223880052039828" fill="#F5E1EE" stroke="none" /><path d="M 111.2981086023043 82.29822771554956 l 7.984904859522457 -12.510675238812981 a35.84168792781581,35.84168792781581 0 0,0 0.5172006330322708,0.3364016785957597 l -8.199072518339008 12.371374636057695" fill="#F5E1EE" stroke="none" /><path d="M 111.60114157652 82.49532879139004 l 7.450376567560602 -11.24168611642798 a34.4864234598631,34.4864234598631 0 0,0 0.49199859882300423,0.33219965015971364 l -7.6427798607901485 11.111774553969596" fill="#F5E1EE" stroke="none" /><path d="M 111.90073688211348 82.69761687909136 l 7.8874225757251955 -11.467458577864567 a34.9181191661481,34.9181191661481 0 0,0 0.4922937023525593,0.34488319891591634 l -8.083647417661405 11.329990536184717" fill="#F5E1EE" stroke="none" /><path d="M 112.19680574252982 82.90503203632743 l 7.819332694585117 -10.95952864487489 a34.4630320472931,34.4630320472931 0 0,0 0.4799464349943021,0.34870149618791874 l -8.006824445933207 10.823307913870297" fill="#F5E1EE" stroke="none" /><path d="M 112.48926042617603 83.11751280151076 l 31.121068653680386 -42.06822703831885 a73.32835407591786,73.32835407591786 0 0,0 1.0082782989518304,0.7594143109692102 l -31.8405931063906 41.526296137843794" fill="#F5E1EE" stroke="none" /><path d="M 113.06298171725822 83.55741782278167 l 8.773109088750713 -11.042851491624198 a35.103616988176725,35.103616988176725 0 0,0 0.46988130635572717,0.37994467168514134 l -8.961893793670932 10.89020072267493" fill="#F5E1EE" stroke="none" /><path d="M 113.6212207817346 84.01681056812373 l 2.1579293999812434 -2.5321221154248894 a24.326905724953328,24.326905724953328 0 0,0 0.31637280062953754,0.2743553751165858 l -2.201195999257545 2.4946017468886303" fill="#F5E1EE" stroke="none" /><path d="M 113.89432698308785 84.25364557470405 l 6.789047433856792 -7.693985267064524 a31.26102209085252,31.26102209085252 0 0,0 0.40042245042658847,0.3595032296107546 l -6.920480871879371 7.575983028684474" fill="#F5E1EE" stroke="none" /><line stroke="#e1ed5e" stroke-width="0.3" x1="172.23445277983987" x2="176.4835382374775" y1="55.19839476539836" y2="52.563006222186495" /><path d="M 173.08426987136738 54.67131705675599 a86.0,86.0 0 0,1 12.851231095245387,41.99856678651699" fill="none" id="id27" stroke="none" /><text fill="#e1ed5e" style="font-size:6.75px; font-family:Arial;" text-anchor="middle"><textPath startOffset="22.20632615414155" xlink:href="#id27">March</textPath></text><line stroke="#e1ed5e" stroke-width="0.3" x1="184.98032266829074" x2="189.97916517819016" y1="98.17113171792111" y2="98.06355123074" /><path d="M 185.9800911702706 98.14961562048488 a86.0,86.0 0 0,1 -9.607161424134198,41.387399972396054" fill="none" id="id28" stroke="none" /><text fill="#e1ed5e" style="font-size:6.75px; font-family:Arial;" text-anchor="middle"><textPath startOffset="21.466115282336823" xlink:href="#id28">April</textPath></text><line stroke="#e1ed5e" stroke-width="0.3" x1="174.80103733775053" x2="179.2010983576182" y1="140.37084112569926" y2="142.7455964860345" /><path d="M 175.68104954172406 140.8457921977663 a86.0,86.0 0 0,1 -30.038265399797805,32.042727171017184" fill="none" id="id29" stroke="none" /><text fill="#e1ed5e" style="font-size:6.75px; font-family:Arial;" text-anchor="middle"><textPath startOffset="22.206326154141568" xlink:href="#id29">May</textPath></text><line stroke="#e1ed5e" stroke-width="0.3" x1="143.8653032363475" x2="146.44561519142675" y1="172.8068346515853" y2="177.08958963109032" /><path d="M 144.38136562736335 173.6633856474863 a86.0,86.0 0 0,1 -40.68145358897372,12.25698825130547" fill="none" id="id30" stroke="none" /><text fill="#e1ed5e" style="font-size:6.75px; font-family:Arial;" text-anchor="middle"><textPath startOffset="21.466115282336833" xlink:href="#id30">June</textPath></text><line stroke="#e1ed5e" stroke-width="0.3" x1="102.19456741930631" x2="102.32365962044197" y1="184.97166512339345" y2="189.96999836594603" /><path d="M 102.22038585953345 185.97133177190398 a86.0,86.0 0 0,1 -42.740103519485714,-10.115201625700543" fill="none" id="id31" stroke="none" /><text fill="#e1ed5e" style="font-size:6.75px; font-family:Arial;" text-anchor="middle"><textPath startOffset="22.20632615414155" xlink:href="#id31">July</textPath></text><line stroke="#e1ed5e" stroke-width="0.3" x1="58.666819895761336" x2="56.23545636021788" y1="174.27360380694188" y2="178.64263932499728" /><path d="M 58.180547188652646 175.14741091055294 a86.0,86.0 0 0,1 -31.652253787137756,-30.449443065178592" fill="none" id="id32" stroke="none" /><text fill="#e1ed5e" style="font-size:6.75px; font-family:Arial;" text-anchor="middle"><textPath startOffset="22.20632615414155" xlink:href="#id32">August</textPath></text><line stroke="#e1ed5e" stroke-width="0.3" x1="26.63291911575756" x2="22.317208475507996" y1="142.92168965132927" y2="145.44649492493687" /><path d="M 25.769776987707644 143.4266507060508 a86.0,86.0 0 0,1 -11.730757126820373,-40.83630448921669" fill="none" id="id33" stroke="none" /><text fill="#e1ed5e" style="font-size:6.75px; font-family:Arial;" text-anchor="middle"><textPath startOffset="21.46611528233685" xlink:href="#id33">September</textPath></text><line stroke="#e1ed5e" stroke-width="0.3" x1="15.007084014347285" x2="10.007500721073583" y1="101.09737516637583" y2="101.16192664675087" /><path d="M 14.007167355692545 101.11028546245083 a86.0,86.0 0 0,1 10.666146001902534,-42.60595125391555" fill="none" id="id34" stroke="none" /><text fill="#e1ed5e" style="font-size:6.75px; font-family:Arial;" text-anchor="middle"><textPath startOffset="22.20632615414155" xlink:href="#id34">October</textPath></text><line stroke="#e1ed5e" stroke-width="0.3" x1="26.266209847984243" x2="21.928928074336255" y1="57.711370442889674" y2="55.22380399835377" /><path d="M 25.398753493254645 57.213857153982495 a86.0,86.0 0 0,1 29.58750427330803,-30.492523968695096" fill="none" id="id35" stroke="none" /><text fill="#e1ed5e" style="font-size:6.75px; font-family:Arial;" text-anchor="middle"><textPath startOffset="21.46611528233685" xlink:href="#id35">November</textPath></text><line stroke="#e1ed5e" stroke-width="0.3" x1="56.76296977257108" x2="54.21961505331056" y1="26.818313649435495" y2="22.513508569990535" /><path d="M 56.25429882871898 25.957352633546506 a86.0,86.0 0 0,1 42.26535254187918,-11.944610805530505" fill="none" id="id36" stroke="none" /><text fill="#e1ed5e" style="font-size:6.75px; font-family:Arial;" text-anchor="middle"><textPath startOffset="22.20632615414155" xlink:href="#id36">December</textPath></text></svg>