<?xml version="1.0" encoding="utf-8" ?>
<svg baseProfile="full" height="200mm" version="1.1" viewBox="0,0,200,200" width="200mm" xmlns="http://www.w3.org/2000/svg" xmlns:ev="http://www.w3.org/2001/xml-events" xmlns:xlink="http://www.w3.org/1999/xlink"><defs /><rect fill="#1a1a1a" height="200" width="200" x="0" y="0" /><rect fill="#1a1a1a" height="200" width="180" x="10" y="0" /><text alignment-baseline="middle" fill="#e1ed5e" style="dominant-baseline: central; font-size:9.0px; font-family:Arial;" text-anchor="middle" x="100.0" y="100.0">2025</text><line stroke="#e1ed5e" stroke-width="0.3" x1="100.0" x2="100.0" y1="15.0" y2="10.0" /><path d="M 100.0 14.0 a86.0,86.0 0 0,1 42.46469731375804,11.215312516191453" fill="none" id="id13" stroke="none" /><text fill="#e1ed5e" style="font-size:6.75px; font-family:Arial;" text-anchor="middle"><textPath startOffset="22.20632615414155" xlink:href="#id13">January</textPath></text><path d="M 100.0 79.0 l 0.0 -19.14274365025586 a40.14274365025586,40.14274365025586 0 0,0 0.6909913435242254,0.0059475806474657686 l -0.329510864251697 19.139907446216952" fill="#e59ccb" stroke="none" /><path d="M 103.95276090670814 79.375362276772 l 1.278733900819544 -6.67215247045568 a27.793583662406242,27.793583662406242 0 0,0 0.46909426910678514,0.09409589737305805 l -1.3933945793934546 6.649152617005414" fill="#f1d5e7" stroke="none" /><path d="M 106.0581310904928 79.89281104454417 l 2.125448940901213 -7.054453400148823 a28.367689324018038,28.367689324018038 0 0,0 0.46633053795471546,0.14489116812327313 l -2.2465648515666468 7.016822097143029" fill="#f1d2e6" stroke="none" /><path d="M 108.76106565485865 80.91482961587045 l 4.668665171033166 -10.170254825816267 a32.19064420403299,32.19064420403299 0 0,0 0.5015942940886622,0.23550524671981418 l -4.843037676421426 10.08838459645645" fill="#ecc1dd" stroke="none" /><line stroke="#e1ed5e" stroke-width="0.3" x1="143.23703022742887" x2="145.7803849466894" y1="26.81831364943548" y2="22.513508569990506" /><path d="M 143.74570117128098 25.957352633546492 a86.0,86.0 0 0,1 28.547481713284135,27.462654790039103" fill="none" id="id14" stroke="none" /><text fill="#e1ed5e" style="font-size:6.75px; font-family:Arial;" text-anchor="middle"><textPath startOffset="19.985693538727396" xlink:href="#id14">February</textPath></text><path d="M 110.99172775467656 82.1063720568725 l 3.4749649863488976 -5.65695693788151 a27.63901675351076,27.63901675351076 0 0,0 0.40324120859704016,0.252509607830047 l -3.5718253473182013 5.596302988728519" fill="#f2d5e8" stroke="none" /><path d="M 112.19680574252982 82.90503203632743 l 4.2817209027681375 -6.001233700638285 a28.37210552141505,28.37210552141505 0 0,0 0.39512167355439826,0.28707269957391973 l -4.384387892676324 5.92664176624769" fill="#f1d2e6" stroke="none" /><path d="M 113.89432698308785 84.25364557470405 l 3.9036705293513143 -4.424005552019028 a26.900039722410447,26.900039722410447 0 0,0 0.344562624693325,0.3093517265289266 l -3.979244141640629 4.356154816720807" fill="#f3d9e9" stroke="none" /><path d="M 114.68862486808459 84.99185889309783 l 4.164928914975499 -4.2555270774179945 a26.95450615697362,26.95450615697362 0 0,0 0.32879902388505655,0.32738705638450544 l -4.237563739027876 4.1832041703833704" fill="#f2d8e9" stroke="none" /><path d="M 114.94478906791727 85.2469230424477 l 7.5595203809209295 -7.462546673297011 a31.622426805617216,31.622426805617216 0 0,0 0.37907118549555197,0.39066617795109193 l -7.68685583011959 7.331316299795804" fill="#edc4de" stroke="none" /><path d="M 115.68641384162765 86.03803664274999 l 3.3031745575799345 -2.9400475214509694 a25.422085660209827,25.422085660209827 0 0,0 0.28812682056908806,0.32937876366758134 l -3.353293241726871 2.88275320158044" fill="#f4dfed" stroke="none" /><path d="M 115.9244219780498 86.31012108654704 l 2.980457042413696 -2.5622340373567822 a24.93041568334229,24.93041568334229 0 0,0 0.27695244667990826,0.3278243415705302 l -3.0241201025807216 2.5105507461571457" fill="#f5e1ee" stroke="none" /><path d="M 116.15771136456269 86.58626213691792 l 3.4137445652353176 -2.834007471504734 a25.436806318199874,25.436806318199874 0 0,0 0.27677850478423816,0.33929772020668875 l -3.462021562095965 2.774825581689944" fill="#f4dfed" stroke="none" /><path d="M 116.82858285166822 87.43820079747576 l 3.5484060016696017 -2.648729490468463 a25.427973923405848,25.427973923405848 0 0,0 0.2588051769266857,0.35300997047689153 l -3.593473791109914 2.5872570763200775" fill="#f4dfed" stroke="none" /><path d="M 117.04232023915458 87.72973835380427 l 3.594668430003234 -2.588117201677896 a25.42944598920485,25.42944598920485 0 0,0 0.25270497444408657,0.3574332651074877 l -3.6386860242512036 2.5258574362386153" fill="#f4dfed" stroke="none" /><path d="M 117.2510076193507 88.02491185347247 l 3.635058221634802 -2.5233391337099627 a25.425029791807837,25.425029791807837 0 0,0 0.2464720964407454,0.36166738846750685 l -3.6779547837442803 2.4603937219720495" fill="#f4dfed" stroke="none" /><line stroke="#e1ed5e" stroke-width="0.3" x1="172.23445277983987" x2="176.4835382374775" y1="55.19839476539836" y2="52.563006222186495" /><path d="M 173.08426987136738 54.67131705675599 a86.0,86.0 0 0,1 12.851231095245387,41.99856678651699" fill="none" id="id15" stroke="none" /><text fill="#e1ed5e" style="font-size:6.75px; font-family:Arial;" text-anchor="middle"><textPath startOffset="22.20632615414155" xlink:href="#id15">March</textPath></text><path d="M 118.03404312379186 89.2402003453031 l 6.919995704813652 -4.128734021763965 a29.058088183751195,29.058088183751195 0 0,0 0.25258442268247366,0.4317486548079228 l -6.99003980196645 4.009005954602147" fill="#f0cfe4" stroke="none" /><path d="M 119.196687751892 91.48605970444005 l 8.979566140269787 -3.9825354762440015 a30.823095076757717,30.823095076757717 0 0,0 0.21093167209201968,0.4868593811166194 l -9.046788522204489 3.8273769505407795" fill="#eec7e0" stroke="none" /><path d="M 119.85752413597 93.16781622104841 l 13.923976956242807 -4.790686333681286 a35.72507418744304,35.72507418744304 0 0,0 0.19506350888269056,0.5832150634072015 l -14.004377758897268 4.55029816735177" fill="#e9b1d5" stroke="none" /><path d="M 120.08093135843002 93.85539295169968 l 18.307773436063798 -5.602034670901738 a40.145687781853866,40.145687781853866 0 0,0 0.19651142668425536,0.6625388397161637 l -18.401490759859755 5.286066444439045" fill="#e59ccb" stroke="none" /><path d="M 120.6074358757038 95.95851677861258 l 17.66537374049455 -3.464492720121519 a39.001892656027294,39.001892656027294 0 0,0 0.12353250743623957,0.6599155943399224 l -17.72239197184065 3.159899048319034" fill="#e6a2ce" stroke="none" /><path d="M 120.78858239683441 97.02765380044208 l 14.5812011680299 -2.0848164174668655 a35.72949038484006,35.72949038484006 0 0,0 0.08181032615846105,0.6095819548697682 l -14.614927493246196 1.8335161205324328" fill="#e9b1d5" stroke="none" /><path d="M 120.83666639777658 97.38593545837742 l 14.461562773399013 -1.8142757454918659 a35.57492347594457,35.57492347594457 0 0,0 0.07099678499053214,0.6082570967929569 l -14.490649911393135 1.5650749103740562" fill="#e9b2d5" stroke="none" /><path d="M 120.91429891909075 98.10471618934814 l 14.380565794146406 -1.3031875294074915 a35.43949342243615,35.43949342243615 0 0,0 0.04982711126062133,0.6080169648243127 l -14.400867389226523 1.0554566473754101" fill="#e9b2d6" stroke="none" /><path d="M 120.94382443527127 98.46500227214037 l 5.88132070152324 -0.43104896823181704 a26.89709559081244,26.89709559081244 0 0,0 0.02986782727978512,0.4620420682050114 l -5.887869119807441 0.3297478357737704" fill="#f3d9e9" stroke="none" /><path d="M 120.96714384426684 98.82574320788733 l 7.826486036688622 -0.43831932738275764 a28.838750379699512,28.838750379699512 0 0,0 0.023491760097692483,0.4958739267133925 l -7.8328714050198105 0.30353429404636545" fill="#f0d0e5" stroke="none" /><path d="M 120.98425023603335 99.18683210126433 l 14.468379932352088 -0.5606691673690236 a35.47923919900928,35.47923919900928 0 0,0 0.01839565699428894,0.6104622985357722 l -14.47588728380202 0.3115367214082523" fill="#e9b2d6" stroke="none" /><line stroke="#e1ed5e" stroke-width="0.3" x1="184.98032266829074" x2="189.97916517819016" y1="98.17113171792111" y2="98.06355123074" /><path d="M 185.9800911702706 98.14961562048488 a86.0,86.0 0 0,1 -9.607161424134198,41.387399972396054" fill="none" id="id16" stroke="none" /><text fill="#e1ed5e" style="font-size:6.75px; font-family:Arial;" text-anchor="middle"><textPath startOffset="21.466115282336823" xlink:href="#id16">April</textPath></text><path d="M 120.99513854157772 99.54816195383933 l 14.520039034362616 -0.3124869147431696 a35.52340117297941,35.52340117297941 0 0,0 0.007894640972801426,0.6114486435430707 l -14.523266682453134 0.06250201313963612" fill="#e9b2d6" stroke="none" /><path d="M 120.99980553446 99.90962569577887 l 14.431999448081346 -0.06210923746411846 a35.43213309344113,35.43213309344113 0 0,0 -0.002624850737721731,0.6099228704906917 l -14.430930300054122 -0.18632311123025794" fill="#e9b2d6" stroke="none" /><path d="M 120.95626037817324 101.35467743843564 l 17.94236261366506 1.1598497721606362 a38.97981166904222,38.97981166904222 0 0,0 -0.04904670318629061,0.669203297189828 l -17.91973935181443 -1.4685262058472344" fill="#e6a2ce" stroke="none" /><path d="M 120.92983693683757 101.71520430193887 l 14.353103821745586 1.1762397144099799 a35.40121971166203,35.40121971166203 0 0,0 -0.05499900406556821,0.6069094268704541 l -14.330730221402943 -1.4231305298290045" fill="#e9b3d6" stroke="none" /><path d="M 120.89721153311464 102.0752229133903 l 14.307292453484875 1.4208030138852996 a35.377666658877956,35.377666658877956 0 0,0 -0.06539426656955304,0.6054696914445009 l -14.28071588541427 -1.666869027214592" fill="#e9b3d6" stroke="none" /><path d="M 120.8583938346157 102.4346265915055 l 12.920926208601 1.5081521033577718 a34.00864546580368,34.00864546580368 0 0,0 -0.07287322469143749,0.580871301396108 l -12.893051474662714 -1.7303411590412747" fill="#ebb9d9" stroke="none" /><path d="M 120.81339534386255 102.79330883721812 l 14.257202558606316 1.9134201432784128 a35.38502698787298,35.38502698787298 0 0,0 -0.08621468979227113,0.6029853396050364 l -14.222153817797444 -2.1585509548638586" fill="#e9b3d6" stroke="none" /><path d="M 120.76222939487914 103.15116336523771 l 7.285724724917521 1.1057824478150304 a28.369161389817044,28.369161389817044 0 0,0 -0.07743193148122789,0.4821687112481566 l -7.265611039075004 -1.2310303887563918" fill="#f1d2e6" stroke="none" /><path d="M 120.64145759157962 103.86396538481128 l 15.92493975649639 2.98105963211671 a37.20155618384466,37.20155618384466 0 0,0 -0.12324355986284143,0.6284162565680714 l -15.871266263657883 -3.254739615752727" fill="#e7aad2" stroke="none" /><path d="M 120.5718875245553 104.21870165774334 l 13.856714294701858 2.841613026328181 a35.14508026263523,35.14508026263523 0 0,0 -0.126632680103757,0.5915857232548148 l -13.805747575873658 -3.079712568999165" fill="#e9b4d6" stroke="none" /><path d="M 120.49622156327973 104.57218783832717 l 13.514086970409782 3.0146504760127106 a34.846250905437294,34.846250905437294 0 0,0 -0.1356339442120193,0.584307481795258 l -13.46019246026721 -3.2468266151565337" fill="#eab5d7" stroke="none" /><path d="M 120.41448212921028 104.9243191809786 l 13.74925889413644 3.3165543396155623 a35.143608196836226,35.143608196836226 0 0,0 -0.14691481783474183,0.5868516675121879 l -13.69013276200664 -3.5527338465251463" fill="#e9b4d6" stroke="none" /><path d="M 120.02730092923936 106.31721596034902 l 30.33225673835635 9.567710449748878 a52.805453653293455,52.805453653293455 0 0,0 -0.2808942076988242,0.8645034787225638 l -30.16307027964128 -10.088412828449236" fill="#dd5eaf" stroke="none" /><path d="M 119.67450827220406 107.3425965602758 l 13.539125245336868 5.052849762756324 a35.45126994882819,35.45126994882819 0 0,0 -0.2182881904789664,0.5698815838362274 l -13.450142775264395 -5.285154913425695" fill="#e9b2d6" stroke="none" /><path d="M 119.54520255179757 107.68017299344265 l 13.433701732858035 5.278694502000501 a35.43360515924013,35.43360515924013 0 0,0 -0.22795178211662834,0.5657576290238743 l -13.340847336484018 -5.5091514988671895" fill="#e9b2d6" stroke="none" /><path d="M 119.41010516605496 108.01547362559984 l 13.776244699836887 5.68895042590824 a35.904666214921605,35.904666214921605 0 0,0 -0.24081604795187045,0.5692180014476595 l -13.676277670692706 -5.925242953022063" fill="#e9b0d5" stroke="none" /><path d="M 119.26925614724726 108.34839909993367 l 7.11166438876021 3.081126335571474 a28.750426431759237,28.750426431759237 0 0,0 -0.20064911006437972,0.45241077337711627 l -7.057574193964557 -3.203085445441278" fill="#f0d0e5" stroke="none" /><path d="M 119.12269723197855 108.67885076344098 l 13.538746317007028 6.14457037017225 a35.86786456994649,35.86786456994649 0 0,0 -0.25999997272843534,0.5600168105736224 l -13.430971727438763 -6.376707248024704" fill="#e9b0d5" stroke="none" /><path d="M 118.97047184881838 109.00673069616215 l 12.933626833769248 6.140579672701808 a35.31731196111877,35.31731196111877 0 0,0 -0.2654629846754665,0.5469323759702619 l -12.826010592479067 -6.362301004637345" fill="#e9b3d6" stroke="none" /><path d="M 118.81262510543309 109.33194174019688 l 13.32449218860873 6.609571185570198 a35.87375283314251,35.87375283314251 0 0,0 -0.27916840036908325,0.5508257386412067 l -13.208745118453377 -6.837951135914099" fill="#e9b0d5" stroke="none" /><line stroke="#e1ed5e" stroke-width="0.3" x1="174.80103733775053" x2="179.2010983576182" y1="140.37084112569926" y2="142.7455964860345" /><path d="M 175.68104954172406 140.8457921977663 a86.0,86.0 0 0,1 -30.038265399797805,32.042727171017184" fill="none" id="id17" stroke="none" /><text fill="#e1ed5e" style="font-size:6.75px; font-family:Arial;" text-anchor="middle"><textPath startOffset="22.206326154141568" xlink:href="#id17">May</textPath></text><path d="M 117.35343817320211 111.8261652097733 l 12.289771656695153 8.375335685749437 a35.872280767343504,35.872280767343504 0 0,0 -0.35212759120977805,0.5072660580544371 l -12.143783158323238 -8.585643005990894" fill="#e9b0d5" stroke="none" /><path d="M 117.14729908036423 112.12312394758627 l 12.149793147018839 8.589892062214785 a35.87964109633853,35.87964109633853 0 0,0 -0.3608812019932133,0.5012324260066789 l -12.000132152650023 -8.797758093672595" fill="#e9b0d5" stroke="none" /><path d="M 116.498646956653 112.99209946851258 l 24.579695569998798 19.35563871329516 a52.285814426244826,52.285814426244826 0 0,0 -0.562899337876089,0.7023034737303072 l -24.242878320067856 -19.77587002060372" fill="#dd61b0" stroke="none" /><path d="M 116.27256486870786 113.27417163493432 l 11.363457103680231 9.26961921353476 a35.664719489683854,35.664719489683854 0 0,0 -0.3921488758496527,0.47236858305955604 l -11.202212227937036 -9.463849053708087" fill="#e9b1d5" stroke="none" /><path d="M 116.0416608686014 113.55231037782055 l 11.251689977187112 9.505648828689335 a35.72949038484006,35.72949038484006 0 0,0 -0.40094866849553884,0.46639388332250725 l -11.086398799120794 -9.697919811173369" fill="#e9b1d5" stroke="none" /><path d="M 115.80600337817218 113.82643327865902 l 11.201628208985728 9.798717698477187 a35.88258522793654,35.88258522793654 0 0,0 -0.4106696100606656,0.46139166038179447 l -11.031299749276728 -9.990083528599849" fill="#e9b0d5" stroke="none" /><path d="M 115.56566222782051 114.09645910891815 l 11.02802636656181 9.98711911212252 a35.878169030539524,35.878169030539524 0 0,0 -0.4184993513603437,0.4541983912759306 l -10.854480607205742 -10.175468758199786" fill="#e9b0d5" stroke="none" /><path d="M 115.32070863581623 114.36230785411682 l 10.849110823586864 10.170434886250545 a35.870808701544505,35.870808701544505 0 0,0 -0.4261681794177994,0.4468356323216343 l -10.6724360927901 -10.355677635154686" fill="#e9b0d5" stroke="none" /><path d="M 114.55890576462653 115.13401014063108 l 10.214740832171431 10.618242458413658 a35.73390658223707,35.73390658223707 0 0,0 -0.4469531788752441,0.42262212803736277 l -10.030451818905378 -10.792499223196941" fill="#e9b1d5" stroke="none" /><path d="M 114.29624159901734 115.38237550388516 l 10.130666144201667 10.90032717027654 a35.88111316213753,35.88111316213753 0 0,0 -0.4560326318383307,0.41657499675497595 l -9.941533962896473 -11.0730949336181" fill="#e9b0d5" stroke="none" /><path d="M 114.0293411484842 115.62618273729858 l 9.939567094964357 11.070904193696522 a35.878169030539524,35.878169030539524 0 0,0 -0.46309771806846556,0.40862989274701 l -9.747527023989303 -11.240357228215823" fill="#e9b0d5" stroke="none" /><path d="M 113.75828350139079 115.86535959552629 l 9.845899217166991 11.353795086856172 a36.02831974203799,36.02831974203799 0 0,0 -0.47203021818835156,0.4022743924170001 l -9.649003522401593 -11.521593869496119" fill="#e9b0d4" stroke="none" /><path d="M 113.48314897796784 116.09983520530334 l 9.557324284310402 11.412122363438606 a35.885529359534544,35.885529359534544 0 0,0 -0.4769868189158376,0.3925276788704342 l -9.359467336849873 -11.574945161166218" fill="#e9b0d5" stroke="none" /><path d="M 113.20401910651253 116.32954008644616 l 9.260430251699269 11.452465025461635 a35.728018319041055,35.728018319041055 0 0,0 -0.48154989929818054,0.38257236379790094 l -9.061922859683737 -11.61017130326466" fill="#e9b1d5" stroke="none" /><path d="M 112.92097659922987 116.55440617244103 l 5.440776673475283 6.970744529606279 a29.84269925462065,29.84269925462065 0 0,0 -0.4076672895409187,0.3125818937949605 l -5.319980655440871 -7.06336576522861" fill="#efcce3" stroke="none" /><path d="M 112.63410532772338 116.77436683061366 l 8.95372139612239 11.887902095299026 a35.88258522793654,35.88258522793654 0 0,0 -0.4965723127369126,0.3673523255954135 l -8.747764112966914 -12.040264369634208" fill="#e9b0d5" stroke="none" /><path d="M 112.34349029814194 116.9893568818739 l 8.746898854399854 12.039073443385973 a35.88111316213753,35.88111316213753 0 0,0 -0.5028014785704176,0.3587355047527469 l -8.538370047980552 -12.18785320998294" fill="#e9b0d5" stroke="none" /><path d="M 112.04921762599082 117.19931262002967 l 8.534146895320557 12.181824990965245 a35.87375283314251,35.87375283314251 0 0,0 -0.5087976335281825,0.34995565180520444 l -8.323192377169491 -12.326921432135542" fill="#e9b0d5" stroke="none" /><path d="M 111.7513745106137 117.40417183066458 l 5.6155188475024165 8.316767953569675 a31.03507255181438,31.03507255181438 0 0,0 -0.4453167898239304,0.29513168591294464 l -5.4715273589385225 -8.412197660573938" fill="#eec6e0" stroke="none" /><path d="M 111.1453310114006 117.79835938074945 l 7.877540896881952 12.579913846958673 a35.84283945136342,35.84283945136342 0 0,0 -0.525730480214608,0.32294660027698885 l -7.659831216735034 -12.713648914064041" fill="#e9b0d5" stroke="none" /><line stroke="#e1ed5e" stroke-width="0.3" x1="143.8653032363475" x2="146.44561519142675" y1="172.8068346515853" y2="177.08958963109032" /><path d="M 144.38136562736335 173.6633856474863 a86.0,86.0 0 0,1 -40.68145358897372,12.25698825130547" fill="none" id="id18" stroke="none" /><text fill="#e1ed5e" style="font-size:6.75px; font-family:Arial;" text-anchor="middle"><textPath startOffset="21.466115282336833" xlink:href="#id18">June</textPath></text><path d="M 110.8373102113329 117.98757091392108 l 7.600576348649609 12.61529875882284 a35.728018319041055,35.728018319041055 0 0,0 -0.5295098669224816,0.31284376274382575 l -7.382298610698745 -12.744261093860416" fill="#e9b1d5" stroke="none" /><path d="M 109.89434966115114 118.52300852407294 l 7.006522906531918 13.116767444693654 a35.870808701544505,35.870808701544505 0 0,0 -0.5471307790874499,0.28623296462098674 l -6.7797012249179724 -13.235429828259356" fill="#e9b0d5" stroke="none" /><path d="M 109.57404056367764 118.69057910512821 l 6.71661550771917 13.112272987647952 a35.73243451643807,35.73243451643807 0 0,0 -0.5498474563318386,0.27570492925073514 l -6.489914143704571 -13.22594575780799" fill="#e9b1d5" stroke="none" /><path d="M 109.2508944713604 118.85261126421891 l 6.487320253159524 13.220659608424372 a35.72654625324205,35.72654625324205 0 0,0 -0.5544204209540635,0.26615549413144685 l -6.258787164205228 -13.330369379055378" fill="#e9b1d5" stroke="none" /><path d="M 108.92500713936063 119.00905698771935 l 6.885041257704773 14.664205819322717 a37.20008411804566,37.20008411804566 0 0,0 -0.5819722949010537,0.26715493665053985 l -6.6316009670363 -14.780547826307332" fill="#e7aad2" stroke="none" /><path d="M 108.59647513512805 119.15986991738527 l 3.624632423146146 8.078600197659117 a29.854475781012688,29.854475781012688 0 0,0 -0.4706761761916243,0.2063306037446269 l -3.485035572296768 -8.1397953546982" fill="#efcce3" stroke="none" /><path d="M 108.2653958097858 119.30500536409082 l 8.010656994609331 18.710026695603876 a41.352781737037645,41.352781737037645 0 0,0 -0.6567777589749624,0.2745331565177877 l -7.687407776136907 -18.845144895141637" fill="#e497c8" stroke="none" /><path d="M 107.93186726928326 119.44442032107085 l 5.621826994396085 13.781517433442579 a35.884057293735545,35.884057293735545 0 0,0 -0.5739380262415198,0.2283817853724369 l -5.383767892112699 -13.876246063221085" fill="#e9b0d5" stroke="none" /><path d="M 107.59598834532513 119.57807347666477 l 8.96833177795017 23.11518271613418 a45.79400425263453,45.79400425263453 0 0,0 -0.7373484070688738,0.278802075158272 l -8.569113150121021 -23.266133041399083" fill="#e181be" stroke="none" /><path d="M 107.2578585660854 119.70592522655815 l 6.075660466588213 16.49612068992388 a38.579409771712974,38.579409771712974 0 0,0 -0.6251342146554283,0.22415088816541384 l -5.790806691303049 -16.598259119129253" fill="#e6a4cf" stroke="none" /><path d="M 106.91757812671514 119.82793768551818 l 2.7237448656045236 7.807102786145452 a29.268593593008855,29.268593593008855 0 0,0 -0.47712026005935665,0.16186509702784674 l -2.58895487260794 -7.852830870071423" fill="#f0cee4" stroke="none" /><path d="M 106.57524785965236 119.94407469862006 l 7.647948762895417 23.197796444204226 a45.425987802883384,45.425987802883384 0 0,0 -0.7447237132710496,0.2384370153896536 l -7.247503704533427 -23.326006306253586" fill="#e183bf" stroke="none" /><path d="M 106.2309692047433 120.05430185196036 l 4.8075544687531755 15.47305809387144 a37.20271911582587,37.20271911582587 0 0,0 -0.6131805764217897,0.18474627767891755 l -4.54049891789114 -15.553519740656084" fill="#e7aad2" stroke="none" /><path d="M 105.88484417918355 120.15858648285463 l 4.377640939516498 14.995648276004395 a36.62156225903685,36.62156225903685 0 0,0 -0.6066428612016954,0.1714433321673554 l -4.118866910210197 -15.068780401510269" fill="#e8add3" stroke="none" /><path d="M 105.53697534728816 120.25689768951611 l 5.320138403529134 19.46360468936122 a41.177605906956096,41.177605906956096 0 0,0 -0.6853317526963283,0.18100234477047084 l -4.9843162080213075 -19.55229838343527" fill="#e497c9" stroke="none" /><path d="M 105.18746579009965 120.34920634021253 l 3.904326484681169 15.315753100090797 a36.805570483912426,36.805570483912426 0 0,0 -0.615260696263318,0.15121610992315448 l -3.64011250367464 -15.38069046832798" fill="#e8acd3" stroke="none" /><path d="M 104.83641907484287 120.43548508189849 l 1.9941456409252332 8.425931017482087 a29.658691029745075,29.658691029745075 0 0,0 -0.4978138563508479,0.1133008129626848 l -1.8488116351815231 -8.459008564022456" fill="#efcce3" stroke="none" /><path d="M 104.48393922423573 120.51570834832081 l 3.177743221979803 14.539370381208268 a35.88258522793654,35.88258522793654 0 0,0 -0.6045507161729531,0.126689480510555 l -2.9270010443774717 -14.591915842445365" fill="#e9b0d5" stroke="none" /><path d="M 104.13013068566511 120.58985236759428 l 6.442769362135494 32.11900060820153 a53.75880762670281,53.75880762670281 0 0,0 -0.9088627480709119,0.17418570877936182 l -5.888938999492878 -32.225143515329364" fill="#dc59ad" stroke="none" /><path d="M 103.7750983002368 120.6578951692458 l 2.7645712509690377 15.128141984235645 a36.37867140220109,36.37867140220109 0 0,0 -0.6169667255416306,0.10726757355911967 l -2.503755553955357 -15.17348813631577" fill="#e8aed4" stroke="none" /><path d="M 103.41894727170886 120.7198165907248 l 2.95863523629548 17.930191542339255 a39.17265228871183,39.17265228871183 0 0,0 -0.666241263088648,0.10405318335083891 l -2.649558109598315 -17.9784630330372" fill="#e6a1cd" stroke="none" /><path d="M 103.06178313531738 120.77559828337769 l 2.2855523944198013 15.508517848425521 a36.67602869360002,36.67602869360002 0 0,0 -0.6253636792375994,0.0866697076155084 l -2.0182601239953715 -15.545562121533633" fill="#e8add3" stroke="none" /><path d="M 102.70371172650421 120.8252237178851 l 1.9784597083658264 15.239001125616454 a36.36689487580905,36.36689487580905 0 0,0 -0.6214800609381499,0.07525258041566796 l -1.7158522243762964 -15.270799234757472" fill="#e8aed4" stroke="none" /><path d="M 102.34483914955558 120.86867818915974 l 1.6617746899553938 14.789518178311912 a35.88258522793654,35.88258522793654 0 0,0 -0.6143908570232047,0.06368412442310804 l -1.4069512363265864 -14.815931671190778" fill="#e9b0d5" stroke="none" /><path d="M 101.98527174616119 120.90594882070398 l 1.8340465226061404 19.31346819927035 a40.40035516508166,40.40035516508166 0 0,0 -0.6928770227601913,0.05978434499821311 l -1.5013251821044076 -19.34217679654723" fill="#e59bca" stroke="none" /><path d="M 101.62511606390274 120.93702456842531 l 0.5288073067249914 6.812837445145478 a27.83332943897937,27.83332943897937 0 0,0 -0.4779873851049544,0.03296480860814442 l -0.4114571608411066 -6.820930598269908" fill="#f1d4e7" stroke="none" /><path d="M 101.26447882468166 120.96189622390904 l 0.7093691637680686 11.759566475216294 a32.780942589433835,32.780942589433835 0 0,0 -0.5635386382589685,0.02912851063028577 l -0.5068424570956204 -11.770034792608783" fill="#ecbedc" stroke="none" /><path d="M 100.90346689309514 120.98055641714683 l 0.6322389415451182 14.682026406924095 a35.695632871462955,35.695632871462955 0 0,0 -0.6141002709787076,0.02115085500608411 l -0.37941831889175837 -14.690734060356272" fill="#e9b1d5" stroke="none" /><line stroke="#e1ed5e" stroke-width="0.3" x1="102.19456741930631" x2="102.32365962044197" y1="184.97166512339345" y2="189.96999836594603" /><path d="M 102.22038585953345 185.97133177190398 a86.0,86.0 0 0,1 -42.740103519485714,-10.115201625700543" fill="none" id="id19" stroke="none" /><text fill="#e1ed5e" style="font-size:6.75px; font-family:Arial;" text-anchor="middle"><textPath startOffset="22.20632615414155" xlink:href="#id19">July</textPath></text><path d="M 100.54218724476979 120.99299961872073 l 0.424912030973641 16.452209435518693 a37.45769563287146,37.45769563287146 0 0,0 -0.6447010059738628,0.011099112483136412 l -0.14165133510711025 -16.45708602528099" fill="#e7a9d1" stroke="none" /><path d="M 100.18074693466247 120.99922214144158 l 0.12354581114753416 14.353581917040687 a35.35411360609388,35.35411360609388 0 0,0 -0.6085854916199693,0.0 l 0.12354581114752426 -14.353581917040687" fill="#e9b3d6" stroke="none" /><path d="M 99.81925306533755 120.99922214144158 l -0.18764367378677416 21.80048694404396 a42.801294483258175,42.801294483258175 0 0,0 -0.7366720548106702,-0.012682477495402491 l 0.5628754184901124 -21.794026989269398" fill="#e390c5" stroke="none" /><path d="M 99.45781275523022 120.99299961872073 l -0.372881210722923 14.437623145963672 a35.44243755403416,35.44243755403416 0 0,0 -0.6097443512054708,-0.02100082832168717 l 0.6213459136030368 -14.429065519215891" fill="#e9b2d6" stroke="none" /><path d="M 99.09653310690486 120.98055641714683 l -0.6336322358167755 14.714381869305376 a35.728018319041055,35.728018319041055 0 0,0 -0.6142019478626316,-0.03174722503985223 l 0.8868222520928961 -14.70129483750332" fill="#e9b1d5" stroke="none" /><path d="M 98.73552117531835 120.96189622390904 l -0.8751805494852116 14.508304526263169 a35.53467719699979,35.53467719699979 0 0,0 -0.6102441848065672,-0.04208601185565697 l 1.1247874950707089 -14.491090169891226" fill="#e9b2d6" stroke="none" /><path d="M 98.37488393609728 120.93702456842531 l -1.1507995287668713 14.826213673170965 a35.870808701544505,35.870808701544505 0 0,0 -0.615194075288924,-0.0530815334175963 l 1.405837921797337 -14.804207887474705" fill="#e9b0d5" stroke="none" /><path d="M 98.01472825383883 120.90594882070398 l -1.3927564760787712 14.666453428810811 a35.73243451643807,35.73243451643807 0 0,0 -0.6118199379064908,-0.06341763814480098 l 1.6450090105908552 -14.64030642221025" fill="#e9b1d5" stroke="none" /><path d="M 97.65516085044442 120.86867818915974 l -1.6206823385717257 14.423803089827443 a35.514568778185385,35.514568778185385 0 0,0 -0.6069145150783838,-0.07348889565729945 l 1.8687242767014989 -14.393768665444794" fill="#e9b2d6" stroke="none" /><path d="M 97.2962882734958 120.8252237178851 l -1.8647442351385446 14.36311256585308 a35.48365539640629,35.48365539640629 0 0,0 -0.605032498934867,-0.08385199128368272 l 2.1117053252602425 -14.328886009076792" fill="#e9b2d6" stroke="none" /><path d="M 96.93821686468263 120.77559828337769 l -2.1542012754992435 14.617240458695372 a35.7751244246092,35.7751244246092 0 0,0 -0.6084567342577806,-0.0950284283463143 l 2.405493873365541 -14.577993723001951" fill="#e9b1d5" stroke="none" /><path d="M 96.58105272829116 120.7198165907248 l -2.0766767373430715 12.585266076498144 a33.755450148374884,33.755450148374884 0 0,0 -0.572478013750841,-0.09953264075479455 l 2.2930037225659623 -12.547654857222344" fill="#ebbada" stroke="none" /><path d="M 95.86986931433489 120.58985236759428 l -2.9249744363348724 14.581812636619736 a35.872280767343504,35.872280767343504 0 0,0 -0.6043771063565962,-0.12665309888556395 l 3.1755430041208554 -14.52930355700763" fill="#e9b0d5" stroke="none" /><path d="M 95.16358092515715 120.4354850818985 l -3.381097326920655 14.286264882242245 a35.68091221347291,35.68091221347291 0 0,0 -0.596460334757406,-0.14659543847552395 l 3.6265109464212717 -14.22594818545269" fill="#e9b1d5" stroke="none" /><path d="M 94.81253420990036 120.34920634021253 l -3.6472380219197182 14.307255620183543 a35.76481996401617,35.76481996401617 0 0,0 -0.5952450661214334,-0.1572096320608885 l 3.892973530852641 -14.242354638819073" fill="#e9b1d5" stroke="none" /><path d="M 92.7421414339146 119.70592522655815 l -5.091202000431099 13.823202122263291 a35.73096245063906,35.73096245063906 0 0,0 -0.5753191640693908,-0.21753647974706597 l 5.3283913852607725 -13.733517392409594" fill="#e9b1d5" stroke="none" /><path d="M 92.06813273071674 119.44442032107085 l -5.414990910733204 13.274473176174194 a35.33644881650583,35.33644881650583 0 0,0 -0.5612244857291341,-0.23459188055143237 l 5.6426868559598 -13.179296252602787" fill="#e9b3d6" stroke="none" /><path d="M 91.07499286063937 119.00905698771935 l -6.080483051670399 12.950605757201046 a35.30700750052574,35.30700750052574 0 0,0 -0.5479098321543703,-0.263030015859768 l 6.302505551825011 -12.844021464841717" fill="#e9b3d6" stroke="none" /><path d="M 90.10565033884886 118.52300852407294 l -5.574978333270989 10.436802288700019 a32.832464892399,32.832464892399 0 0,0 -0.4962035898557701,-0.2705697607332829 l 5.753804734995399 -10.33929187620697" fill="#ecbedc" stroke="none" /><line stroke="#e1ed5e" stroke-width="0.3" x1="58.666819895761336" x2="56.23545636021788" y1="174.27360380694188" y2="178.64263932499728" /><path d="M 58.180547188652646 175.14741091055294 a86.0,86.0 0 0,1 -31.652253787137756,-30.449443065178592" fill="none" id="id20" stroke="none" /><text fill="#e1ed5e" style="font-size:6.75px; font-family:Arial;" text-anchor="middle"><textPath startOffset="22.20632615414155" xlink:href="#id20">August</textPath></text><path d="M 89.7882731507175 118.34994917583269 l -7.167559941715465 12.879737441709425 a35.73979484543309,35.73979484543309 0 0,0 -0.5349927895069034,-0.3037828683361474 l 7.388201498143577 -12.754451407578644" fill="#e9b1d5" stroke="none" /><path d="M 88.8546689885994 117.79835938074946 l -8.228330925911004 13.140102413584126 a36.50379699511648,36.50379699511648 0 0,0 -0.5296843447046107,-0.3380696099378633 l 8.453297072662538 -12.99651837482246" fill="#e8add3" stroke="none" /><path d="M 88.54995079064634 117.60387380957326 l -7.758219664295109 11.927871877234512 a35.228988013178494,35.228988013178494 0 0,0 -0.5054945441027279,-0.3350142200562842 l 7.962388907137799 -11.79255963608691" fill="#e9b3d6" stroke="none" /><path d="M 88.24862548938628 117.40417183066458 l -8.004400270086695 11.854779845215859 a35.30406336892773,35.30406336892773 0 0,0 -0.5007177247272501,-0.3443982168553841 l 8.207274879436838 -11.715240838995376" fill="#e9b3d6" stroke="none" /><path d="M 87.95078237400918 117.19931262002967 l -8.486847585528592 12.114308937967019 a35.79131714839825,35.79131714839825 0 0,0 -0.501543168431771,-0.3578377338790289 l 8.694118081809247 -11.966426942243771" fill="#e9b1d5" stroke="none" /><path d="M 87.65650970185807 116.9893568818739 l -9.127612623905831 12.563080992608437 a36.52882211369956,36.52882211369956 0 0,0 -0.5055154628165619,-0.3739682542238156 l 9.342513057140957 -12.404102789644853" fill="#e8add3" stroke="none" /><path d="M 87.07902340077011 116.55440617244103 l -6.777666166663727 8.683572620265416 a32.01549781526742,32.01549781526742 0 0,0 -0.43151175112072554,-0.3428190326141179 l 6.926135410501811 -8.565619673646168" fill="#edc2de" stroke="none" /><path d="M 86.79598089348748 116.32954008644616 l -9.371499879905551 11.589825925317244 a35.904666214921605,35.904666214921605 0 0,0 -0.4772411840579487,-0.39273700406529366 l 9.569611192508189 -11.426793802394771" fill="#e9b0d5" stroke="none" /><path d="M 86.51685102203217 116.09983520530335 l -3.5991189551675253 4.297603041927832 a26.60562656260953,26.60562656260953 0 0,0 -0.3485774468891608,-0.2970652624651576 l 3.6725618786337426 -4.235013389239723" fill="#f3daea" stroke="none" /><path d="M 86.24171649860922 115.8653595955263 l -9.705091960265586 11.191423249978817 a35.81339813538332,35.81339813538332 0 0,0 -0.4622616872855525,-0.40789219278472155 l 9.896296000457726 -11.022707915421806" fill="#e9b1d5" stroke="none" /><path d="M 85.97065885151581 115.62618273729859 l -10.447019021451098 11.63611509346376 a36.637754982825896,36.637754982825896 0 0,0 -0.4656492053066256,-0.4253595086115042 l 10.64576777622458 -11.454562818265677" fill="#e8add3" stroke="none" /><path d="M 85.44109423537348 115.13401014063109 l -4.990516801810197 5.187651675656192 a28.19840175713251,28.19840175713251 0 0,0 -0.3469075446134129,-0.3395220467637612 l 5.079074298799404 -5.100979525969862" fill="#f1d3e6" stroke="none" /><path d="M 85.18274418774928 114.88116024355367 l -6.763935154229768 6.793106914161428 a30.586298572329838,30.586298572329838 0 0,0 -0.3698893936806534,-0.37469600293702265 l 6.879865172965954 -6.675670417243741" fill="#eec8e1" stroke="none" /><path d="M 84.9287848128048 114.62390073753433 l -10.575241069969193 10.26136736566011 a35.735378648036075,35.735378648036075 0 0,0 -0.4245591836512994,-0.4451486066931388 l 10.75030680499945 -10.077811642384471" fill="#e9b1d5" stroke="none" /><path d="M 84.67929136418377 114.36230785411682 l -3.2272399549473865 3.0253570414950377 a25.42355772600883,25.42355772600883 0 0,0 -0.2965519898339876,-0.3218486152354809 l 3.2788383527771052 -2.9693571714582148" fill="#f4dfed" stroke="none" /><path d="M 84.4343377721795 114.09645910891817 l -7.13597431852322 6.462427920577947 a30.627310325490104,30.627310325490104 0 0,0 -0.35052395218122673,-0.3938173761545047 l 7.24615712035278 -6.338636374682577" fill="#eec8e1" stroke="none" /><path d="M 84.19399662182784 113.82643327865904 l -8.11037769433981 7.094620529461233 a31.775521648713696,31.775521648713696 0 0,0 -0.35657808041977074,-0.41478086523814245 l 8.231298284330363 -6.95396256506156" fill="#edc3de" stroke="none" /><path d="M 83.95833913139862 113.55231037782056 l -25.970195884782747 21.940131890723595 a54.99735962801131,54.99735962801131 0 0,0 -0.6047195396857876,-0.7284236413808309 l 26.344011424362073 -21.489846992229005" fill="#dc53aa" stroke="none" /><path d="M 83.06392112726016 112.41649034213515 l -11.642787497134819 8.535774992545226 a35.436549290838144,35.436549290838144 0 0,0 -0.3564245380334692,-0.49504250955743473 l 11.787991827543895 -8.334098877536652" fill="#e9b2d6" stroke="none" /><line stroke="#e1ed5e" stroke-width="0.3" x1="26.63291911575756" x2="22.317208475507996" y1="142.92168965132927" y2="145.44649492493687" /><path d="M 25.769776987707644 143.4266507060508 a86.0,86.0 0 0,1 -11.730757126820373,-40.83630448921669" fill="none" id="id21" stroke="none" /><text fill="#e1ed5e" style="font-size:6.75px; font-family:Arial;" text-anchor="middle"><textPath startOffset="21.46611528233685" xlink:href="#id21">September</textPath></text><line stroke="#e1ed5e" stroke-width="0.3" x1="15.007084014347285" x2="10.007500721073583" y1="101.09737516637583" y2="101.16192664675087" /><path d="M 14.007167355692545 101.11028546245083 a86.0,86.0 0 0,1 10.666146001902534,-42.60595125391555" fill="none" id="id22" stroke="none" /><text fill="#e1ed5e" style="font-size:6.75px; font-family:Arial;" text-anchor="middle"><textPath startOffset="22.20632615414155" xlink:href="#id22">October</textPath></text><path d="M 79.00175016825051 100.2711162175752 l -13.301552506161569 0.17174129426233445 a34.30266116783886,34.30266116783886 0 0,0 -0.002541178236003174,-0.5904803278364091 l 13.302537981687076 0.0572485117777501" fill="#eab8d8" stroke="none" /><path d="M 79.00486145842228 99.54816195383935 l -14.743961995955791 -0.3173059786067456 a35.74737598429796,35.74737598429796 0 0,0 0.018534683434570095,-0.6150759092547465 l 14.736315618065575 0.5710520352864865" fill="#e9b1d5" stroke="none" /><path d="M 79.08570108090925 98.10471618934814 l -14.67049348213197 -1.3294611929629565 a35.7306091548473,35.7306091548473 0 0,0 0.06078095524457236,-0.6120559245635652 l 14.64543540120517 1.5817926482309521" fill="#e9b1d5" stroke="none" /><path d="M 79.12142395522702 97.74499172005258 l -7.328659730563221 -0.79153809809145 a28.37128116456761,28.37128116456761 0 0,0 0.056620494211569304,-0.4850898168516147 l 7.313948883348063 0.9175716532679264" fill="#f1d2e6" stroke="none" /><path d="M 79.26566170972629 96.67025291283419 l -17.80877969646225 -2.8599288528097992 a39.03695726335958,39.03695726335958 0 0,0 0.11225567528804258,-0.662539349979477 l 17.756912159653982 3.1660539911051044" fill="#e6a2ce" stroke="none" /><path d="M 79.3925641242962 95.95851677861259 l -14.454982056109083 -2.8348780409938197 a35.73034418300348,35.73034418300348 0 0,0 0.1235601310366329,-0.6025230804219951 l 14.404042629157455 3.083276777579217" fill="#e9b1d5" stroke="none" /><path d="M 79.54389044137918 95.25157060432595 l -7.183996205720282 -1.667604422233693 a28.375005491039094,28.375005491039094 0 0,0 0.11453665514568516,-0.4748283800617546 l 7.154226750313782 1.7910180339548445" fill="#f1d2e6" stroke="none" /><path d="M 79.71946130924805 94.55025226153421 l -7.127910143433489 -1.91539844066754 a28.38077598897119,28.38077598897119 0 0,0 0.13083974177738036,-0.47070016557894034 l 7.0938836310897475 2.0378099096654227" fill="#f1d2e6" stroke="none" /><path d="M 79.91906864156998 93.8553929516997 l -29.72628640210999 -9.09600982573545 a52.0868058508774,52.0868058508774 0 0,0 0.26972164306253105,-0.8550913165937926 l 29.565309275279258 9.606351308755658" fill="#dd62b1" stroke="none" /><path d="M 80.14247586403 93.16781622104843 l -6.971412183409196 -2.3985854887919555 a28.372502979180783,28.372502979180783 0 0,0 0.16286751542165445,-0.46044839807251714 l 6.929091587177733 2.518231513291084" fill="#f1d2e6" stroke="none" /><path d="M 80.2630227832202 92.82701384747504 l -6.92819229270446 -2.517904683770384 a28.371546136411432,28.371546136411432 0 0,0 0.1707634880360372,-0.4575612496717682 l 6.883824216166795 2.6367890704714934" fill="#f1d2e6" stroke="none" /><path d="M 80.38941819471856 92.48833698450439 l -6.91067151826674 -2.6470726963349387 a28.40029558146599,28.40029558146599 0 0,0 0.1787953457683958,-0.4550146528399374 l 6.864082622616653 2.7656363540706392" fill="#f1d2e6" stroke="none" /><path d="M 80.803312248108 91.48605970444005 l -57.59006325567602 -25.54182088667983 a84.0,84.0 0 0,0 0.5975907321465934,-1.3167119646317162 l 57.141870206566075 26.529354860153617" fill="#800d55" stroke="none" /><path d="M 81.26839172434947 90.50648371742162 l -6.5718151824285815 -3.330714240996737 a28.367659882702057,28.367659882702057 0 0,0 0.22449702265844515,-0.4336567918089777 l 6.513508726610023 3.4433437550660506" fill="#f1d2e6" stroke="none" /><path d="M 81.43458229118936 90.18545643968196 l -6.518571194181625 -3.4460200109566257 a28.373386218660187,28.373386218660187 0 0,0 0.23197526721381828,-0.4298149392099119 l 6.458287827749335 3.5577159334990105" fill="#f1d2e6" stroke="none" /><line stroke="#e1ed5e" stroke-width="0.3" x1="26.266209847984243" x2="21.928928074336255" y1="57.711370442889674" y2="55.22380399835377" /><path d="M 25.398753493254645 57.213857153982495 a86.0,86.0 0 0,1 29.58750427330803,-30.492523968695096" fill="none" id="id23" stroke="none" /><text fill="#e1ed5e" style="font-size:6.75px; font-family:Arial;" text-anchor="middle"><textPath startOffset="21.46611528233685" xlink:href="#id23">November</textPath></text><line stroke="#e1ed5e" stroke-width="0.3" x1="56.76296977257108" x2="54.21961505331056" y1="26.818313649435495" y2="22.513508569990535" /><path d="M 56.25429882871898 25.957352633546506 a86.0,86.0 0 0,1 42.26535254187918,-11.944610805530505" fill="none" id="id24" stroke="none" /><text fill="#e1ed5e" style="font-size:6.75px; font-family:Arial;" text-anchor="middle"><textPath startOffset="22.20632615414155" xlink:href="#id24">December</textPath></text><path d="M 90.26544431104013 81.39251694778311 l -3.525941731537889 -6.7397941014507445 a28.606384793326633,28.606384793326633 0 0,0 0.43827639501205307,-0.22450219227271023 l 3.409404848937072 6.79948881903596" fill="#f0d1e5" stroke="none" /><path d="M 92.23578459929587 80.48803036053334 l -2.7209241771886954 -6.837856395867359 a28.35932799027969,28.35932799027969 0 0,0 0.45512242676286274,-0.17658043083285588 l 2.602818585426155 6.883679530590766" fill="#f1d2e6" stroke="none" /><path d="M 93.25333710446033 80.11325718540243 l -2.463994099039798 -7.262970998104232 a28.669551136761925,28.669551136761925 0 0,0 0.46870235161190615,-0.1545237962061681 l 2.3386089251854827 7.304308518569634" fill="#f0d1e5" stroke="none" /><path d="M 93.59665428221793 80.00007090966166 l -7.738053611084768 -24.168697168600826 a46.377222001542165,46.377222001542165 0 0,0 0.7623854956178177,-0.2368768845908855 l 7.320882742756223 24.298314188074237" fill="#e07ebd" stroke="none" /><path d="M 94.28887869178378 79.79150937346287 l -2.0037552580829696 -7.0901784720611065 a28.36788069257191,28.36788069257191 0 0,0 0.4710447559880683,-0.1287543256302838 l 1.881412612871179 7.123619338517686" fill="#f1d2e6" stroke="none" /><path d="M 94.63758080256005 79.69619591428918 l -1.8895996463165308 -7.154618019709366 a28.39994228567423,28.39994228567423 0 0,0 0.4737260640252716,-0.12076332167085314 l 1.7661646936062598 7.186084337549082" fill="#f1d2e6" stroke="none" /><path d="M 94.98787191387505 79.60689891045804 l -1.7585124644979717 -7.15494932282397 a28.36788069257191,28.36788069257191 0 0,0 0.47519754660569824,-0.11246390626460341 l 1.6350912309297396 7.184159141229443" fill="#f1d2e6" stroke="none" /><path d="M 95.692805502759 79.44645832069477 l -5.084555696034018 -24.263038849563344 a45.790073836951194,45.790073836951194 0 0,0 0.7728352514664547,-0.15502348098760235 l 4.666154035100427 24.34696628662816" fill="#e181be" stroke="none" /><path d="M 96.04723909329186 79.375362276772 l -1.3873002100327907 -7.238627612595212 a28.370368483772225,28.370368483772225 0 0,0 0.48041149756848167,-0.08779213046762772 l 1.2624935913614157 7.261435224413576" fill="#f1d2e6" stroke="none" /><path d="M 97.11714578562143 79.19881850522333 l -1.0156832198088337 -7.328643568262072 a28.398691029745077,28.398691029745077 0 0,0 0.4847863078009347,-0.06293917621275835 l 0.8893821835000412 7.345041067638967" fill="#f1d2e6" stroke="none" /><path d="M 97.47563105711357 79.15227682838746 l -0.8864199710012267 -7.320577374911008 a28.37404864826974,28.37404864826974 0 0,0 0.48537633479493186,-0.05453768666029818 l 0.7602769326965769 7.334751015041904" fill="#f1d2e6" stroke="none" /><path d="M 98.19473922651362 79.07773832637324 l -2.9716405311655563 -34.440143887317475 a55.56810897960138,55.56810897960138 0 0,0 0.9536805540395862,-0.07402396568510992 l 2.378369787763636 34.48619311519105" fill="#dc50a9" stroke="none" /><path d="M 98.55514903715128 79.0497635885617 l -0.5072440709409824 -7.355003026444787 a28.372473537864803,28.372473537864803 0 0,0 0.4875173914645309,-0.029408380405385133 l 0.38056463063682855 7.362644676230479" fill="#f1d2e6" stroke="none" /><path d="M 99.27714615592234 79.0124445844662 l -0.2539523024334715 -7.373327352261069 a28.37769937145127,28.37769937145127 0 0,0 0.4883307003471197,-0.012612141274065946 l 0.12699496689147283 7.376606285677495" fill="#f1d2e6" stroke="none" /></svg>